<svg width="312" height="334" viewBox="0 0 312 334" fill="none" xmlns="http://www.w3.org/2000/svg">
<g filter="url(#filter0_d)">
<rect x="23" y="23" width="259" height="273.313" fill="#FBFBFB"/>
</g>
<g clip-path="url(#clip0)">
<path d="M151.429 102.291C140.399 102.329 131.542 111.435 131.542 122.465V148.998C131.542 149.806 132.452 150.281 133.115 149.819L149.608 138.327C150.745 137.535 152.255 137.535 153.392 138.327L169.885 149.819C170.548 150.281 171.457 149.806 171.457 148.998V122.248C171.457 111.203 162.484 102.253 151.429 102.291Z" fill="url(#paint0_linear)"/>
<path d="M171.457 148.997V122.248C171.457 111.202 162.484 102.252 151.429 102.291C141.949 102.324 134.075 109.055 132.049 117.949L132.104 118.196L151.647 137.739C152.259 137.766 152.866 137.961 153.392 138.328L169.885 149.819C170.548 150.281 171.457 149.806 171.457 148.997Z" fill="url(#paint1_linear)"/>
<path d="M140.033 105.965V144.998L135.782 147.96V110.053C136.991 108.492 138.422 107.111 140.029 105.968L140.033 105.965Z" fill="url(#paint2_linear)"/>
<path d="M167.218 109.95V147.96L162.967 144.998V105.914C164.574 107.044 166.007 108.405 167.218 109.95Z" fill="url(#paint3_linear)"/>
<path d="M151.5 102.291V137.733C152.162 137.733 152.823 137.931 153.392 138.327L169.885 149.819C170.548 150.281 171.457 149.806 171.457 148.998V122.248C171.458 111.226 162.522 102.292 151.5 102.291Z" fill="url(#paint4_linear)"/>
<path d="M169.885 146.584L153.392 135.093C152.255 134.3 150.745 134.3 149.608 135.093L133.115 146.584C132.452 147.046 131.543 146.571 131.543 145.763V148.998C131.543 149.806 132.452 150.281 133.115 149.819L149.608 138.328C150.745 137.535 152.255 137.535 153.392 138.328L169.885 149.819C170.548 150.281 171.458 149.806 171.458 148.998V145.763C171.458 146.571 170.548 147.046 169.885 146.584Z" fill="url(#paint5_linear)"/>
<path d="M140.033 105.964V126.126L135.782 121.875V110.052C135.867 109.944 135.953 109.836 136.039 109.727C136.131 109.614 136.226 109.499 136.321 109.387C136.398 109.295 136.476 109.204 136.554 109.114C136.713 108.933 136.874 108.754 137.04 108.579C137.1 108.515 137.16 108.452 137.221 108.389C137.381 108.222 137.545 108.059 137.711 107.898C137.873 107.741 138.038 107.585 138.207 107.434C138.238 107.405 138.268 107.378 138.299 107.351C138.385 107.273 138.471 107.197 138.559 107.123C138.703 106.997 138.849 106.875 138.996 106.755C139.066 106.698 139.135 106.642 139.206 106.586C139.272 106.533 139.339 106.482 139.405 106.432C139.54 106.327 139.676 106.225 139.813 106.125C139.884 106.071 139.957 106.02 140.03 105.968L140.033 105.964Z" fill="url(#paint6_linear)"/>
<path d="M167.218 109.95V147.96L162.967 144.998V105.914C164.574 107.044 166.007 108.405 167.218 109.95Z" fill="url(#paint7_linear)"/>
<path d="M181.307 91.656C181.307 76.9343 167.962 65 151.5 65C135.038 65 121.693 76.9343 121.693 91.656V97.9577C121.693 112.679 135.038 124.614 151.5 124.614C167.962 124.614 181.307 112.679 181.307 97.9577C181.307 97.937 181.307 91.6767 181.307 91.656Z" fill="url(#paint8_linear)"/>
<path d="M181.307 91.656C181.307 76.9343 167.962 65 151.5 65C135.038 65 121.693 76.9343 121.693 91.656V97.9577C121.693 112.679 135.038 124.614 151.5 124.614C167.962 124.614 181.307 112.679 181.307 97.9577C181.307 97.937 181.307 91.6767 181.307 91.656Z" fill="url(#paint9_linear)"/>
<path d="M176.049 76.5362C170.672 69.5678 161.683 65 151.5 65C141.317 65 132.328 69.5678 126.951 76.5362V113.078C132.328 120.046 141.317 124.614 151.5 124.614C161.683 124.614 170.672 120.046 176.049 113.078V76.5362Z" fill="url(#paint10_linear)"/>
<path d="M134.017 119.547C138.928 122.733 144.968 124.614 151.5 124.614C158.032 124.614 164.071 122.733 168.983 119.547V70.0665C164.071 66.8803 158.032 65 151.5 65C144.968 65 138.929 66.8803 134.017 70.0665V119.547Z" fill="url(#paint11_linear)"/>
<path d="M144.728 123.922C146.904 124.374 149.171 124.614 151.5 124.614C153.83 124.614 156.096 124.374 158.272 123.922V65.6913C156.096 65.2393 153.83 65 151.5 65C149.171 65 146.904 65.2393 144.728 65.6913V123.922Z" fill="url(#paint12_linear)"/>
<path d="M151.5 118.312C167.962 118.312 181.307 106.378 181.307 91.656C181.307 76.9343 167.962 65 151.5 65C135.038 65 121.693 76.9343 121.693 91.656C121.693 106.378 135.038 118.312 151.5 118.312Z" fill="url(#paint13_linear)"/>
<path d="M151.5 115.339C166.126 115.339 177.983 104.736 177.983 91.656C177.983 78.5762 166.126 67.9728 151.5 67.9728C136.874 67.9728 125.017 78.5762 125.017 91.656C125.017 104.736 136.874 115.339 151.5 115.339Z" fill="url(#paint14_linear)"/>
<path d="M151.5 113.096C164.741 113.096 175.475 103.497 175.475 91.656C175.475 79.8149 164.741 70.2158 151.5 70.2158C138.259 70.2158 127.526 79.8149 127.526 91.656C127.526 103.497 138.259 113.096 151.5 113.096Z" fill="url(#paint15_linear)"/>
<path d="M180.806 96.5372L169.99 85.7207C169.808 85.3432 169.453 85.0458 168.97 84.977L163.936 84.2448L152.715 73.0515V73.0513C152.469 72.5452 151.984 72.2895 151.5 72.2895C151.015 72.2895 150.531 72.545 150.285 73.0513L145.285 83.3402L134.03 84.977C133.473 85.0565 133.085 85.4398 132.938 85.9003C132.788 86.3632 132.882 86.9032 133.29 87.2913L141.266 95.2458C141.283 95.2687 141.302 95.2907 141.321 95.313L139.478 106.066C139.384 106.608 139.618 107.09 139.999 107.375L150.93 118.306C151.119 118.309 151.309 118.312 151.5 118.312C166.097 118.312 178.242 108.927 180.806 96.5372Z" fill="url(#paint16_linear)"/>
<path d="M170.062 85.9002C169.915 85.4397 169.527 85.0563 168.97 84.9768L157.715 83.34L152.715 73.0512C152.469 72.545 151.985 72.2893 151.5 72.2893C151.016 72.2893 150.531 72.5448 150.285 73.0512L145.285 83.34L134.03 84.9768C133.473 85.0563 133.085 85.4397 132.938 85.9002C132.788 86.363 132.882 86.903 133.29 87.2912L141.375 94.9982L139.478 106.066C139.384 106.608 139.618 107.09 139.999 107.375C140.382 107.662 140.915 107.751 141.411 107.502L151.5 102.474L161.589 107.502C162.086 107.751 162.618 107.662 163.002 107.375C163.382 107.09 163.616 106.608 163.522 106.066L161.625 94.9982L169.711 87.2912C170.118 86.903 170.212 86.363 170.062 85.9002ZM151.5 91.7872L151.483 91.792L151.49 91.7848L151.5 91.7703L151.51 91.7848L151.517 91.792L151.5 91.7872Z" fill="url(#paint17_linear)"/>
<path d="M151.49 91.7847L151.483 91.7918L141.375 94.998L133.29 87.291C132.882 86.9028 132.788 86.3628 132.938 85.9L151.49 91.7847Z" fill="url(#paint18_linear)"/>
<path d="M151.483 91.792L139.998 107.375C139.618 107.09 139.384 106.608 139.478 106.066L141.375 94.9984L151.483 91.792Z" fill="url(#paint19_linear)"/>
<path d="M163.002 107.375C162.618 107.661 162.086 107.751 161.589 107.502L151.5 102.474V91.787L151.517 91.7918L163.002 107.375Z" fill="url(#paint20_linear)"/>
<path d="M151.5 91.7872V102.474L141.411 107.503C140.915 107.751 140.382 107.662 139.999 107.375L151.483 91.792L151.5 91.7872Z" fill="url(#paint21_linear)"/>
<path d="M163.002 107.375L151.517 91.7918L161.625 94.998L163.522 106.065C163.616 106.608 163.382 107.09 163.002 107.375Z" fill="url(#paint22_linear)"/>
<path d="M151.5 91.7703L151.49 91.7848L132.938 85.9003C133.085 85.4398 133.473 85.0565 134.03 84.977L145.285 83.3402L151.5 91.7703Z" fill="url(#paint23_linear)"/>
<path d="M157.715 83.34L151.5 91.7703V72.2893C151.984 72.2893 152.469 72.5448 152.715 73.0512L157.715 83.34Z" fill="url(#paint24_linear)"/>
<path d="M151.5 72.2893V91.7702L145.285 83.34L150.285 73.0512C150.531 72.5448 151.015 72.2893 151.5 72.2893Z" fill="url(#paint25_linear)"/>
<path d="M170.062 85.9002L151.51 91.7847L151.5 91.7703L157.715 83.3402L168.97 84.977C169.527 85.0565 169.915 85.4397 170.062 85.9002Z" fill="url(#paint26_linear)"/>
<path d="M169.711 87.2912L161.625 94.9982L151.517 91.792L151.51 91.7848L170.063 85.9003C170.212 86.363 170.118 86.903 169.711 87.2912Z" fill="url(#paint27_linear)"/>
<path d="M166.919 86.5892C166.797 86.2067 166.474 85.8883 166.012 85.8222L156.662 84.4625L152.509 75.9162C152.305 75.4957 151.903 75.2833 151.5 75.2833C151.098 75.2833 150.695 75.4957 150.491 75.9162L146.338 84.4625L136.989 85.8222C136.526 85.8883 136.204 86.2067 136.081 86.5892C135.957 86.9737 136.035 87.4222 136.374 87.7445L143.09 94.1462L141.514 103.339C141.436 103.79 141.63 104.19 141.947 104.427C142.265 104.665 142.708 104.739 143.12 104.533L151.5 100.356L159.88 104.533C160.293 104.739 160.735 104.665 161.054 104.427C161.37 104.19 161.564 103.79 161.486 103.339L159.91 94.1462L166.627 87.7445C166.965 87.4222 167.043 86.9737 166.919 86.5892ZM151.5 91.479L151.486 91.483L151.492 91.477L151.5 91.465L151.508 91.477L151.514 91.483L151.5 91.479Z" fill="url(#paint28_linear)"/>
<path d="M151.5 110.823C163.337 110.823 172.933 102.242 172.933 91.656C172.933 81.0702 163.337 72.4887 151.5 72.4887C139.663 72.4887 130.067 81.0702 130.067 91.656C130.067 102.242 139.663 110.823 151.5 110.823Z" fill="url(#paint29_linear)"/>
</g>
<path d="M80.6554 184.28C84.6754 184.28 87.9354 181.12 87.9354 177C87.9354 172.88 84.6754 169.72 80.6554 169.72C76.6354 169.72 73.3754 172.88 73.3754 177C73.3754 181.12 76.6354 184.28 80.6554 184.28ZM80.6554 181.16C78.3754 181.16 76.5754 179.5 76.5754 177C76.5754 174.5 78.3754 172.84 80.6554 172.84C82.9354 172.84 84.7354 174.5 84.7354 177C84.7354 179.5 82.9354 181.16 80.6554 181.16ZM99.2371 184L95.4971 179L99.1371 174H95.6371L92.6371 178.38V174H89.6371V184H92.6371V179.58L95.8371 184H99.2371ZM104.535 184.28C107.475 184.28 109.835 181.98 109.835 179C109.835 176.02 107.475 173.72 104.535 173.72C101.595 173.72 99.2348 176.02 99.2348 179C99.2348 181.98 101.595 184.28 104.535 184.28ZM104.535 181.36C103.235 181.36 102.235 180.42 102.235 179C102.235 177.58 103.235 176.64 104.535 176.64C105.835 176.64 106.835 177.58 106.835 179C106.835 180.42 105.835 181.36 104.535 181.36ZM117.932 174V177.6H114.532V174H111.532V184H114.532V180.4H117.932V184H120.932V174H117.932ZM128.833 174V178.2C128.413 178.4 127.913 178.52 127.233 178.52C126.393 178.52 125.633 178.26 125.633 177.3V174H122.633V177.7C122.633 180.16 124.393 181.32 126.633 181.32C127.433 181.32 128.153 181.2 128.833 181V184H131.833V174H128.833ZM141.232 174L136.952 179V174H134.032V184H136.232L140.512 179V184H143.432V174H141.232ZM153.733 174H144.733V176.88H147.753V184H150.753V176.88H153.733V174ZM159.708 177H158.028V174H155.028V184H159.708C162.128 184 163.628 182.6 163.628 180.5C163.628 178.4 162.128 177 159.708 177ZM159.728 181.4H158.028V179.6H159.728C160.328 179.6 160.708 179.98 160.708 180.5C160.708 181.02 160.328 181.4 159.728 181.4ZM179.725 184L175.985 179L179.625 174H176.125L173.125 178.38V174H170.125V184H173.125V179.58L176.325 184H179.725ZM187.129 174L185.249 180.14L182.929 174H179.729L183.649 183.82C183.189 184.88 182.549 185.2 181.209 185.2V188C183.809 188.14 185.789 186.88 186.909 183.7L190.329 174H187.129ZM197.414 173.72C196.074 173.72 195.094 174.18 194.434 174.94V174H191.434V188H194.434V183.06C195.094 183.82 196.074 184.28 197.414 184.28C200.034 184.28 202.194 181.98 202.194 179C202.194 176.02 200.034 173.72 197.414 173.72ZM196.814 181.44C195.434 181.44 194.434 180.5 194.434 179C194.434 177.5 195.434 176.56 196.814 176.56C198.194 176.56 199.194 177.5 199.194 179C199.194 180.5 198.194 181.44 196.814 181.44ZM208.695 184.28C210.655 184.28 212.355 183.26 213.215 181.7L210.595 180.2C210.275 180.9 209.535 181.32 208.655 181.32C207.355 181.32 206.395 180.38 206.395 179C206.395 177.62 207.355 176.68 208.655 176.68C209.535 176.68 210.255 177.1 210.595 177.8L213.215 176.28C212.355 174.74 210.635 173.72 208.695 173.72C205.655 173.72 203.395 176.02 203.395 179C203.395 181.98 205.655 184.28 208.695 184.28ZM219.2 177H217.52V174H214.52V184H219.2C221.62 184 223.12 182.6 223.12 180.5C223.12 178.4 221.62 177 219.2 177ZM224.12 174V184H227.12V174H224.12ZM219.22 181.4H217.52V179.6H219.22C219.82 179.6 220.2 179.98 220.2 180.5C220.2 181.02 219.82 181.4 219.22 181.4ZM76.6577 203.88C77.2777 203.42 77.5977 202.72 77.5977 201.86C77.5977 200.2 76.4177 199 74.1977 199H69.1977V209H74.5977C76.8177 209 77.9977 207.8 77.9977 206.14C77.9977 205.12 77.5177 204.34 76.6577 203.88ZM73.8777 201.4C74.4177 201.4 74.7577 201.62 74.7577 202.12C74.7577 202.6 74.4177 202.8 73.8777 202.8H71.9977V201.4H73.8777ZM74.1977 206.52H71.9977V205.08H74.1977C74.7177 205.08 75.0777 205.3 75.0777 205.78C75.0777 206.28 74.7177 206.52 74.1977 206.52ZM87.4506 209H91.0906L93.3706 200.74L95.6506 209H99.2906L103.151 195H99.7906L97.3706 204.8L94.6706 195H92.0706L89.3706 204.8L86.9506 195H83.5906L87.4506 209ZM105.94 205.2H113.04C113.12 204.82 113.16 204.42 113.16 204C113.16 200.98 111 198.72 108.08 198.72C104.92 198.72 102.76 201.02 102.76 204C102.76 206.98 104.88 209.28 108.3 209.28C110.2 209.28 111.68 208.58 112.66 207.22L110.26 205.84C109.86 206.28 109.16 206.6 108.34 206.6C107.24 206.6 106.32 206.24 105.94 205.2ZM105.88 202.96C106.16 201.94 106.92 201.38 108.06 201.38C108.96 201.38 109.86 201.8 110.18 202.96H105.88ZM120.842 198.72C119.502 198.72 118.522 199.18 117.862 199.94V195H114.862V209H117.862V208.06C118.522 208.82 119.502 209.28 120.842 209.28C123.462 209.28 125.622 206.98 125.622 204C125.622 201.02 123.462 198.72 120.842 198.72ZM120.242 206.44C118.862 206.44 117.862 205.5 117.862 204C117.862 202.5 118.862 201.56 120.242 201.56C121.622 201.56 122.622 202.5 122.622 204C122.622 205.5 121.622 206.44 120.242 206.44ZM135.023 195V200.36H130.623V195H127.423V209H130.623V203.44H135.023V209H138.223V195H135.023ZM143.206 205.2H150.306C150.386 204.82 150.426 204.42 150.426 204C150.426 200.98 148.266 198.72 145.346 198.72C142.186 198.72 140.026 201.02 140.026 204C140.026 206.98 142.146 209.28 145.566 209.28C147.466 209.28 148.946 208.58 149.926 207.22L147.526 205.84C147.126 206.28 146.426 206.6 145.606 206.6C144.506 206.6 143.586 206.24 143.206 205.2ZM143.146 202.96C143.426 201.94 144.186 201.38 145.326 201.38C146.226 201.38 147.126 201.8 147.446 202.96H143.146ZM155.127 200.78V199H152.127V209H155.127V204.48C155.127 202.5 156.887 202 158.127 202.2V198.8C156.867 198.8 155.527 199.44 155.127 200.78ZM164.037 209.28C166.977 209.28 169.337 206.98 169.337 204C169.337 201.02 166.977 198.72 164.037 198.72C161.097 198.72 158.737 201.02 158.737 204C158.737 206.98 161.097 209.28 164.037 209.28ZM164.037 206.36C162.737 206.36 161.737 205.42 161.737 204C161.737 202.58 162.737 201.64 164.037 201.64C165.337 201.64 166.337 202.58 166.337 204C166.337 205.42 165.337 206.36 164.037 206.36ZM181.034 209.28C184.074 209.28 186.234 207.68 186.234 204.98C186.234 202.02 183.854 201.28 181.734 200.64C179.554 199.98 179.214 199.54 179.214 198.9C179.214 198.34 179.714 197.84 180.714 197.84C181.994 197.84 182.654 198.46 183.134 199.46L185.834 197.88C184.814 195.82 183.014 194.72 180.714 194.72C178.294 194.72 176.014 196.28 176.014 198.98C176.014 201.66 178.054 202.66 180.134 203.24C182.234 203.82 183.034 204.16 183.034 205.02C183.034 205.56 182.654 206.16 181.134 206.16C179.554 206.16 178.694 205.38 178.194 204.22L175.434 205.82C176.214 207.88 178.094 209.28 181.034 209.28ZM192.826 209.28C194.786 209.28 196.486 208.26 197.346 206.7L194.726 205.2C194.406 205.9 193.666 206.32 192.786 206.32C191.486 206.32 190.526 205.38 190.526 204C190.526 202.62 191.486 201.68 192.786 201.68C193.666 201.68 194.386 202.1 194.726 202.8L197.346 201.28C196.486 199.74 194.766 198.72 192.826 198.72C189.786 198.72 187.526 201.02 187.526 204C187.526 206.98 189.786 209.28 192.826 209.28ZM204.413 198.72C203.093 198.72 202.093 199.2 201.553 199.94V195H198.553V209H201.553V203.54C201.553 202.12 202.313 201.48 203.413 201.48C204.373 201.48 205.153 202.06 205.153 203.3V209H208.153V202.86C208.153 200.16 206.433 198.72 204.413 198.72ZM215.013 209.28C217.953 209.28 220.313 206.98 220.313 204C220.313 201.02 217.953 198.72 215.013 198.72C212.073 198.72 209.713 201.02 209.713 204C209.713 206.98 212.073 209.28 215.013 209.28ZM215.013 206.36C213.713 206.36 212.713 205.42 212.713 204C212.713 202.58 213.713 201.64 215.013 201.64C216.313 201.64 217.313 202.58 217.313 204C217.313 205.42 216.313 206.36 215.013 206.36ZM226.81 209.28C229.75 209.28 232.11 206.98 232.11 204C232.11 201.02 229.75 198.72 226.81 198.72C223.87 198.72 221.51 201.02 221.51 204C221.51 206.98 223.87 209.28 226.81 209.28ZM226.81 206.36C225.51 206.36 224.51 205.42 224.51 204C224.51 202.58 225.51 201.64 226.81 201.64C228.11 201.64 229.11 202.58 229.11 204C229.11 205.42 228.11 206.36 226.81 206.36ZM233.807 209H236.807V194.4H233.807V209Z" fill="#3030C1"/>
<path d="M99.3375 239.14C100.617 239.14 101.737 238.51 102.337 237.52L100.957 236.72C100.657 237.26 100.047 237.58 99.3375 237.58C98.0975 237.58 97.2975 236.75 97.2975 235.5C97.2975 234.25 98.0975 233.42 99.3375 233.42C100.047 233.42 100.647 233.74 100.957 234.28L102.337 233.48C101.727 232.49 100.607 231.86 99.3375 231.86C97.2275 231.86 95.6975 233.44 95.6975 235.5C95.6975 237.56 97.2275 239.14 99.3375 239.14ZM107.185 234H102.685V235.44H104.195V239H105.695V235.44H107.185V234ZM111.267 234V234.47C110.937 234.09 110.447 233.86 109.777 233.86C108.467 233.86 107.387 235.01 107.387 236.5C107.387 237.99 108.467 239.14 109.777 239.14C110.447 239.14 110.937 238.91 111.267 238.53V239H112.767V234H111.267ZM110.077 237.72C109.387 237.72 108.887 237.25 108.887 236.5C108.887 235.75 109.387 235.28 110.077 235.28C110.767 235.28 111.267 235.75 111.267 236.5C111.267 237.25 110.767 237.72 110.077 237.72ZM117.917 234H113.417V235.44H114.927V239H116.427V235.44H117.917V234ZM120.905 235.5H120.065V234H118.565V239H120.905C122.115 239 122.865 238.3 122.865 237.25C122.865 236.2 122.115 235.5 120.905 235.5ZM120.915 237.7H120.065V236.8H120.915C121.215 236.8 121.405 236.99 121.405 237.25C121.405 237.51 121.215 237.7 120.915 237.7ZM130.813 234H126.113V239H127.613V235.4H129.313V239H130.813V234ZM134.904 233.86C134.234 233.86 133.744 234.09 133.414 234.47V234H131.914V241H133.414V238.53C133.744 238.91 134.234 239.14 134.904 239.14C136.214 239.14 137.294 237.99 137.294 236.5C137.294 235.01 136.214 233.86 134.904 233.86ZM134.604 237.72C133.914 237.72 133.414 237.25 133.414 236.5C133.414 235.75 133.914 235.28 134.604 235.28C135.294 235.28 135.794 235.75 135.794 236.5C135.794 237.25 135.294 237.72 134.604 237.72ZM140.545 239.14C142.015 239.14 143.195 237.99 143.195 236.5C143.195 235.01 142.015 233.86 140.545 233.86C139.075 233.86 137.895 235.01 137.895 236.5C137.895 237.99 139.075 239.14 140.545 239.14ZM140.545 237.68C139.895 237.68 139.395 237.21 139.395 236.5C139.395 235.79 139.895 235.32 140.545 235.32C141.195 235.32 141.695 235.79 141.695 236.5C141.695 237.21 141.195 237.68 140.545 237.68ZM150.093 236.5C150.093 235.21 149.203 234.18 147.673 233.94V232H146.213V233.94C144.683 234.18 143.793 235.21 143.793 236.5C143.793 237.79 144.683 238.82 146.213 239.06V241H147.673V239.06C149.203 238.82 150.093 237.79 150.093 236.5ZM145.273 236.5C145.273 235.95 145.593 235.54 146.213 235.37V237.63C145.593 237.46 145.273 237.05 145.273 236.5ZM147.673 237.63V235.37C148.293 235.54 148.613 235.95 148.613 236.5C148.613 237.05 148.293 237.46 147.673 237.63ZM152.287 237.1H155.837C155.877 236.91 155.897 236.71 155.897 236.5C155.897 234.99 154.817 233.86 153.357 233.86C151.777 233.86 150.697 235.01 150.697 236.5C150.697 237.99 151.757 239.14 153.467 239.14C154.417 239.14 155.157 238.79 155.647 238.11L154.447 237.42C154.247 237.64 153.897 237.8 153.487 237.8C152.937 237.8 152.477 237.62 152.287 237.1ZM152.257 235.98C152.397 235.47 152.777 235.19 153.347 235.19C153.797 235.19 154.247 235.4 154.407 235.98H152.257ZM159.099 239.14C160.079 239.14 160.929 238.63 161.359 237.85L160.049 237.1C159.889 237.45 159.519 237.66 159.079 237.66C158.429 237.66 157.949 237.19 157.949 236.5C157.949 235.81 158.429 235.34 159.079 235.34C159.519 235.34 159.879 235.55 160.049 235.9L161.359 235.14C160.929 234.37 160.069 233.86 159.099 233.86C157.579 233.86 156.449 235.01 156.449 236.5C156.449 237.99 157.579 239.14 159.099 239.14ZM164.265 239.14C165.245 239.14 166.095 238.63 166.525 237.85L165.215 237.1C165.055 237.45 164.685 237.66 164.245 237.66C163.595 237.66 163.115 237.19 163.115 236.5C163.115 235.81 163.595 235.34 164.245 235.34C164.685 235.34 165.045 235.55 165.215 235.9L166.525 235.14C166.095 234.37 165.235 233.86 164.265 233.86C162.745 233.86 161.615 235.01 161.615 236.5C161.615 237.99 162.745 239.14 164.265 239.14ZM170.778 234L168.638 236.5V234H167.178V239H168.278L170.418 236.5V239H171.878V234H170.778ZM175.379 239.14C176.849 239.14 178.029 237.99 178.029 236.5C178.029 235.01 176.849 233.86 175.379 233.86C173.909 233.86 172.729 235.01 172.729 236.5C172.729 237.99 173.909 239.14 175.379 239.14ZM175.379 237.68C174.729 237.68 174.229 237.21 174.229 236.5C174.229 235.79 174.729 235.32 175.379 235.32C176.029 235.32 176.529 235.79 176.529 236.5C176.529 237.21 176.029 237.68 175.379 237.68ZM182.077 234V235.8H180.377V234H178.877V239H180.377V237.2H182.077V239H183.577V234H182.077ZM188.308 234V234.47C187.978 234.09 187.488 233.86 186.818 233.86C185.508 233.86 184.428 235.01 184.428 236.5C184.428 237.99 185.508 239.14 186.818 239.14C187.488 239.14 187.978 238.91 188.308 238.53V239H189.808V234H188.308ZM187.118 237.72C186.428 237.72 185.928 237.25 185.928 236.5C185.928 235.75 186.428 235.28 187.118 235.28C187.808 235.28 188.308 235.75 188.308 236.5C188.308 237.25 187.808 237.72 187.118 237.72ZM195.258 234H191.178V236.83C191.178 237.45 190.928 237.74 190.458 237.6V239C191.918 239.17 192.678 238.44 192.678 236.93V235.44H193.758V239H195.258V234ZM198.758 239.14C200.228 239.14 201.408 237.99 201.408 236.5C201.408 235.01 200.228 233.86 198.758 233.86C197.288 233.86 196.108 235.01 196.108 236.5C196.108 237.99 197.288 239.14 198.758 239.14ZM198.758 237.68C198.108 237.68 197.608 237.21 197.608 236.5C197.608 235.79 198.108 235.32 198.758 235.32C199.408 235.32 199.908 235.79 199.908 236.5C199.908 237.21 199.408 237.68 198.758 237.68ZM207.556 234H206.116L204.906 235.89L203.696 234H202.256V239H203.696V236.42L204.816 238.16H204.996L206.116 236.42V239H207.556V234ZM127.151 251.14C128.131 251.14 128.981 250.63 129.411 249.85L128.101 249.1C127.941 249.45 127.571 249.66 127.131 249.66C126.481 249.66 126.001 249.19 126.001 248.5C126.001 247.81 126.481 247.34 127.131 247.34C127.571 247.34 127.931 247.55 128.101 247.9L129.411 247.14C128.981 246.37 128.121 245.86 127.151 245.86C125.631 245.86 124.501 247.01 124.501 248.5C124.501 249.99 125.631 251.14 127.151 251.14ZM133.794 248.44C134.104 248.21 134.264 247.86 134.264 247.43C134.264 246.6 133.674 246 132.564 246H130.064V251H132.764C133.874 251 134.464 250.4 134.464 249.57C134.464 249.06 134.224 248.67 133.794 248.44ZM132.404 247.2C132.674 247.2 132.844 247.31 132.844 247.56C132.844 247.8 132.674 247.9 132.404 247.9H131.464V247.2H132.404ZM132.564 249.76H131.464V249.04H132.564C132.824 249.04 133.004 249.15 133.004 249.39C133.004 249.64 132.824 249.76 132.564 249.76ZM137.61 251.14C139.08 251.14 140.26 249.99 140.26 248.5C140.26 247.01 139.08 245.86 137.61 245.86C136.14 245.86 134.96 247.01 134.96 248.5C134.96 249.99 136.14 251.14 137.61 251.14ZM137.61 249.68C136.96 249.68 136.46 249.21 136.46 248.5C136.46 247.79 136.96 247.32 137.61 247.32C138.26 247.32 138.76 247.79 138.76 248.5C138.76 249.21 138.26 249.68 137.61 249.68ZM142.449 249.1H145.999C146.039 248.91 146.059 248.71 146.059 248.5C146.059 246.99 144.979 245.86 143.519 245.86C141.939 245.86 140.859 247.01 140.859 248.5C140.859 249.99 141.919 251.14 143.629 251.14C144.579 251.14 145.319 250.79 145.809 250.11L144.609 249.42C144.409 249.64 144.059 249.8 143.649 249.8C143.099 249.8 142.639 249.62 142.449 249.1ZM142.419 247.98C142.559 247.47 142.939 247.19 143.509 247.19C143.959 247.19 144.409 247.4 144.569 247.98H142.419ZM150.409 246H146.909V251H148.409V247.44H150.409V246ZM153.264 251.14C154.734 251.14 155.914 249.99 155.914 248.5C155.914 247.01 154.734 245.86 153.264 245.86C151.794 245.86 150.614 247.01 150.614 248.5C150.614 249.99 151.794 251.14 153.264 251.14ZM153.264 249.68C152.614 249.68 152.114 249.21 152.114 248.5C152.114 247.79 152.614 247.32 153.264 247.32C153.914 247.32 154.414 247.79 154.414 248.5C154.414 249.21 153.914 249.68 153.264 249.68ZM163.863 249.6V246H159.833V247.87C159.833 248.73 159.683 249.21 159.433 249.6H158.813V252.34H160.273V251H163.053V252.34H164.513V249.6H163.863ZM161.003 249.6C161.193 249.15 161.293 248.6 161.293 247.87V247.34H162.403V249.6H161.003ZM166.404 249.1H169.954C169.994 248.91 170.014 248.71 170.014 248.5C170.014 246.99 168.934 245.86 167.474 245.86C165.894 245.86 164.814 247.01 164.814 248.5C164.814 249.99 165.874 251.14 167.584 251.14C168.534 251.14 169.274 250.79 169.764 250.11L168.564 249.42C168.364 249.64 168.014 249.8 167.604 249.8C167.054 249.8 166.594 249.62 166.404 249.1ZM166.374 247.98C166.514 247.47 166.894 247.19 167.464 247.19C167.914 247.19 168.364 247.4 168.524 247.98H166.374ZM175.019 246H170.939V248.83C170.939 249.45 170.689 249.74 170.219 249.6V251C171.679 251.17 172.439 250.44 172.439 248.93V247.44H173.519V251H175.019V246ZM179.748 246V246.47C179.418 246.09 178.928 245.86 178.258 245.86C176.948 245.86 175.868 247.01 175.868 248.5C175.868 249.99 176.948 251.14 178.258 251.14C178.928 251.14 179.418 250.91 179.748 250.53V251H181.248V246H179.748ZM178.558 249.72C177.868 249.72 177.368 249.25 177.368 248.5C177.368 247.75 177.868 247.28 178.558 247.28C179.248 247.28 179.748 247.75 179.748 248.5C179.748 249.25 179.248 249.72 178.558 249.72Z" fill="#3A3A3A"/>
<defs>
<filter id="filter0_d" x="0" y="0" width="319" height="333.313" filterUnits="userSpaceOnUse" color-interpolation-filters="sRGB">
<feFlood flood-opacity="0" result="BackgroundImageFix"/>
<feColorMatrix in="SourceAlpha" type="matrix" values="0 0 0 0 0 0 0 0 0 0 0 0 0 0 0 0 0 0 127 0"/>
<feOffset dx="7" dy="7"/>
<feGaussianBlur stdDeviation="15"/>
<feColorMatrix type="matrix" values="0 0 0 0 0 0 0 0 0 0 0 0 0 0 0 0 0 0 0.25 0"/>
<feBlend mode="normal" in2="BackgroundImageFix" result="effect1_dropShadow"/>
<feBlend mode="normal" in="SourceGraphic" in2="effect1_dropShadow" result="shape"/>
</filter>
<linearGradient id="paint0_linear" x1="140.328" y1="117.868" x2="171.44" y2="158.34" gradientUnits="userSpaceOnUse">
<stop stop-color="#4A98F7"/>
<stop offset="1" stop-color="#0469BC"/>
</linearGradient>
<linearGradient id="paint1_linear" x1="152.974" y1="136.953" x2="151.584" y2="117.35" gradientUnits="userSpaceOnUse">
<stop stop-color="#0469BC" stop-opacity="0"/>
<stop offset="1" stop-color="#0469BC"/>
</linearGradient>
<linearGradient id="paint2_linear" x1="131.929" y1="119.186" x2="149.874" y2="142.529" gradientUnits="userSpaceOnUse">
<stop stop-color="#F9F7FC"/>
<stop offset="1" stop-color="#F0DDFC"/>
</linearGradient>
<linearGradient id="paint3_linear" x1="157.815" y1="118.007" x2="178.639" y2="145.095" gradientUnits="userSpaceOnUse">
<stop stop-color="#F9F7FC"/>
<stop offset="1" stop-color="#F0DDFC"/>
</linearGradient>
<linearGradient id="paint4_linear" x1="159.764" y1="123.661" x2="126.128" y2="99.2171" gradientUnits="userSpaceOnUse">
<stop stop-color="#18CFFC" stop-opacity="0"/>
<stop offset="1" stop-color="#65E1DC"/>
</linearGradient>
<linearGradient id="paint5_linear" x1="151.5" y1="146.043" x2="151.5" y2="117.562" gradientUnits="userSpaceOnUse">
<stop stop-color="#0469BC" stop-opacity="0"/>
<stop offset="1" stop-color="#0469BC"/>
</linearGradient>
<linearGradient id="paint6_linear" x1="137.907" y1="137.234" x2="137.907" y2="116.229" gradientUnits="userSpaceOnUse">
<stop stop-color="#F0DDFC" stop-opacity="0"/>
<stop offset="0.2889" stop-color="#C8B7E0" stop-opacity="0.289"/>
<stop offset="0.5915" stop-color="#A595C8" stop-opacity="0.592"/>
<stop offset="0.8395" stop-color="#8F81B8" stop-opacity="0.84"/>
<stop offset="1" stop-color="#8779B3"/>
</linearGradient>
<linearGradient id="paint7_linear" x1="165.093" y1="137.234" x2="165.093" y2="116.229" gradientUnits="userSpaceOnUse">
<stop stop-color="#F0DDFC" stop-opacity="0"/>
<stop offset="0.2889" stop-color="#C8B7E0" stop-opacity="0.289"/>
<stop offset="0.5915" stop-color="#A595C8" stop-opacity="0.592"/>
<stop offset="0.8395" stop-color="#8F81B8" stop-opacity="0.84"/>
<stop offset="1" stop-color="#8779B3"/>
</linearGradient>
<linearGradient id="paint8_linear" x1="121.693" y1="94.8068" x2="181.307" y2="94.8068" gradientUnits="userSpaceOnUse">
<stop stop-color="#FFDA45"/>
<stop offset="1" stop-color="#FFA425"/>
</linearGradient>
<linearGradient id="paint9_linear" x1="164.868" y1="99.1405" x2="186.142" y2="106.037" gradientUnits="userSpaceOnUse">
<stop stop-color="#FFDA45" stop-opacity="0"/>
<stop offset="0.5194" stop-color="#D9874F" stop-opacity="0.519"/>
<stop offset="1" stop-color="#B53759"/>
</linearGradient>
<linearGradient id="paint10_linear" x1="148.663" y1="89.3505" x2="173.162" y2="136.465" gradientUnits="userSpaceOnUse">
<stop stop-color="#FFDA45" stop-opacity="0"/>
<stop offset="0.5194" stop-color="#D9874F" stop-opacity="0.519"/>
<stop offset="1" stop-color="#B53759"/>
</linearGradient>
<linearGradient id="paint11_linear" x1="150.583" y1="104.108" x2="147.689" y2="133.459" gradientUnits="userSpaceOnUse">
<stop stop-color="#FFDA45" stop-opacity="0"/>
<stop offset="0.5194" stop-color="#D9874F" stop-opacity="0.519"/>
<stop offset="1" stop-color="#B53759"/>
</linearGradient>
<linearGradient id="paint12_linear" x1="145.596" y1="105.604" x2="136.651" y2="121.965" gradientUnits="userSpaceOnUse">
<stop stop-color="#FFDA45" stop-opacity="0"/>
<stop offset="0.5194" stop-color="#D9874F" stop-opacity="0.519"/>
<stop offset="1" stop-color="#B53759"/>
</linearGradient>
<linearGradient id="paint13_linear" x1="121.693" y1="91.656" x2="181.307" y2="91.656" gradientUnits="userSpaceOnUse">
<stop stop-color="#FFDA45"/>
<stop offset="1" stop-color="#FFA425"/>
</linearGradient>
<linearGradient id="paint14_linear" x1="177.983" y1="91.656" x2="125.017" y2="91.656" gradientUnits="userSpaceOnUse">
<stop stop-color="#FFDA45"/>
<stop offset="1" stop-color="#FFA425"/>
</linearGradient>
<linearGradient id="paint15_linear" x1="127.526" y1="91.656" x2="175.475" y2="91.656" gradientUnits="userSpaceOnUse">
<stop stop-color="#FFDA45"/>
<stop offset="1" stop-color="#FFA425"/>
</linearGradient>
<linearGradient id="paint16_linear" x1="183.344" y1="121.59" x2="123.391" y2="70.1057" gradientUnits="userSpaceOnUse">
<stop stop-color="#FFDA45" stop-opacity="0"/>
<stop offset="0.5194" stop-color="#D9874F" stop-opacity="0.519"/>
<stop offset="1" stop-color="#B53759"/>
</linearGradient>
<linearGradient id="paint17_linear" x1="144.259" y1="85.3888" x2="172.484" y2="114.631" gradientUnits="userSpaceOnUse">
<stop stop-color="#FFDA45"/>
<stop offset="1" stop-color="#FCB37E"/>
</linearGradient>
<linearGradient id="paint18_linear" x1="139.937" y1="86.923" x2="157.492" y2="105.649" gradientUnits="userSpaceOnUse">
<stop stop-color="#FCB37E" stop-opacity="0"/>
<stop offset="1" stop-color="#FF7044"/>
</linearGradient>
<linearGradient id="paint19_linear" x1="139.457" y1="99.5834" x2="151.483" y2="99.5834" gradientUnits="userSpaceOnUse">
<stop stop-color="#FFDA45"/>
<stop offset="1" stop-color="#FCB37E"/>
</linearGradient>
<linearGradient id="paint20_linear" x1="148.631" y1="93.891" x2="169.177" y2="117.038" gradientUnits="userSpaceOnUse">
<stop stop-color="#FCB37E" stop-opacity="0"/>
<stop offset="1" stop-color="#FF7044"/>
</linearGradient>
<linearGradient id="paint21_linear" x1="136.864" y1="100.038" x2="163.262" y2="99.1277" gradientUnits="userSpaceOnUse">
<stop stop-color="#FCB37E" stop-opacity="0"/>
<stop offset="1" stop-color="#FF7044"/>
</linearGradient>
<linearGradient id="paint22_linear" x1="160.46" y1="110.671" x2="153.698" y2="80.6328" gradientUnits="userSpaceOnUse">
<stop stop-color="#FFDA45"/>
<stop offset="1" stop-color="#FCB37E"/>
</linearGradient>
<linearGradient id="paint23_linear" x1="141.327" y1="84.9808" x2="145.358" y2="102.406" gradientUnits="userSpaceOnUse">
<stop stop-color="#FFDA45"/>
<stop offset="1" stop-color="#FCB37E"/>
</linearGradient>
<linearGradient id="paint24_linear" x1="158.492" y1="84.7455" x2="133.525" y2="74.8627" gradientUnits="userSpaceOnUse">
<stop stop-color="#FCB37E" stop-opacity="0"/>
<stop offset="1" stop-color="#FF7044"/>
</linearGradient>
<linearGradient id="paint25_linear" x1="147.652" y1="76.5503" x2="160.526" y2="98.5267" gradientUnits="userSpaceOnUse">
<stop stop-color="#FCB37E" stop-opacity="0"/>
<stop offset="1" stop-color="#FF7044"/>
</linearGradient>
<linearGradient id="paint26_linear" x1="163.623" y1="84.8557" x2="139.696" y2="106.052" gradientUnits="userSpaceOnUse">
<stop stop-color="#FCB37E" stop-opacity="0"/>
<stop offset="1" stop-color="#FF7044"/>
</linearGradient>
<linearGradient id="paint27_linear" x1="159.323" y1="93.47" x2="167.645" y2="69.543" gradientUnits="userSpaceOnUse">
<stop stop-color="#FCB37E" stop-opacity="0"/>
<stop offset="1" stop-color="#FF7044"/>
</linearGradient>
<linearGradient id="paint28_linear" x1="151.989" y1="91.9862" x2="143.903" y2="80.306" gradientUnits="userSpaceOnUse">
<stop stop-color="#FFDA45" stop-opacity="0"/>
<stop offset="1" stop-color="#FFEE83"/>
</linearGradient>
<linearGradient id="paint29_linear" x1="150.03" y1="89.6173" x2="134.28" y2="67.7703" gradientUnits="userSpaceOnUse">
<stop stop-color="#FFDA45" stop-opacity="0"/>
<stop offset="1" stop-color="#FCEE21"/>
</linearGradient>
<clipPath id="clip0">
<rect width="85" height="85" fill="white" transform="translate(109 65)"/>
</clipPath>
</defs>
</svg>
