<svg width="440" height="461" viewBox="0 0 440 461" fill="none" xmlns="http://www.w3.org/2000/svg">
<g filter="url(#filter0_d)">
<rect x="23" y="23" width="380" height="401" fill="#FBFBFB"/>
</g>
<path d="M110.105 304H99.5047V318H102.705V307.08H106.905V318H110.105V304ZM118.393 307.72C117.053 307.72 116.073 308.18 115.413 308.94V308H112.413V322H115.413V317.06C116.073 317.82 117.053 318.28 118.393 318.28C121.013 318.28 123.173 315.98 123.173 313C123.173 310.02 121.013 307.72 118.393 307.72ZM117.793 315.44C116.413 315.44 115.413 314.5 115.413 313C115.413 311.5 116.413 310.56 117.793 310.56C119.173 310.56 120.173 311.5 120.173 313C120.173 314.5 119.173 315.44 117.793 315.44ZM132.073 308L127.793 313V308H124.873V318H127.073L131.353 313V318H134.273V308H132.073ZM145.975 318L142.395 312.92L145.855 308H142.415L140.675 310.48L138.935 308H135.495L138.955 312.92L135.375 318H138.815L140.675 315.36L142.535 318H145.975ZM151.177 318.28C154.117 318.28 156.477 315.98 156.477 313C156.477 310.02 154.117 307.72 151.177 307.72C148.237 307.72 145.877 310.02 145.877 313C145.877 315.98 148.237 318.28 151.177 318.28ZM151.177 315.36C149.877 315.36 148.877 314.42 148.877 313C148.877 311.58 149.877 310.64 151.177 310.64C152.477 310.64 153.477 311.58 153.477 313C153.477 314.42 152.477 315.36 151.177 315.36ZM166.984 315.2V308H158.924V311.74C158.924 313.46 158.624 314.42 158.124 315.2H156.884V320.68H159.804V318H165.364V320.68H168.284V315.2H166.984ZM161.264 315.2C161.644 314.3 161.844 313.2 161.844 311.74V310.68H164.064V315.2H161.264ZM176.976 308L172.696 313V308H169.776V318H171.976L176.256 313V318H179.176V308H176.976ZM189.477 308H180.477V310.88H183.497V318H186.497V310.88H189.477V308ZM195.452 311H193.772V308H190.772V318H195.452C197.872 318 199.372 316.6 199.372 314.5C199.372 312.4 197.872 311 195.452 311ZM195.472 315.4H193.772V313.6H195.472C196.072 313.6 196.452 313.98 196.452 314.5C196.452 315.02 196.072 315.4 195.472 315.4ZM212.27 308V311.6H208.87V308H205.87V318H208.87V314.4H212.27V318H215.27V308H212.27ZM224.731 308V308.94C224.071 308.18 223.091 307.72 221.751 307.72C219.131 307.72 216.971 310.02 216.971 313C216.971 315.98 219.131 318.28 221.751 318.28C223.091 318.28 224.071 317.82 224.731 317.06V318H227.731V308H224.731ZM222.351 315.44C220.971 315.44 219.971 314.5 219.971 313C219.971 311.5 220.971 310.56 222.351 310.56C223.731 310.56 224.731 311.5 224.731 313C224.731 314.5 223.731 315.44 222.351 315.44ZM243.632 308H235.472V313.66C235.472 314.9 234.972 315.48 234.032 315.2V318C236.952 318.34 238.472 316.88 238.472 313.86V310.88H240.632V318H243.632V308ZM255.13 307.72C252.67 307.72 250.67 309.32 250.09 311.6H248.83V308H245.83V318H248.83V314.4H250.09C250.67 316.68 252.67 318.28 255.13 318.28C258.07 318.28 260.43 315.98 260.43 313C260.43 310.02 258.07 307.72 255.13 307.72ZM255.13 315.36C253.83 315.36 252.83 314.42 252.83 313C252.83 311.58 253.83 310.64 255.13 310.64C256.43 310.64 257.43 311.58 257.43 313C257.43 314.42 256.43 315.36 255.13 315.36ZM266.979 318.28C270.119 318.28 272.079 316.3 272.079 313.6C272.079 310.76 269.779 309.24 267.939 309.24C266.899 309.24 265.919 309.54 265.199 310.18C265.479 309.48 265.999 308.9 267.779 308.24C269.899 307.44 271.139 306.7 271.539 305.02L269.059 303.6C268.479 305.02 267.599 305.28 265.459 306.34C262.259 307.92 261.639 309.62 261.639 312.84C261.639 315.92 263.659 318.28 266.979 318.28ZM266.959 315.58C265.739 315.58 264.779 314.74 264.779 313.52C264.779 312.28 265.859 311.58 266.899 311.58C268.159 311.58 269.079 312.44 269.079 313.6C269.079 314.74 268.199 315.58 266.959 315.58ZM280.687 308L276.407 313V308H273.487V318H275.687L279.967 313V318H282.887V308H280.687ZM295.688 308H292.808L290.388 311.78L287.968 308H285.088V318H287.968V312.84L290.208 316.32H290.568L292.808 312.84V318H295.688V308ZM304.181 308L302.301 314.14L299.981 308H296.781L300.701 317.82C300.241 318.88 299.601 319.2 298.261 319.2V322C300.861 322.14 302.841 320.88 303.961 317.7L307.381 308H304.181ZM317.787 307.72C315.327 307.72 313.327 309.32 312.747 311.6H311.487V308H308.487V318H311.487V314.4H312.747C313.327 316.68 315.327 318.28 317.787 318.28C320.727 318.28 323.087 315.98 323.087 313C323.087 310.02 320.727 307.72 317.787 307.72ZM317.787 315.36C316.487 315.36 315.487 314.42 315.487 313C315.487 311.58 316.487 310.64 317.787 310.64C319.087 310.64 320.087 311.58 320.087 313C320.087 314.42 319.087 315.36 317.787 315.36ZM131.762 332.72C130.422 332.72 129.442 333.18 128.782 333.94V333H125.782V347H128.782V342.06C129.442 342.82 130.422 343.28 131.762 343.28C134.382 343.28 136.542 340.98 136.542 338C136.542 335.02 134.382 332.72 131.762 332.72ZM131.162 340.44C129.782 340.44 128.782 339.5 128.782 338C128.782 336.5 129.782 335.56 131.162 335.56C132.542 335.56 133.542 336.5 133.542 338C133.542 339.5 132.542 340.44 131.162 340.44ZM145.503 333V333.94C144.843 333.18 143.863 332.72 142.523 332.72C139.903 332.72 137.743 335.02 137.743 338C137.743 340.98 139.903 343.28 142.523 343.28C143.863 343.28 144.843 342.82 145.503 342.06V343H148.503V333H145.503ZM143.123 340.44C141.743 340.44 140.743 339.5 140.743 338C140.743 336.5 141.743 335.56 143.123 335.56C144.503 335.56 145.503 336.5 145.503 338C145.503 339.5 144.503 340.44 143.123 340.44ZM155.544 343.28C158.684 343.28 160.644 341.3 160.644 338.6C160.644 335.76 158.344 334.24 156.504 334.24C155.464 334.24 154.484 334.54 153.764 335.18C154.044 334.48 154.564 333.9 156.344 333.24C158.464 332.44 159.704 331.7 160.104 330.02L157.624 328.6C157.044 330.02 156.164 330.28 154.024 331.34C150.824 332.92 150.204 334.62 150.204 337.84C150.204 340.92 152.224 343.28 155.544 343.28ZM155.524 340.58C154.304 340.58 153.344 339.74 153.344 338.52C153.344 337.28 154.424 336.58 155.464 336.58C156.724 336.58 157.644 337.44 157.644 338.6C157.644 339.74 156.764 340.58 155.524 340.58ZM166.851 343.28C169.791 343.28 172.151 340.98 172.151 338C172.151 335.02 169.791 332.72 166.851 332.72C163.911 332.72 161.551 335.02 161.551 338C161.551 340.98 163.911 343.28 166.851 343.28ZM166.851 340.36C165.551 340.36 164.551 339.42 164.551 338C164.551 336.58 165.551 335.64 166.851 335.64C168.151 335.64 169.151 336.58 169.151 338C169.151 339.42 168.151 340.36 166.851 340.36ZM181.557 333H172.557V335.88H175.577V343H178.577V335.88H181.557V333ZM189.347 333L187.467 339.14L185.147 333H181.947L185.867 342.82C185.407 343.88 184.767 344.2 183.427 344.2V347C186.027 347.14 188.007 345.88 189.127 342.7L192.547 333H189.347ZM203.453 343.28C205.413 343.28 207.113 342.26 207.973 340.7L205.353 339.2C205.033 339.9 204.293 340.32 203.413 340.32C202.113 340.32 201.153 339.38 201.153 338C201.153 336.62 202.113 335.68 203.413 335.68C204.293 335.68 205.013 336.1 205.353 336.8L207.973 335.28C207.113 333.74 205.393 332.72 203.453 332.72C200.413 332.72 198.153 335.02 198.153 338C198.153 340.98 200.413 343.28 203.453 343.28ZM219.118 343.28C222.258 343.28 224.218 341.3 224.218 338.6C224.218 335.76 221.918 334.24 220.078 334.24C219.038 334.24 218.058 334.54 217.338 335.18C217.618 334.48 218.138 333.9 219.918 333.24C222.038 332.44 223.278 331.7 223.678 330.02L221.198 328.6C220.618 330.02 219.738 330.28 217.598 331.34C214.398 332.92 213.778 334.62 213.778 337.84C213.778 340.92 215.798 343.28 219.118 343.28ZM219.098 340.58C217.878 340.58 216.918 339.74 216.918 338.52C216.918 337.28 217.998 336.58 219.038 336.58C220.298 336.58 221.218 337.44 221.218 338.6C221.218 339.74 220.338 340.58 219.098 340.58ZM230.425 343.28C233.365 343.28 235.725 340.98 235.725 338C235.725 335.02 233.365 332.72 230.425 332.72C227.485 332.72 225.125 335.02 225.125 338C225.125 340.98 227.485 343.28 230.425 343.28ZM230.425 340.36C229.125 340.36 228.125 339.42 228.125 338C228.125 336.58 229.125 335.64 230.425 335.64C231.725 335.64 232.725 336.58 232.725 338C232.725 339.42 231.725 340.36 230.425 340.36ZM245.927 333H237.767V338.66C237.767 339.9 237.267 340.48 236.327 340.2V343C239.247 343.34 240.767 341.88 240.767 338.86V335.88H242.927V343H245.927V333ZM252.805 336H251.125V333H248.125V343H252.805C255.225 343 256.725 341.6 256.725 339.5C256.725 337.4 255.225 336 252.805 336ZM252.825 340.4H251.125V338.6H252.825C253.425 338.6 253.805 338.98 253.805 339.5C253.805 340.02 253.425 340.4 252.825 340.4ZM269.823 333V340.2H267.023V333H264.023V340.2H261.223V333H258.223V343H272.823V333H269.823ZM279.82 343.28C282.76 343.28 285.12 340.98 285.12 338C285.12 335.02 282.76 332.72 279.82 332.72C276.88 332.72 274.52 335.02 274.52 338C274.52 340.98 276.88 343.28 279.82 343.28ZM279.82 340.36C278.52 340.36 277.52 339.42 277.52 338C277.52 336.58 278.52 335.64 279.82 335.64C281.12 335.64 282.12 336.58 282.12 338C282.12 339.42 281.12 340.36 279.82 340.36ZM288.517 331.82H294.517V329.22H288.517V331.82ZM294.017 333L289.737 338V333H286.817V343H289.017L293.297 338V343H296.217V333H294.017ZM173.256 357.72C171.916 357.72 170.936 358.18 170.276 358.94V358H167.276V372H170.276V367.06C170.936 367.82 171.916 368.28 173.256 368.28C175.876 368.28 178.036 365.98 178.036 363C178.036 360.02 175.876 357.72 173.256 357.72ZM172.656 365.44C171.276 365.44 170.276 364.5 170.276 363C170.276 361.5 171.276 360.56 172.656 360.56C174.036 360.56 175.036 361.5 175.036 363C175.036 364.5 174.036 365.44 172.656 365.44ZM186.997 358V358.94C186.337 358.18 185.357 357.72 184.017 357.72C181.397 357.72 179.237 360.02 179.237 363C179.237 365.98 181.397 368.28 184.017 368.28C185.357 368.28 186.337 367.82 186.997 367.06V368H189.997V358H186.997ZM184.617 365.44C183.237 365.44 182.237 364.5 182.237 363C182.237 361.5 183.237 360.56 184.617 360.56C185.997 360.56 186.997 361.5 186.997 363C186.997 364.5 185.997 365.44 184.617 365.44ZM201.398 365.2V358H193.338V361.74C193.338 363.46 193.038 364.42 192.538 365.2H191.298V370.68H194.218V368H199.778V370.68H202.698V365.2H201.398ZM195.678 365.2C196.058 364.3 196.258 363.2 196.258 361.74V360.68H198.478V365.2H195.678ZM208.599 368.28C211.539 368.28 213.899 365.98 213.899 363C213.899 360.02 211.539 357.72 208.599 357.72C205.659 357.72 203.299 360.02 203.299 363C203.299 365.98 205.659 368.28 208.599 368.28ZM208.599 365.36C207.299 365.36 206.299 364.42 206.299 363C206.299 361.58 207.299 360.64 208.599 360.64C209.899 360.64 210.899 361.58 210.899 363C210.899 364.42 209.899 365.36 208.599 365.36ZM220.396 368.28C222.356 368.28 224.056 367.26 224.916 365.7L222.296 364.2C221.976 364.9 221.236 365.32 220.356 365.32C219.056 365.32 218.096 364.38 218.096 363C218.096 361.62 219.056 360.68 220.356 360.68C221.236 360.68 221.956 361.1 222.296 361.8L224.916 360.28C224.056 358.74 222.336 357.72 220.396 357.72C217.356 357.72 215.096 360.02 215.096 363C215.096 365.98 217.356 368.28 220.396 368.28ZM234.223 358H225.223V360.88H228.243V368H231.243V360.88H234.223V358ZM240.198 361H238.518V358H235.518V368H240.198C242.618 368 244.118 366.6 244.118 364.5C244.118 362.4 242.618 361 240.198 361ZM240.218 365.4H238.518V363.6H240.218C240.818 363.6 241.198 363.98 241.198 364.5C241.198 365.02 240.818 365.4 240.218 365.4ZM254.916 357.72C252.456 357.72 250.456 359.32 249.876 361.6H248.616V358H245.616V368H248.616V364.4H249.876C250.456 366.68 252.456 368.28 254.916 368.28C257.856 368.28 260.216 365.98 260.216 363C260.216 360.02 257.856 357.72 254.916 357.72ZM254.916 365.36C253.616 365.36 252.616 364.42 252.616 363C252.616 361.58 253.616 360.64 254.916 360.64C256.216 360.64 257.216 361.58 257.216 363C257.216 364.42 256.216 365.36 254.916 365.36Z" fill="#3A3A3A"/>
<path d="M70.2107 221L66.5207 230.18L62.4107 221H57.6107L64.3307 235.43C63.5207 236.9 62.3207 237.71 60.1307 237.5V242C64.0607 242.21 67.0907 240.35 68.9507 235.82L75.0107 221H70.2107ZM81.7689 242.42C84.7089 242.42 87.2589 240.89 88.5489 238.55L84.6189 236.3C84.1389 237.35 83.0289 237.98 81.7089 237.98C79.7589 237.98 78.3189 236.57 78.3189 234.5C78.3189 232.43 79.7589 231.02 81.7089 231.02C83.0289 231.02 84.1089 231.65 84.6189 232.7L88.5489 230.42C87.2589 228.11 84.6789 226.58 81.7689 226.58C77.2089 226.58 73.8189 230.03 73.8189 234.5C73.8189 238.97 77.2089 242.42 81.7689 242.42ZM102.51 227H89.01V231.32H93.54V242H98.04V231.32H102.51V227ZM113.422 226.58C111.412 226.58 109.942 227.27 108.952 228.41V227H104.452V248H108.952V240.59C109.942 241.73 111.412 242.42 113.422 242.42C117.352 242.42 120.592 238.97 120.592 234.5C120.592 230.03 117.352 226.58 113.422 226.58ZM112.522 238.16C110.452 238.16 108.952 236.75 108.952 234.5C108.952 232.25 110.452 230.84 112.522 230.84C114.592 230.84 116.092 232.25 116.092 234.5C116.092 236.75 114.592 238.16 112.522 238.16ZM130.343 242.42C134.753 242.42 138.293 238.97 138.293 234.5C138.293 230.03 134.753 226.58 130.343 226.58C125.933 226.58 122.393 230.03 122.393 234.5C122.393 238.97 125.933 242.42 130.343 242.42ZM130.343 238.04C128.393 238.04 126.893 236.63 126.893 234.5C126.893 232.37 128.393 230.96 130.343 230.96C132.293 230.96 133.793 232.37 133.793 234.5C133.793 236.63 132.293 238.04 130.343 238.04ZM151.638 227L145.218 234.5V227H140.838V242H144.138L150.558 234.5V242H154.938V227H151.638ZM170.391 227H156.891V231.32H161.421V242H165.921V231.32H170.391V227ZM179.353 231.5H176.833V227H172.333V242H179.353C182.983 242 185.233 239.9 185.233 236.75C185.233 233.6 182.983 231.5 179.353 231.5ZM179.383 238.1H176.833V235.4H179.383C180.283 235.4 180.853 235.97 180.853 236.75C180.853 237.53 180.283 238.1 179.383 238.1ZM194.533 242.42C197.473 242.42 200.023 240.89 201.313 238.55L197.383 236.3C196.903 237.35 195.793 237.98 194.473 237.98C192.523 237.98 191.083 236.57 191.083 234.5C191.083 232.43 192.523 231.02 194.473 231.02C195.793 231.02 196.873 231.65 197.383 232.7L201.313 230.42C200.023 228.11 197.443 226.58 194.533 226.58C189.973 226.58 186.583 230.03 186.583 234.5C186.583 238.97 189.973 242.42 194.533 242.42ZM215.427 227H208.107C204.477 227 202.527 229.7 202.527 232.34C202.527 234.2 203.577 236.12 205.437 237.05L201.927 242H207.027L210.117 237.68H211.047V242H215.427V227ZM208.497 230.96H211.047V233.96H208.497C207.537 233.96 206.907 233.42 206.907 232.49C206.907 231.53 207.537 230.96 208.497 230.96ZM235.839 227V232.4H230.739V227H226.239V242H230.739V236.6H235.839V242H240.339V227H235.839ZM254.531 227V228.41C253.541 227.27 252.071 226.58 250.061 226.58C246.131 226.58 242.891 230.03 242.891 234.5C242.891 238.97 246.131 242.42 250.061 242.42C252.071 242.42 253.541 241.73 254.531 240.59V242H259.031V227H254.531ZM250.961 238.16C248.891 238.16 247.391 236.75 247.391 234.5C247.391 232.25 248.891 230.84 250.961 230.84C253.031 230.84 254.531 232.25 254.531 234.5C254.531 236.75 253.031 238.16 250.961 238.16ZM278.803 226.58C276.793 226.58 275.323 227.27 274.333 228.41V227H269.833V248H274.333V240.59C275.323 241.73 276.793 242.42 278.803 242.42C282.733 242.42 285.973 238.97 285.973 234.5C285.973 230.03 282.733 226.58 278.803 226.58ZM277.903 238.16C275.833 238.16 274.333 236.75 274.333 234.5C274.333 232.25 275.833 230.84 277.903 230.84C279.973 230.84 281.473 232.25 281.473 234.5C281.473 236.75 279.973 238.16 277.903 238.16ZM299.414 227V228.41C298.424 227.27 296.954 226.58 294.944 226.58C291.014 226.58 287.774 230.03 287.774 234.5C287.774 238.97 291.014 242.42 294.944 242.42C296.954 242.42 298.424 241.73 299.414 240.59V242H303.914V227H299.414ZM295.844 238.16C293.774 238.16 292.274 236.75 292.274 234.5C292.274 232.25 293.774 230.84 295.844 230.84C297.914 230.84 299.414 232.25 299.414 234.5C299.414 236.75 297.914 238.16 295.844 238.16ZM314.475 242.42C319.185 242.42 322.125 239.45 322.125 235.4C322.125 231.14 318.675 228.86 315.915 228.86C314.355 228.86 312.885 229.31 311.805 230.27C312.225 229.22 313.005 228.35 315.675 227.36C318.855 226.16 320.715 225.05 321.315 222.53L317.595 220.4C316.725 222.53 315.405 222.92 312.195 224.51C307.395 226.88 306.465 229.43 306.465 234.26C306.465 238.88 309.495 242.42 314.475 242.42ZM314.445 238.37C312.615 238.37 311.175 237.11 311.175 235.28C311.175 233.42 312.795 232.37 314.355 232.37C316.245 232.37 317.625 233.66 317.625 235.4C317.625 237.11 316.305 238.37 314.445 238.37ZM331.437 242.42C335.847 242.42 339.387 238.97 339.387 234.5C339.387 230.03 335.847 226.58 331.437 226.58C327.027 226.58 323.487 230.03 323.487 234.5C323.487 238.97 327.027 242.42 331.437 242.42ZM331.437 238.04C329.487 238.04 327.987 236.63 327.987 234.5C327.987 232.37 329.487 230.96 331.437 230.96C333.387 230.96 334.887 232.37 334.887 234.5C334.887 236.63 333.387 238.04 331.437 238.04ZM353.496 227H339.996V231.32H344.526V242H349.026V231.32H353.496V227ZM365.181 227L362.361 236.21L358.881 227H354.081L359.961 241.73C359.271 243.32 358.311 243.8 356.301 243.8V248C360.201 248.21 363.171 246.32 364.851 241.55L369.981 227H365.181ZM132.042 279.42C134.982 279.42 137.532 277.89 138.822 275.55L134.892 273.3C134.412 274.35 133.302 274.98 131.982 274.98C130.032 274.98 128.592 273.57 128.592 271.5C128.592 269.43 130.032 268.02 131.982 268.02C133.302 268.02 134.382 268.65 134.892 269.7L138.822 267.42C137.532 265.11 134.952 263.58 132.042 263.58C127.482 263.58 124.092 267.03 124.092 271.5C124.092 275.97 127.482 279.42 132.042 279.42ZM151.97 271.32C152.9 270.63 153.38 269.58 153.38 268.29C153.38 265.8 151.61 264 148.28 264H140.78V279H148.88C152.21 279 153.98 277.2 153.98 274.71C153.98 273.18 153.26 272.01 151.97 271.32ZM147.8 267.6C148.61 267.6 149.12 267.93 149.12 268.68C149.12 269.4 148.61 269.7 147.8 269.7H144.98V267.6H147.8ZM148.28 275.28H144.98V273.12H148.28C149.06 273.12 149.6 273.45 149.6 274.17C149.6 274.92 149.06 275.28 148.28 275.28ZM163.419 279.42C167.829 279.42 171.369 275.97 171.369 271.5C171.369 267.03 167.829 263.58 163.419 263.58C159.009 263.58 155.469 267.03 155.469 271.5C155.469 275.97 159.009 279.42 163.419 279.42ZM163.419 275.04C161.469 275.04 159.969 273.63 159.969 271.5C159.969 269.37 161.469 267.96 163.419 267.96C165.369 267.96 166.869 269.37 166.869 271.5C166.869 273.63 165.369 275.04 163.419 275.04ZM177.935 273.3H188.585C188.705 272.73 188.765 272.13 188.765 271.5C188.765 266.97 185.525 263.58 181.145 263.58C176.405 263.58 173.165 267.03 173.165 271.5C173.165 275.97 176.345 279.42 181.475 279.42C184.325 279.42 186.545 278.37 188.015 276.33L184.415 274.26C183.815 274.92 182.765 275.4 181.535 275.4C179.885 275.4 178.505 274.86 177.935 273.3ZM177.845 269.94C178.265 268.41 179.405 267.57 181.115 267.57C182.465 267.57 183.815 268.2 184.295 269.94H177.845ZM193.867 262.23H202.867V258.33H193.867V262.23ZM202.117 264L195.697 271.5V264H191.317V279H194.617L201.037 271.5V279H205.417V264H202.117ZM232.119 264H227.799L224.169 269.67L220.539 264H216.219V279H220.539V271.26L223.899 276.48H224.439L227.799 271.26V279H232.119V264ZM239.429 273.3H250.079C250.199 272.73 250.259 272.13 250.259 271.5C250.259 266.97 247.019 263.58 242.639 263.58C237.899 263.58 234.659 267.03 234.659 271.5C234.659 275.97 237.839 279.42 242.969 279.42C245.819 279.42 248.039 278.37 249.509 276.33L245.909 274.26C245.309 274.92 244.259 275.4 243.029 275.4C241.379 275.4 239.999 274.86 239.429 273.3ZM239.339 269.94C239.759 268.41 240.899 267.57 242.609 267.57C243.959 267.57 245.309 268.2 245.789 269.94H239.339ZM261.361 264V270.3C260.731 270.6 259.981 270.78 258.961 270.78C257.701 270.78 256.561 270.39 256.561 268.95V264H252.061V269.55C252.061 273.24 254.701 274.98 258.061 274.98C259.261 274.98 260.341 274.8 261.361 274.5V279H265.861V264H261.361ZM281.309 264H267.809V268.32H272.339V279H276.839V268.32H281.309V264ZM290.271 268.5H287.751V264H283.251V279H290.271C293.901 279 296.151 276.9 296.151 273.75C296.151 270.6 293.901 268.5 290.271 268.5ZM297.651 264V279H302.151V264H297.651ZM290.301 275.1H287.751V272.4H290.301C291.201 272.4 291.771 272.97 291.771 273.75C291.771 274.53 291.201 275.1 290.301 275.1Z" fill="#3030C1"/>
<path d="M264.251 178.51H162.749C159.022 178.51 156 175.488 156 171.761V101.034C156 97.3062 159.022 94.2847 162.749 94.2847H264.251C267.978 94.2847 271 97.3064 271 101.034V171.761C271 175.488 267.978 178.51 264.251 178.51Z" fill="url(#paint0_linear)"/>
<path d="M161.831 131.54L208.8 178.51H264.251C267.978 178.51 271 175.488 271 171.761V101.033C271 99.6258 270.568 98.3191 269.831 97.2373C269.761 97.1338 269.686 97.0329 269.611 96.9341C269.594 96.913 269.578 96.8921 269.561 96.8715C269.499 96.7922 269.435 96.714 269.369 96.6374C269.35 96.6152 269.33 96.5925 269.311 96.5703C269.24 96.4894 269.166 96.4101 269.091 96.3328C269.079 96.3203 269.067 96.307 269.054 96.2942C268.876 96.1134 268.687 95.9429 268.489 95.783C268.466 95.7641 268.442 95.7459 268.419 95.7273C268.343 95.6678 268.266 95.6098 268.188 95.5537C268.16 95.5337 268.132 95.5135 268.104 95.4939C268.022 95.4371 267.939 95.3823 267.855 95.3288C267.833 95.3147 267.811 95.2996 267.788 95.2859C267.68 95.2188 267.569 95.1543 267.456 95.0934C267.454 95.0923 267.452 95.0914 267.45 95.0903C267.343 95.0324 267.233 94.978 267.123 94.9259C267.091 94.9108 267.058 94.8967 267.026 94.8821C266.943 94.8446 266.859 94.8086 266.774 94.7743C266.737 94.7592 266.699 94.7442 266.661 94.7296C266.575 94.6966 266.488 94.6658 266.4 94.6361C266.367 94.6249 266.334 94.613 266.3 94.602C266.179 94.5634 266.057 94.5274 265.933 94.4955C265.927 94.4942 265.922 94.4933 265.917 94.4919C265.799 94.4621 265.68 94.436 265.56 94.4124C265.521 94.4048 265.481 94.3983 265.441 94.3913C265.353 94.3756 265.265 94.3612 265.175 94.3491C265.13 94.343 265.085 94.3372 265.041 94.332C264.951 94.3215 264.86 94.3134 264.769 94.3064C264.728 94.3033 264.688 94.2995 264.647 94.2972C264.516 94.2896 264.384 94.2849 264.251 94.2849H162.749C159.022 94.2846 156 97.3063 156 101.034V118.851C156 123.926 158.263 128.471 161.831 131.54Z" fill="url(#paint1_linear)"/>
<path d="M193.658 96.8941H191.769C190.303 96.8941 189.114 95.7055 189.114 94.2397V92.3501C189.114 90.884 190.303 89.6956 191.769 89.6956H193.658C195.124 89.6956 196.313 90.8843 196.313 92.3501V94.2397C196.313 95.7057 195.124 96.8941 193.658 96.8941Z" fill="url(#paint2_linear)"/>
<path d="M235.231 96.8941H233.342C231.875 96.8941 230.687 95.7055 230.687 94.2397V92.3501C230.687 90.884 231.876 89.6956 233.342 89.6956H235.231C236.697 89.6956 237.886 90.8843 237.886 92.3501V94.2397C237.886 95.7057 236.697 96.8941 235.231 96.8941Z" fill="url(#paint3_linear)"/>
<path d="M264.251 94.2847H162.749C159.022 94.2847 156 97.3064 156 101.034V118.851C156 128.095 163.493 135.588 172.737 135.588H254.263C263.507 135.588 271 128.094 271 118.851V101.034C271 97.3062 267.978 94.2847 264.251 94.2847Z" fill="url(#paint4_linear)"/>
<path d="M193.839 130.88C193.164 130.126 192.186 129.649 191.094 129.649H181.915C179.878 129.649 178.226 131.301 178.226 133.338V137.117C178.226 138.209 178.703 139.187 179.457 139.863L193.815 154.221C194.49 154.975 195.468 155.452 196.56 155.452H205.739C207.776 155.452 209.428 153.8 209.428 151.762V147.983C209.428 146.891 208.951 145.913 208.197 145.237L193.839 130.88Z" fill="url(#paint5_linear)"/>
<path d="M188.639 136.864L193.874 134.697C194.425 134.47 194.783 133.933 194.783 133.338C194.783 131.3 193.132 129.648 191.094 129.648H181.916C179.878 129.648 178.226 131.3 178.226 133.338C178.226 133.933 178.585 134.47 179.135 134.698L184.371 136.864C185.737 137.43 187.272 137.43 188.639 136.864Z" fill="url(#paint6_linear)"/>
<path d="M191.094 140.806H181.915C179.878 140.806 178.226 139.155 178.226 137.117V133.337C178.226 131.3 179.878 129.648 181.915 129.648H191.094C193.131 129.648 194.783 131.3 194.783 133.337V137.117C194.783 139.155 193.132 140.806 191.094 140.806Z" fill="url(#paint7_linear)"/>
<path d="M178.79 134.493L185.103 140.806H191.094C193.131 140.806 194.783 139.155 194.783 137.117V133.338C194.783 132.379 194.415 131.509 193.816 130.854L193.816 130.853C193.732 130.761 193.643 130.674 193.55 130.59C193.549 130.59 193.549 130.589 193.548 130.589C193.458 130.508 193.364 130.432 193.266 130.36C193.261 130.356 193.257 130.353 193.252 130.35C193.159 130.282 193.062 130.22 192.963 130.161C192.953 130.155 192.943 130.148 192.932 130.142C192.839 130.088 192.743 130.039 192.645 129.994C192.627 129.985 192.61 129.976 192.592 129.968C192.5 129.927 192.406 129.892 192.311 129.858C192.286 129.849 192.261 129.839 192.235 129.83C192.145 129.801 192.053 129.777 191.96 129.755C191.928 129.747 191.897 129.737 191.865 129.731C191.772 129.711 191.677 129.697 191.582 129.685C191.549 129.68 191.517 129.673 191.484 129.67C191.356 129.656 191.226 129.649 191.094 129.649H181.915C179.878 129.649 178.226 131.301 178.226 133.338C178.226 133.796 178.44 134.219 178.79 134.493Z" fill="url(#paint8_linear)"/>
<path d="M188.639 136.864L193.874 134.697C194.425 134.47 194.783 133.933 194.783 133.338C194.783 131.3 193.132 129.648 191.094 129.648H181.916C179.878 129.648 178.226 131.3 178.226 133.338C178.226 133.933 178.585 134.47 179.135 134.698L184.371 136.864C185.737 137.43 187.272 137.43 188.639 136.864Z" fill="url(#paint9_linear)"/>
<path d="M247.83 130.88C247.154 130.126 246.176 129.649 245.084 129.649H235.906C233.868 129.649 232.216 131.301 232.216 133.338V137.117C232.216 138.209 232.694 139.187 233.447 139.863L247.805 154.221C248.481 154.975 249.459 155.452 250.551 155.452H259.729C261.767 155.452 263.419 153.8 263.419 151.762V147.983C263.419 146.891 262.941 145.913 262.188 145.237L247.83 130.88Z" fill="url(#paint10_linear)"/>
<path d="M242.629 136.864L247.865 134.697C248.415 134.47 248.774 133.933 248.774 133.338C248.774 131.3 247.122 129.648 245.085 129.648H235.906C233.869 129.648 232.217 131.3 232.217 133.338C232.217 133.933 232.576 134.47 233.126 134.698L238.362 136.864C239.728 137.43 241.263 137.43 242.629 136.864Z" fill="url(#paint11_linear)"/>
<path d="M245.084 140.806H235.906C233.869 140.806 232.216 139.155 232.216 137.117V133.337C232.216 131.3 233.868 129.648 235.906 129.648H245.084C247.122 129.648 248.774 131.3 248.774 133.337V137.117C248.774 139.155 247.122 140.806 245.084 140.806Z" fill="url(#paint12_linear)"/>
<path d="M232.78 134.493L239.094 140.806H245.085C247.122 140.806 248.774 139.155 248.774 137.117V133.338C248.774 132.379 248.406 131.509 247.807 130.854L247.806 130.853C247.722 130.761 247.634 130.674 247.541 130.59C247.54 130.59 247.54 130.589 247.539 130.589C247.449 130.508 247.354 130.432 247.256 130.36C247.252 130.356 247.248 130.353 247.243 130.35C247.15 130.282 247.053 130.22 246.954 130.161C246.943 130.155 246.934 130.148 246.923 130.142C246.83 130.088 246.733 130.039 246.635 129.994C246.618 129.985 246.6 129.976 246.583 129.968C246.491 129.927 246.397 129.892 246.302 129.858C246.276 129.849 246.251 129.839 246.226 129.83C246.136 129.801 246.043 129.777 245.95 129.755C245.919 129.747 245.888 129.737 245.855 129.731C245.763 129.711 245.668 129.697 245.573 129.685C245.54 129.68 245.508 129.673 245.475 129.67C245.346 129.656 245.216 129.649 245.085 129.649H235.906C233.869 129.649 232.217 131.301 232.217 133.338C232.217 133.796 232.431 134.219 232.78 134.493Z" fill="url(#paint13_linear)"/>
<path d="M242.629 136.864L247.865 134.697C248.415 134.47 248.774 133.933 248.774 133.338C248.774 131.3 247.122 129.648 245.085 129.648H235.906C233.869 129.648 232.217 131.3 232.217 133.338C232.217 133.933 232.576 134.47 233.126 134.698L238.362 136.864C239.728 137.43 241.263 137.43 242.629 136.864Z" fill="url(#paint14_linear)"/>
<path d="M156 153.764V171.761C156 175.489 159.022 178.51 162.749 178.51H264.251C267.978 178.51 271 175.488 271 171.761V153.764H156Z" fill="url(#paint15_linear)"/>
<path d="M233.117 92.9033C232.71 92.9033 232.297 92.8366 231.891 92.6955C226.811 90.9301 220.28 89.9582 213.5 89.9582C206.72 89.9582 200.189 90.9303 195.109 92.6955C193.162 93.3718 191.033 92.342 190.356 90.3938C189.679 88.4455 190.709 86.3178 192.658 85.6408C198.506 83.609 205.908 82.4897 213.5 82.4897C221.092 82.4897 228.494 83.6087 234.342 85.6408C236.29 86.3178 237.321 88.4455 236.644 90.3938C236.108 91.9361 234.663 92.9033 233.117 92.9033Z" fill="url(#paint16_linear)"/>
<path d="M225.89 164.998C225.758 164.739 225.492 164.56 225.182 164.56H201.818C201.378 164.56 201.021 164.917 201.021 165.358V167.655C201.021 167.965 201.2 168.231 201.458 168.363L211.605 178.51H239.401L225.89 164.998Z" fill="url(#paint17_linear)"/>
<path d="M201.021 165.358V167.655C201.021 168.096 201.378 168.453 201.818 168.453H225.182C225.622 168.453 225.979 168.096 225.979 167.655V165.358C225.979 164.918 225.622 164.56 225.182 164.56H201.818C201.378 164.56 201.021 164.918 201.021 165.358Z" fill="url(#paint18_linear)"/>
<defs>
<filter id="filter0_d" x="0" y="0" width="440" height="461" filterUnits="userSpaceOnUse" color-interpolation-filters="sRGB">
<feFlood flood-opacity="0" result="BackgroundImageFix"/>
<feColorMatrix in="SourceAlpha" type="matrix" values="0 0 0 0 0 0 0 0 0 0 0 0 0 0 0 0 0 0 127 0"/>
<feOffset dx="7" dy="7"/>
<feGaussianBlur stdDeviation="15"/>
<feColorMatrix type="matrix" values="0 0 0 0 0 0 0 0 0 0 0 0 0 0 0 0 0 0 0.25 0"/>
<feBlend mode="normal" in2="BackgroundImageFix" result="effect1_dropShadow"/>
<feBlend mode="normal" in="SourceGraphic" in2="effect1_dropShadow" result="shape"/>
</filter>
<linearGradient id="paint0_linear" x1="163.919" y1="136.398" x2="292.502" y2="136.398" gradientUnits="userSpaceOnUse">
<stop stop-color="#4D4D4D"/>
<stop offset="1" stop-color="#333333"/>
</linearGradient>
<linearGradient id="paint1_linear" x1="213.499" y1="161.864" x2="213.499" y2="122.74" gradientUnits="userSpaceOnUse">
<stop stop-color="#4D4D4D" stop-opacity="0"/>
<stop offset="1"/>
</linearGradient>
<linearGradient id="paint2_linear" x1="172.142" y1="104.321" x2="164.223" y2="108.565" gradientUnits="userSpaceOnUse">
<stop stop-color="#4D4D4D"/>
<stop offset="1" stop-color="#333333"/>
</linearGradient>
<linearGradient id="paint3_linear" x1="181.418" y1="121.63" x2="173.499" y2="125.874" gradientUnits="userSpaceOnUse">
<stop stop-color="#4D4D4D"/>
<stop offset="1" stop-color="#333333"/>
</linearGradient>
<linearGradient id="paint4_linear" x1="213.531" y1="110.16" x2="205.612" y2="158.094" gradientUnits="userSpaceOnUse">
<stop stop-color="#4D4D4D"/>
<stop offset="1" stop-color="#333333"/>
</linearGradient>
<linearGradient id="paint5_linear" x1="205.671" y1="154.395" x2="176.741" y2="125.466" gradientUnits="userSpaceOnUse">
<stop stop-color="#4D4D4D" stop-opacity="0"/>
<stop offset="1"/>
</linearGradient>
<linearGradient id="paint6_linear" x1="186.504" y1="131.622" x2="186.504" y2="138.961" gradientUnits="userSpaceOnUse">
<stop stop-color="#FCC344"/>
<stop offset="1" stop-color="#D48000"/>
</linearGradient>
<linearGradient id="paint7_linear" x1="186.504" y1="137.839" x2="186.504" y2="141.464" gradientUnits="userSpaceOnUse">
<stop stop-color="#FCC344"/>
<stop offset="1" stop-color="#D48000"/>
</linearGradient>
<linearGradient id="paint8_linear" x1="186.504" y1="140.684" x2="186.504" y2="135.153" gradientUnits="userSpaceOnUse">
<stop stop-color="#D48000" stop-opacity="0"/>
<stop offset="1" stop-color="#D48000"/>
</linearGradient>
<linearGradient id="paint9_linear" x1="186.504" y1="133.16" x2="186.504" y2="137.672" gradientUnits="userSpaceOnUse">
<stop stop-color="#FCC344"/>
<stop offset="1" stop-color="#D48000"/>
</linearGradient>
<linearGradient id="paint10_linear" x1="259.66" y1="154.396" x2="230.731" y2="125.466" gradientUnits="userSpaceOnUse">
<stop stop-color="#4D4D4D" stop-opacity="0"/>
<stop offset="1"/>
</linearGradient>
<linearGradient id="paint11_linear" x1="240.494" y1="131.622" x2="240.494" y2="138.961" gradientUnits="userSpaceOnUse">
<stop stop-color="#FCC344"/>
<stop offset="1" stop-color="#D48000"/>
</linearGradient>
<linearGradient id="paint12_linear" x1="240.493" y1="137.839" x2="240.493" y2="141.464" gradientUnits="userSpaceOnUse">
<stop stop-color="#FCC344"/>
<stop offset="1" stop-color="#D48000"/>
</linearGradient>
<linearGradient id="paint13_linear" x1="240.494" y1="140.684" x2="240.494" y2="135.153" gradientUnits="userSpaceOnUse">
<stop stop-color="#D48000" stop-opacity="0"/>
<stop offset="1" stop-color="#D48000"/>
</linearGradient>
<linearGradient id="paint14_linear" x1="240.494" y1="133.16" x2="240.494" y2="137.672" gradientUnits="userSpaceOnUse">
<stop stop-color="#FCC344"/>
<stop offset="1" stop-color="#D48000"/>
</linearGradient>
<linearGradient id="paint15_linear" x1="213.499" y1="162.944" x2="213.499" y2="182.388" gradientUnits="userSpaceOnUse">
<stop stop-color="#4D4D4D" stop-opacity="0"/>
<stop offset="1"/>
</linearGradient>
<linearGradient id="paint16_linear" x1="213.499" y1="85.1309" x2="213.499" y2="95.2917" gradientUnits="userSpaceOnUse">
<stop stop-color="#FCC344"/>
<stop offset="1" stop-color="#D48000"/>
</linearGradient>
<linearGradient id="paint17_linear" x1="220.21" y1="178.061" x2="220.21" y2="159.061" gradientUnits="userSpaceOnUse">
<stop stop-color="#1A1A1A" stop-opacity="0"/>
<stop offset="1"/>
</linearGradient>
<linearGradient id="paint18_linear" x1="213.499" y1="164.998" x2="213.499" y2="168.493" gradientUnits="userSpaceOnUse">
<stop stop-color="#FCC344"/>
<stop offset="1" stop-color="#D48000"/>
</linearGradient>
</defs>
</svg>
