<svg width="312" height="334" viewBox="0 0 312 334" fill="none" xmlns="http://www.w3.org/2000/svg">
<g filter="url(#filter0_d)">
<rect x="23" y="23.6263" width="259" height="273.313" fill="#FBFBFB"/>
<path d="M92.8113 236.006C93.2513 235.666 93.5113 235.186 93.5113 234.556C93.5113 233.276 92.4913 232.486 91.1013 232.486C89.8013 232.486 89.0513 233.136 88.6213 233.996L89.9913 234.786C90.1713 234.356 90.4813 233.986 91.1013 233.986C91.6713 233.986 91.9113 234.246 91.9113 234.676C91.9113 235.106 91.5913 235.366 90.9613 235.366H90.2713V236.786H91.1613C91.8313 236.786 92.1613 237.066 92.1613 237.526C92.1613 237.986 91.8413 238.266 91.1713 238.266C90.4213 238.266 90.0713 237.856 89.8913 237.316L88.5113 238.106C88.9213 239.096 89.7313 239.766 91.1713 239.766C92.6413 239.766 93.7613 238.956 93.7613 237.646C93.7613 236.896 93.4013 236.336 92.8113 236.006ZM98.137 234.626V235.096C97.807 234.716 97.317 234.486 96.647 234.486C95.337 234.486 94.257 235.636 94.257 237.126C94.257 238.616 95.337 239.766 96.647 239.766C97.317 239.766 97.807 239.536 98.137 239.156V239.626H99.637V234.626H98.137ZM96.947 238.346C96.257 238.346 95.757 237.876 95.757 237.126C95.757 236.376 96.257 235.906 96.947 235.906C97.637 235.906 98.137 236.376 98.137 237.126C98.137 237.876 97.637 238.346 96.947 238.346ZM103.728 234.486C103.058 234.486 102.568 234.716 102.238 235.096V234.626H100.738V241.626H102.238V239.156C102.568 239.536 103.058 239.766 103.728 239.766C105.038 239.766 106.118 238.616 106.118 237.126C106.118 235.636 105.038 234.486 103.728 234.486ZM103.428 238.346C102.738 238.346 102.238 237.876 102.238 237.126C102.238 236.376 102.738 235.906 103.428 235.906C104.118 235.906 104.618 236.376 104.618 237.126C104.618 237.876 104.118 238.346 103.428 238.346ZM110.598 234.626V235.096C110.268 234.716 109.778 234.486 109.108 234.486C107.798 234.486 106.718 235.636 106.718 237.126C106.718 238.616 107.798 239.766 109.108 239.766C109.778 239.766 110.268 239.536 110.598 239.156V239.626H112.098V234.626H110.598ZM109.408 238.346C108.718 238.346 108.218 237.876 108.218 237.126C108.218 236.376 108.718 235.906 109.408 235.906C110.098 235.906 110.598 236.376 110.598 237.126C110.598 237.876 110.098 238.346 109.408 238.346ZM115.618 239.766C117.188 239.766 118.168 238.776 118.168 237.426C118.168 236.006 117.018 235.246 116.098 235.246C115.578 235.246 115.088 235.396 114.728 235.716C114.868 235.366 115.128 235.076 116.018 234.746C117.078 234.346 117.698 233.976 117.898 233.136L116.658 232.426C116.368 233.136 115.928 233.266 114.858 233.796C113.258 234.586 112.948 235.436 112.948 237.046C112.948 238.586 113.958 239.766 115.618 239.766ZM115.608 238.416C114.998 238.416 114.518 237.996 114.518 237.386C114.518 236.766 115.058 236.416 115.578 236.416C116.208 236.416 116.668 236.846 116.668 237.426C116.668 237.996 116.228 238.416 115.608 238.416ZM122.502 234.626V235.096C122.172 234.716 121.682 234.486 121.012 234.486C119.702 234.486 118.622 235.636 118.622 237.126C118.622 238.616 119.702 239.766 121.012 239.766C121.682 239.766 122.172 239.536 122.502 239.156V239.626H124.002V234.626H122.502ZM121.312 238.346C120.622 238.346 120.122 237.876 120.122 237.126C120.122 236.376 120.622 235.906 121.312 235.906C122.002 235.906 122.502 236.376 122.502 237.126C122.502 237.876 122.002 238.346 121.312 238.346ZM129.153 234.626H124.653V236.066H126.163V239.626H127.663V236.066H129.153V234.626ZM132.14 236.126H131.3V234.626H129.8V239.626H132.14C133.35 239.626 134.1 238.926 134.1 237.876C134.1 236.826 133.35 236.126 132.14 236.126ZM134.6 234.626V239.626H136.1V234.626H134.6ZM132.15 238.326H131.3V237.426H132.15C132.45 237.426 132.64 237.616 132.64 237.876C132.64 238.136 132.45 238.326 132.15 238.326ZM140.932 237.066C141.242 236.836 141.402 236.486 141.402 236.056C141.402 235.226 140.812 234.626 139.702 234.626H137.202V239.626H139.902C141.012 239.626 141.602 239.026 141.602 238.196C141.602 237.686 141.362 237.296 140.932 237.066ZM139.542 235.826C139.812 235.826 139.982 235.936 139.982 236.186C139.982 236.426 139.812 236.526 139.542 236.526H138.602V235.826H139.542ZM139.702 238.386H138.602V237.666H139.702C139.962 237.666 140.142 237.776 140.142 238.016C140.142 238.266 139.962 238.386 139.702 238.386ZM145.979 234.626V235.096C145.649 234.716 145.159 234.486 144.489 234.486C143.179 234.486 142.099 235.636 142.099 237.126C142.099 238.616 143.179 239.766 144.489 239.766C145.159 239.766 145.649 239.536 145.979 239.156V239.626H147.479V234.626H145.979ZM144.789 238.346C144.099 238.346 143.599 237.876 143.599 237.126C143.599 236.376 144.099 235.906 144.789 235.906C145.479 235.906 145.979 236.376 145.979 237.126C145.979 237.876 145.479 238.346 144.789 238.346ZM152.629 234.626H148.129V236.066H149.639V239.626H151.139V236.066H152.629V234.626ZM155.617 236.126H154.777V234.626H153.277V239.626H155.617C156.827 239.626 157.577 238.926 157.577 237.876C157.577 236.826 156.827 236.126 155.617 236.126ZM155.627 238.326H154.777V237.426H155.627C155.927 237.426 156.117 237.616 156.117 237.876C156.117 238.136 155.927 238.326 155.627 238.326ZM163.225 239.766C164.695 239.766 165.875 238.616 165.875 237.126C165.875 235.636 164.695 234.486 163.225 234.486C161.755 234.486 160.575 235.636 160.575 237.126C160.575 238.616 161.755 239.766 163.225 239.766ZM163.225 238.306C162.575 238.306 162.075 237.836 162.075 237.126C162.075 236.416 162.575 235.946 163.225 235.946C163.875 235.946 164.375 236.416 164.375 237.126C164.375 237.836 163.875 238.306 163.225 238.306ZM170.579 234.626H166.079V236.066H167.589V239.626H169.089V236.066H170.579V234.626ZM175.106 232.626L173.276 233.286L173.666 234.656L174.906 234.316V239.626H176.506V232.626H175.106ZM177.429 239.626H182.189V238.086H179.839L180.999 236.916C181.639 236.276 182.089 235.556 182.089 234.716C182.089 233.306 180.969 232.486 179.719 232.486C178.749 232.486 177.809 232.976 177.359 234.016L178.709 234.806C178.899 234.366 179.249 234.046 179.739 234.046C180.209 234.046 180.489 234.346 180.489 234.786C180.489 235.196 180.189 235.606 179.779 236.026L177.429 238.466V239.626ZM185.593 239.766C187.403 239.766 188.443 238.286 188.443 236.126C188.443 233.966 187.403 232.486 185.593 232.486C183.783 232.486 182.743 233.966 182.743 236.126C182.743 238.286 183.783 239.766 185.593 239.766ZM185.593 238.206C184.753 238.206 184.343 237.476 184.343 236.126C184.343 234.776 184.753 234.046 185.593 234.046C186.433 234.046 186.843 234.776 186.843 236.126C186.843 237.476 186.433 238.206 185.593 238.206ZM194.392 239.766C196.202 239.766 197.242 238.286 197.242 236.126C197.242 233.966 196.202 232.486 194.392 232.486C192.582 232.486 191.542 233.966 191.542 236.126C191.542 238.286 192.582 239.766 194.392 239.766ZM194.392 238.206C193.552 238.206 193.142 237.476 193.142 236.126C193.142 234.776 193.552 234.046 194.392 234.046C195.232 234.046 195.642 234.776 195.642 236.126C195.642 237.476 195.232 238.206 194.392 238.206ZM200.691 239.766C202.501 239.766 203.541 238.286 203.541 236.126C203.541 233.966 202.501 232.486 200.691 232.486C198.881 232.486 197.841 233.966 197.841 236.126C197.841 238.286 198.881 239.766 200.691 239.766ZM200.691 238.206C199.851 238.206 199.441 237.476 199.441 236.126C199.441 234.776 199.851 234.046 200.691 234.046C201.531 234.046 201.941 234.776 201.941 236.126C201.941 237.476 201.531 238.206 200.691 238.206ZM206.99 239.766C208.8 239.766 209.84 238.286 209.84 236.126C209.84 233.966 208.8 232.486 206.99 232.486C205.18 232.486 204.14 233.966 204.14 236.126C204.14 238.286 205.18 239.766 206.99 239.766ZM206.99 238.206C206.15 238.206 205.74 237.476 205.74 236.126C205.74 234.776 206.15 234.046 206.99 234.046C207.83 234.046 208.24 234.776 208.24 236.126C208.24 237.476 207.83 238.206 206.99 238.206ZM117.722 246.486C117.052 246.486 116.562 246.716 116.232 247.096V246.626H114.732V253.626H116.232V251.156C116.562 251.536 117.052 251.766 117.722 251.766C119.032 251.766 120.112 250.616 120.112 249.126C120.112 247.636 119.032 246.486 117.722 246.486ZM117.422 250.346C116.732 250.346 116.232 249.876 116.232 249.126C116.232 248.376 116.732 247.906 117.422 247.906C118.112 247.906 118.612 248.376 118.612 249.126C118.612 249.876 118.112 250.346 117.422 250.346ZM123.917 246.626L122.977 249.696L121.817 246.626H120.217L122.177 251.536C121.947 252.066 121.627 252.226 120.957 252.226V253.626C122.257 253.696 123.247 253.066 123.807 251.476L125.517 246.626H123.917ZM128.294 251.766C129.864 251.766 130.844 250.776 130.844 249.426C130.844 248.006 129.694 247.246 128.774 247.246C128.254 247.246 127.764 247.396 127.404 247.716C127.544 247.366 127.804 247.076 128.694 246.746C129.754 246.346 130.374 245.976 130.574 245.136L129.334 244.426C129.044 245.136 128.604 245.266 127.534 245.796C125.934 246.586 125.624 247.436 125.624 249.046C125.624 250.586 126.634 251.766 128.294 251.766ZM128.284 250.416C127.674 250.416 127.194 249.996 127.194 249.386C127.194 248.766 127.734 248.416 128.254 248.416C128.884 248.416 129.344 248.846 129.344 249.426C129.344 249.996 128.904 250.416 128.284 250.416ZM135.8 246.626H131.72V249.456C131.72 250.076 131.47 250.366 131 250.226V251.626C132.46 251.796 133.22 251.066 133.22 249.556V248.066H134.3V251.626H135.8V246.626ZM138.24 249.726H141.79C141.83 249.536 141.85 249.336 141.85 249.126C141.85 247.616 140.77 246.486 139.31 246.486C137.73 246.486 136.65 247.636 136.65 249.126C136.65 250.616 137.71 251.766 139.42 251.766C140.37 251.766 141.11 251.416 141.6 250.736L140.4 250.046C140.2 250.266 139.85 250.426 139.44 250.426C138.89 250.426 138.43 250.246 138.24 249.726ZM138.21 248.606C138.35 248.096 138.73 247.816 139.3 247.816C139.75 247.816 140.2 248.026 140.36 248.606H138.21ZM143.55 246.036H146.55V244.736H143.55V246.036ZM146.3 246.626L144.16 249.126V246.626H142.7V251.626H143.8L145.94 249.126V251.626H147.4V246.626H146.3ZM154.731 249.066C155.041 248.836 155.201 248.486 155.201 248.056C155.201 247.226 154.611 246.626 153.501 246.626H151.001V251.626H153.701C154.811 251.626 155.401 251.026 155.401 250.196C155.401 249.686 155.161 249.296 154.731 249.066ZM153.341 247.826C153.611 247.826 153.781 247.936 153.781 248.186C153.781 248.426 153.611 248.526 153.341 248.526H152.401V247.826H153.341ZM153.501 250.386H152.401V249.666H153.501C153.761 249.666 153.941 249.776 153.941 250.016C153.941 250.266 153.761 250.386 153.501 250.386ZM163.948 246.626H162.508L161.298 248.516L160.088 246.626H158.648V251.626H160.088V249.046L161.208 250.786H161.388L162.508 249.046V251.626H163.948V246.626ZM166.384 249.726H169.934C169.974 249.536 169.994 249.336 169.994 249.126C169.994 247.616 168.914 246.486 167.454 246.486C165.874 246.486 164.794 247.636 164.794 249.126C164.794 250.616 165.854 251.766 167.564 251.766C168.514 251.766 169.254 251.416 169.744 250.736L168.544 250.046C168.344 250.266 167.994 250.426 167.584 250.426C167.034 250.426 166.574 250.246 166.384 249.726ZM166.354 248.606C166.494 248.096 166.874 247.816 167.444 247.816C167.894 247.816 168.344 248.026 168.504 248.606H166.354ZM173.196 251.766C174.176 251.766 175.026 251.256 175.456 250.476L174.146 249.726C173.986 250.076 173.616 250.286 173.176 250.286C172.526 250.286 172.046 249.816 172.046 249.126C172.046 248.436 172.526 247.966 173.176 247.966C173.616 247.966 173.976 248.176 174.146 248.526L175.456 247.766C175.026 246.996 174.166 246.486 173.196 246.486C171.676 246.486 170.546 247.636 170.546 249.126C170.546 250.616 171.676 251.766 173.196 251.766ZM180.161 246.626H177.721C176.511 246.626 175.861 247.526 175.861 248.406C175.861 249.026 176.211 249.666 176.831 249.976L175.661 251.626H177.361L178.391 250.186H178.701V251.626H180.161V246.626ZM177.851 247.946H178.701V248.946H177.851C177.531 248.946 177.321 248.766 177.321 248.456C177.321 248.136 177.531 247.946 177.851 247.946ZM185.765 250.226V246.626H184.265V250.226H182.765V246.626H181.265V251.626H185.155V252.966H186.615V250.226H185.765Z" fill="#3A3A3A"/>
<path d="M80.0992 177.386C80.9792 176.706 81.4992 175.746 81.4992 174.486C81.4992 171.926 79.4592 170.346 76.6792 170.346C74.0792 170.346 72.5792 171.646 71.7192 173.366L74.4592 174.946C74.8192 174.086 75.4392 173.346 76.6792 173.346C77.8192 173.346 78.2992 173.866 78.2992 174.726C78.2992 175.586 77.6592 176.106 76.3992 176.106H75.0192V178.946H76.7992C78.1392 178.946 78.7992 179.506 78.7992 180.426C78.7992 181.346 78.1592 181.906 76.8192 181.906C75.3192 181.906 74.6192 181.086 74.2592 180.006L71.4992 181.586C72.3192 183.566 73.9392 184.906 76.8192 184.906C79.7592 184.906 81.9992 183.286 81.9992 180.666C81.9992 179.166 81.2792 178.046 80.0992 177.386ZM90.7506 174.626V175.566C90.0906 174.806 89.1106 174.346 87.7706 174.346C85.1506 174.346 82.9906 176.646 82.9906 179.626C82.9906 182.606 85.1506 184.906 87.7706 184.906C89.1106 184.906 90.0906 184.446 90.7506 183.686V184.626H93.7506V174.626H90.7506ZM88.3706 182.066C86.9906 182.066 85.9906 181.126 85.9906 179.626C85.9906 178.126 86.9906 177.186 88.3706 177.186C89.7506 177.186 90.7506 178.126 90.7506 179.626C90.7506 181.126 89.7506 182.066 88.3706 182.066ZM101.932 174.346C100.592 174.346 99.6116 174.806 98.9516 175.566V174.626H95.9516V188.626H98.9516V183.686C99.6116 184.446 100.592 184.906 101.932 184.906C104.552 184.906 106.712 182.606 106.712 179.626C106.712 176.646 104.552 174.346 101.932 174.346ZM101.332 182.066C99.9516 182.066 98.9516 181.126 98.9516 179.626C98.9516 178.126 99.9516 177.186 101.332 177.186C102.712 177.186 103.712 178.126 103.712 179.626C103.712 181.126 102.712 182.066 101.332 182.066ZM115.673 174.626V175.566C115.013 174.806 114.033 174.346 112.693 174.346C110.073 174.346 107.913 176.646 107.913 179.626C107.913 182.606 110.073 184.906 112.693 184.906C114.033 184.906 115.013 184.446 115.673 183.686V184.626H118.673V174.626H115.673ZM113.293 182.066C111.913 182.066 110.913 181.126 110.913 179.626C110.913 178.126 111.913 177.186 113.293 177.186C114.673 177.186 115.673 178.126 115.673 179.626C115.673 181.126 114.673 182.066 113.293 182.066ZM125.713 184.906C128.853 184.906 130.813 182.926 130.813 180.226C130.813 177.386 128.513 175.866 126.673 175.866C125.633 175.866 124.653 176.166 123.933 176.806C124.213 176.106 124.733 175.526 126.513 174.866C128.633 174.066 129.873 173.326 130.273 171.646L127.793 170.226C127.213 171.646 126.333 171.906 124.193 172.966C120.993 174.546 120.373 176.246 120.373 179.466C120.373 182.546 122.393 184.906 125.713 184.906ZM125.693 182.206C124.473 182.206 123.513 181.366 123.513 180.146C123.513 178.906 124.593 178.206 125.633 178.206C126.893 178.206 127.813 179.066 127.813 180.226C127.813 181.366 126.933 182.206 125.693 182.206ZM137.021 184.906C139.961 184.906 142.321 182.606 142.321 179.626C142.321 176.646 139.961 174.346 137.021 174.346C134.081 174.346 131.721 176.646 131.721 179.626C131.721 182.606 134.081 184.906 137.021 184.906ZM137.021 181.986C135.721 181.986 134.721 181.046 134.721 179.626C134.721 178.206 135.721 177.266 137.021 177.266C138.321 177.266 139.321 178.206 139.321 179.626C139.321 181.046 138.321 181.986 137.021 181.986ZM151.727 174.626H142.727V177.506H145.747V184.626H148.747V177.506H151.727V174.626ZM159.891 174.626V175.566C159.231 174.806 158.251 174.346 156.911 174.346C154.291 174.346 152.131 176.646 152.131 179.626C152.131 182.606 154.291 184.906 156.911 184.906C158.251 184.906 159.231 184.446 159.891 183.686V184.626H162.891V174.626H159.891ZM157.511 182.066C156.131 182.066 155.131 181.126 155.131 179.626C155.131 178.126 156.131 177.186 157.511 177.186C158.891 177.186 159.891 178.126 159.891 179.626C159.891 181.126 158.891 182.066 157.511 182.066ZM173.192 174.626H164.192V177.506H167.212V184.626H170.212V177.506H173.192V174.626ZM179.167 177.626H177.487V174.626H174.487V184.626H179.167C181.587 184.626 183.087 183.226 183.087 181.126C183.087 179.026 181.587 177.626 179.167 177.626ZM179.187 182.026H177.487V180.226H179.187C179.787 180.226 180.167 180.606 180.167 181.126C180.167 181.646 179.787 182.026 179.187 182.026ZM194.384 184.906C196.344 184.906 198.044 183.886 198.904 182.326L196.284 180.826C195.964 181.526 195.224 181.946 194.344 181.946C193.044 181.946 192.084 181.006 192.084 179.626C192.084 178.246 193.044 177.306 194.344 177.306C195.224 177.306 195.944 177.726 196.284 178.426L198.904 176.906C198.044 175.366 196.324 174.346 194.384 174.346C191.344 174.346 189.084 176.646 189.084 179.626C189.084 182.606 191.344 184.906 194.384 184.906ZM207.669 179.506C208.289 179.046 208.609 178.346 208.609 177.486C208.609 175.826 207.429 174.626 205.209 174.626H200.209V184.626H205.609C207.829 184.626 209.009 183.426 209.009 181.766C209.009 180.746 208.529 179.966 207.669 179.506ZM204.889 177.026C205.429 177.026 205.769 177.246 205.769 177.746C205.769 178.226 205.429 178.426 204.889 178.426H203.009V177.026H204.889ZM205.209 182.146H203.009V180.706H205.209C205.729 180.706 206.089 180.926 206.089 181.406C206.089 181.906 205.729 182.146 205.209 182.146ZM215.302 184.906C218.242 184.906 220.602 182.606 220.602 179.626C220.602 176.646 218.242 174.346 215.302 174.346C212.362 174.346 210.002 176.646 210.002 179.626C210.002 182.606 212.362 184.906 215.302 184.906ZM215.302 181.986C214.002 181.986 213.002 181.046 213.002 179.626C213.002 178.206 214.002 177.266 215.302 177.266C216.602 177.266 217.602 178.206 217.602 179.626C217.602 181.046 216.602 181.986 215.302 181.986ZM229.499 174.626L225.219 179.626V174.626H222.299V184.626H224.499L228.779 179.626V184.626H231.699V174.626H229.499ZM91.416 199.626H82.016V209.626H85.016V202.426H88.416V209.626H91.416V199.626ZM96.2976 205.826H103.398C103.478 205.446 103.518 205.046 103.518 204.626C103.518 201.606 101.358 199.346 98.4376 199.346C95.2776 199.346 93.1176 201.646 93.1176 204.626C93.1176 207.606 95.2376 209.906 98.6576 209.906C100.558 209.906 102.038 209.206 103.018 207.846L100.618 206.466C100.218 206.906 99.5176 207.226 98.6976 207.226C97.5976 207.226 96.6776 206.866 96.2976 205.826ZM96.2376 203.586C96.5176 202.566 97.2776 202.006 98.4176 202.006C99.3176 202.006 100.218 202.426 100.538 203.586H96.2376ZM111.199 199.346C109.859 199.346 108.879 199.806 108.219 200.566V199.626H105.219V213.626H108.219V208.686C108.879 209.446 109.859 209.906 111.199 209.906C113.819 209.906 115.979 207.606 115.979 204.626C115.979 201.646 113.819 199.346 111.199 199.346ZM110.599 207.066C109.219 207.066 108.219 206.126 108.219 204.626C108.219 203.126 109.219 202.186 110.599 202.186C111.979 202.186 112.979 203.126 112.979 204.626C112.979 206.126 111.979 207.066 110.599 207.066ZM125.14 204.506C125.76 204.046 126.08 203.346 126.08 202.486C126.08 200.826 124.9 199.626 122.68 199.626H117.68V209.626H123.08C125.3 209.626 126.48 208.426 126.48 206.766C126.48 205.746 126 204.966 125.14 204.506ZM122.36 202.026C122.9 202.026 123.24 202.246 123.24 202.746C123.24 203.226 122.9 203.426 122.36 203.426H120.48V202.026H122.36ZM122.68 207.146H120.48V205.706H122.68C123.2 205.706 123.56 205.926 123.56 206.406C123.56 206.906 123.2 207.146 122.68 207.146ZM132.653 202.626H130.973V199.626H127.973V209.626H132.653C135.073 209.626 136.573 208.226 136.573 206.126C136.573 204.026 135.073 202.626 132.653 202.626ZM137.573 199.626V209.626H140.573V199.626H137.573ZM132.673 207.026H130.973V205.226H132.673C133.273 205.226 133.653 205.606 133.653 206.126C133.653 206.646 133.273 207.026 132.673 207.026ZM145.458 205.826H152.558C152.638 205.446 152.678 205.046 152.678 204.626C152.678 201.606 150.518 199.346 147.598 199.346C144.438 199.346 142.278 201.646 142.278 204.626C142.278 207.606 144.398 209.906 147.818 209.906C149.718 209.906 151.198 209.206 152.178 207.846L149.778 206.466C149.378 206.906 148.678 207.226 147.858 207.226C146.758 207.226 145.838 206.866 145.458 205.826ZM145.398 203.586C145.678 202.566 146.438 202.006 147.578 202.006C148.478 202.006 149.378 202.426 149.698 203.586H145.398ZM168.579 206.826V199.626H160.519V203.366C160.519 205.086 160.219 206.046 159.719 206.826H158.479V212.306H161.399V209.626H166.959V212.306H169.879V206.826H168.579ZM162.859 206.826C163.239 205.926 163.439 204.826 163.439 203.366V202.306H165.659V206.826H162.859ZM173.661 205.826H180.761C180.841 205.446 180.881 205.046 180.881 204.626C180.881 201.606 178.721 199.346 175.801 199.346C172.641 199.346 170.481 201.646 170.481 204.626C170.481 207.606 172.601 209.906 176.021 209.906C177.921 209.906 179.401 209.206 180.381 207.846L177.981 206.466C177.581 206.906 176.881 207.226 176.061 207.226C174.961 207.226 174.041 206.866 173.661 205.826ZM173.601 203.586C173.881 202.566 174.641 202.006 175.781 202.006C176.681 202.006 177.581 202.426 177.901 203.586H173.601ZM188.982 199.626V203.226H185.582V199.626H182.582V209.626H185.582V206.026H188.982V209.626H191.982V199.626H188.982ZM198.864 202.626H197.184V199.626H194.184V209.626H198.864C201.284 209.626 202.784 208.226 202.784 206.126C202.784 204.026 201.284 202.626 198.864 202.626ZM198.884 207.026H197.184V205.226H198.884C199.484 205.226 199.864 205.606 199.864 206.126C199.864 206.646 199.484 207.026 198.884 207.026ZM211.282 199.626H204.282V209.626H207.282V202.506H211.282V199.626ZM219.782 199.626L215.502 204.626V199.626H212.582V209.626H214.782L219.062 204.626V209.626H221.982V199.626H219.782Z" fill="#3030C1"/>
<g clip-path="url(#clip0)">
<path d="M191.641 136.902H111.359C110.056 136.902 109 135.846 109 134.543V92.6385C109 91.3358 110.056 90.2798 111.359 90.2798H191.641C192.944 90.2798 194 91.3358 194 92.6385V134.543C194 135.846 192.944 136.902 191.641 136.902Z" fill="url(#paint0_linear)"/>
<path d="M189.896 135.285H113.104C111.875 135.285 110.88 134.289 110.88 133.061V94.1208C110.88 92.8921 111.876 91.8963 113.104 91.8963H189.896C191.125 91.8963 192.121 92.8923 192.121 94.1208V133.061C192.121 134.289 191.125 135.285 189.896 135.285Z" fill="url(#paint1_linear)"/>
<path d="M186.871 104.538C182.934 104.538 179.742 101.346 179.742 97.409C179.742 97.2473 179.747 97.0868 179.758 96.928C179.81 96.1648 179.207 95.5176 178.443 95.5176H124.557C123.793 95.5176 123.19 96.165 123.242 96.928C123.253 97.087 123.258 97.2473 123.258 97.409C123.258 101.346 120.066 104.538 116.129 104.538C116.124 104.538 116.12 104.538 116.115 104.538C115.375 104.536 114.768 105.118 114.768 105.858V121.323C114.768 122.063 115.375 122.645 116.115 122.644H116.129C120.066 122.644 123.258 125.835 123.258 129.773C123.258 129.934 123.252 130.095 123.242 130.254C123.19 131.017 123.793 131.664 124.557 131.664H178.442C179.207 131.664 179.81 131.017 179.758 130.254C179.747 130.095 179.742 129.934 179.742 129.773C179.742 125.835 182.933 122.644 186.871 122.644H186.885C187.624 122.645 188.231 122.063 188.231 121.323V105.858C188.231 105.118 187.624 104.536 186.885 104.538C186.88 104.538 186.876 104.538 186.871 104.538Z" fill="url(#paint2_linear)"/>
<path d="M151.5 129.831C160.469 129.831 167.74 122.56 167.74 113.591C167.74 104.622 160.469 97.3506 151.5 97.3506C142.531 97.3506 135.26 104.622 135.26 113.591C135.26 122.56 142.531 129.831 151.5 129.831Z" fill="url(#paint3_linear)"/>
<path d="M157.877 103.786C157.63 103.399 157.151 103.078 156.44 102.822C155.673 102.546 154.855 102.359 153.989 102.257C153.942 102.227 153.895 102.201 153.847 102.179L152.564 100.804C152.363 100.657 152.146 100.582 151.913 100.582C151.659 100.582 151.441 100.657 151.262 100.804C151.081 100.953 150.992 101.122 150.992 101.313V102.234C149.276 102.424 147.841 102.996 146.687 103.949C145.533 104.902 144.956 106.299 144.956 108.139C144.956 108.794 145.03 109.391 145.178 109.93C145.326 110.469 145.57 110.939 145.909 111.341C146.247 111.742 146.57 112.086 146.878 112.371C146.88 112.373 146.882 112.375 146.884 112.377C146.884 112.377 150.879 116.372 150.881 116.374C150.918 116.413 150.955 116.451 150.991 116.489V121.802C150.053 121.739 149.226 121.496 148.511 121.073C147.797 120.651 147.235 120.255 146.826 119.884C146.417 119.515 146.087 119.329 145.836 119.329C145.457 119.329 145.12 119.53 144.825 119.932C144.531 120.334 144.384 120.735 144.384 121.137C144.384 121.779 144.745 122.411 145.469 123.035L159.336 136.902H190.992L157.877 103.786Z" fill="url(#paint4_linear)"/>
<path d="M144.384 121.137C144.384 120.735 144.531 120.334 144.826 119.932C145.121 119.531 145.457 119.33 145.836 119.33C146.088 119.33 146.418 119.515 146.827 119.885C147.236 120.255 147.797 120.651 148.512 121.073C149.227 121.496 150.053 121.739 150.992 121.803V114.353C150.356 114.12 149.869 113.935 149.53 113.798C149.191 113.661 148.741 113.46 148.18 113.196C147.619 112.932 147.184 112.657 146.878 112.371C146.57 112.086 146.247 111.742 145.909 111.341C145.57 110.939 145.326 110.469 145.178 109.93C145.03 109.391 144.956 108.794 144.956 108.139C144.956 106.299 145.533 104.902 146.687 103.949C147.841 102.996 149.276 102.425 150.992 102.234V101.313C150.992 101.122 151.081 100.953 151.262 100.804C151.441 100.657 151.659 100.582 151.913 100.582C152.146 100.582 152.363 100.657 152.564 100.804C152.765 100.953 152.866 101.122 152.866 101.313V102.17C154.157 102.213 155.349 102.43 156.44 102.822C157.53 103.214 158.076 103.759 158.076 104.458C158.076 104.839 157.947 105.236 157.691 105.649C157.435 106.062 157.093 106.268 156.666 106.268C156.497 106.268 156.033 106.089 155.275 105.728C154.516 105.369 153.713 105.157 152.866 105.093V111.531C153.708 111.848 154.409 112.149 154.967 112.435C155.524 112.72 156.115 113.116 156.736 113.624C157.358 114.131 157.826 114.77 158.142 115.541C158.457 116.313 158.616 117.217 158.616 118.252C158.616 120.144 158.1 121.648 157.068 122.764C156.035 123.88 154.635 124.565 152.866 124.82V125.882C152.866 126.069 152.765 126.235 152.564 126.381C152.363 126.526 152.146 126.599 151.913 126.599C151.659 126.599 151.441 126.526 151.262 126.381C151.081 126.235 150.992 126.069 150.992 125.882V124.916C149.149 124.894 147.587 124.473 146.306 123.651C145.024 122.829 144.384 121.991 144.384 121.137ZM148.101 107.822C148.101 108.646 148.357 109.275 148.871 109.708C149.384 110.141 150.155 110.548 151.182 110.929V105.153C149.128 105.408 148.101 106.297 148.101 107.822ZM152.675 121.739C154.539 121.401 155.471 120.355 155.471 118.6C155.471 117.671 155.227 116.942 154.74 116.413C154.253 115.885 153.565 115.431 152.675 115.05V121.739Z" fill="url(#paint5_linear)"/>
<path d="M126.823 115.373H118.29C117.918 115.373 117.616 115.071 117.616 114.699V112.482C117.616 112.11 117.918 111.808 118.29 111.808H126.823C127.195 111.808 127.496 112.11 127.496 112.482V114.699C127.496 115.071 127.195 115.373 126.823 115.373Z" fill="#4AB272"/>
<path d="M131.663 115.373H130.192C129.82 115.373 129.519 115.071 129.519 114.699V112.482C129.519 112.11 129.82 111.808 130.192 111.808H131.663C132.035 111.808 132.337 112.11 132.337 112.482V114.699C132.337 115.071 132.035 115.373 131.663 115.373Z" fill="#4AB272"/>
<path d="M176.669 115.373H171.337C170.965 115.373 170.663 115.071 170.663 114.699V112.482C170.663 112.11 170.965 111.808 171.337 111.808H176.669C177.041 111.808 177.343 112.11 177.343 112.482V114.699C177.343 115.071 177.041 115.373 176.669 115.373Z" fill="#4AB272"/>
<path d="M184.71 115.373H179.978C179.606 115.373 179.305 115.071 179.305 114.699V112.482C179.305 112.11 179.606 111.808 179.978 111.808H184.71C185.082 111.808 185.384 112.11 185.384 112.482V114.699C185.384 115.071 185.082 115.373 184.71 115.373Z" fill="#4AB272"/>
<path d="M137.857 90.2798H114.056L113.516 90.8201C112.295 92.0408 112.798 93.9758 114.187 94.612C114.416 95.0996 117.039 97.7421 117.519 97.9813L117.518 109.93C117.518 110.115 117.547 110.259 117.602 110.371C117.73 110.635 136.329 128.939 144.427 136.902H184.479L137.857 90.2798Z" fill="url(#paint6_linear)"/>
<path d="M134.39 97.1669L134.389 109.928C134.389 110.864 133.631 110.759 132.695 110.759L119.212 110.76C118.276 110.76 117.518 110.865 117.518 109.93L117.519 97.1686C117.519 95.8734 116.469 94.8234 115.174 94.8236C113.084 94.8238 112.038 92.2978 113.516 90.8201L124.298 80.0379C125.214 79.1219 126.699 79.1218 127.614 80.0376L138.394 90.8176C139.872 92.2949 138.825 94.8211 136.736 94.8214C135.44 94.8216 134.39 95.8718 134.39 97.1669Z" fill="url(#paint7_linear)"/>
<path d="M119.425 108.852L119.426 97.1683C119.427 94.8233 117.519 92.9156 115.174 92.9159C114.98 92.9159 114.844 92.8249 114.77 92.6458C114.695 92.4664 114.727 92.3061 114.864 92.1688L125.646 81.3866C125.752 81.2806 125.873 81.2584 125.956 81.2584C126.039 81.2584 126.159 81.2806 126.265 81.3866L137.045 92.1668C137.183 92.3039 137.215 92.4644 137.14 92.6438C137.066 92.8231 136.93 92.9141 136.736 92.9141C134.391 92.9143 132.483 94.8223 132.483 97.1673L132.481 108.851L119.425 108.852Z" fill="url(#paint8_linear)"/>
<path d="M132.695 110.759C133.631 110.759 134.389 110.864 134.389 109.928L134.39 97.1671C134.39 95.8719 135.44 94.8217 136.736 94.8216C138.825 94.8214 139.872 92.2951 138.394 90.8177L127.614 80.0377C127.157 79.5799 126.556 79.3509 125.956 79.3511L125.953 110.76L132.695 110.759Z" fill="url(#paint9_linear)"/>
</g>
</g>
<defs>
<filter id="filter0_d" x="0" y="0.626282" width="319" height="333.313" filterUnits="userSpaceOnUse" color-interpolation-filters="sRGB">
<feFlood flood-opacity="0" result="BackgroundImageFix"/>
<feColorMatrix in="SourceAlpha" type="matrix" values="0 0 0 0 0 0 0 0 0 0 0 0 0 0 0 0 0 0 127 0"/>
<feOffset dx="7" dy="7"/>
<feGaussianBlur stdDeviation="15"/>
<feColorMatrix type="matrix" values="0 0 0 0 0 0 0 0 0 0 0 0 0 0 0 0 0 0 0.25 0"/>
<feBlend mode="normal" in2="BackgroundImageFix" result="effect1_dropShadow"/>
<feBlend mode="normal" in="SourceGraphic" in2="effect1_dropShadow" result="shape"/>
</filter>
<linearGradient id="paint0_linear" x1="147.034" y1="102.291" x2="170.865" y2="162.583" gradientUnits="userSpaceOnUse">
<stop stop-color="#4AB272"/>
<stop offset="1" stop-color="#077565"/>
</linearGradient>
<linearGradient id="paint1_linear" x1="155.085" y1="121.302" x2="109.255" y2="22.717" gradientUnits="userSpaceOnUse">
<stop stop-color="#92F37F" stop-opacity="0"/>
<stop offset="1" stop-color="#FFEE83"/>
</linearGradient>
<linearGradient id="paint2_linear" x1="148.557" y1="104.663" x2="161.831" y2="144.927" gradientUnits="userSpaceOnUse">
<stop stop-color="#92F37F"/>
<stop offset="1" stop-color="#4AB272"/>
</linearGradient>
<linearGradient id="paint3_linear" x1="163.958" y1="121.688" x2="115.085" y2="89.9211" gradientUnits="userSpaceOnUse">
<stop stop-color="#92F37F"/>
<stop offset="1" stop-color="#4AB272"/>
</linearGradient>
<linearGradient id="paint4_linear" x1="162.954" y1="121.937" x2="128.598" y2="106.729" gradientUnits="userSpaceOnUse">
<stop stop-color="#4AB272" stop-opacity="0"/>
<stop offset="1" stop-color="#009245"/>
</linearGradient>
<linearGradient id="paint5_linear" x1="149.957" y1="112.199" x2="163.264" y2="121.162" gradientUnits="userSpaceOnUse">
<stop stop-color="#4AB272"/>
<stop offset="1" stop-color="#077565"/>
</linearGradient>
<linearGradient id="paint6_linear" x1="147.376" y1="117.396" x2="123.043" y2="75.9516" gradientUnits="userSpaceOnUse">
<stop stop-color="#4AB272" stop-opacity="0"/>
<stop offset="1" stop-color="#009245"/>
</linearGradient>
<linearGradient id="paint7_linear" x1="119.256" y1="92.8096" x2="138.415" y2="106.635" gradientUnits="userSpaceOnUse">
<stop stop-color="#FFDA45"/>
<stop offset="1" stop-color="#FFA425"/>
</linearGradient>
<linearGradient id="paint8_linear" x1="129.261" y1="98.1218" x2="107.469" y2="87.8736" gradientUnits="userSpaceOnUse">
<stop stop-color="#FFDA45" stop-opacity="0"/>
<stop offset="1" stop-color="#FFEE83"/>
</linearGradient>
<linearGradient id="paint9_linear" x1="131.717" y1="92.5011" x2="111.381" y2="122.813" gradientUnits="userSpaceOnUse">
<stop stop-color="#FFDA45" stop-opacity="0"/>
<stop offset="1" stop-color="#B53759"/>
</linearGradient>
<clipPath id="clip0">
<rect width="85" height="85" fill="white" transform="translate(109 65.6263)"/>
</clipPath>
</defs>
</svg>
