<svg width="440" height="461" viewBox="0 0 440 461" fill="none" xmlns="http://www.w3.org/2000/svg">
<g filter="url(#filter0_d)">
<rect x="23" y="23" width="380" height="401" fill="#FBFBFB"/>
<path d="M99.1227 320.76C100.003 320.08 100.523 319.12 100.523 317.86C100.523 315.3 98.4827 313.72 95.7027 313.72C93.1027 313.72 91.6027 315.02 90.7427 316.74L93.4827 318.32C93.8427 317.46 94.4627 316.72 95.7027 316.72C96.8427 316.72 97.3227 317.24 97.3227 318.1C97.3227 318.96 96.6827 319.48 95.4227 319.48H94.0427V322.32H95.8227C97.1627 322.32 97.8227 322.88 97.8227 323.8C97.8227 324.72 97.1827 325.28 95.8427 325.28C94.3427 325.28 93.6427 324.46 93.2827 323.38L90.5227 324.96C91.3427 326.94 92.9627 328.28 95.8427 328.28C98.7827 328.28 101.023 326.66 101.023 324.04C101.023 322.54 100.303 321.42 99.1227 320.76ZM109.774 318V318.94C109.114 318.18 108.134 317.72 106.794 317.72C104.174 317.72 102.014 320.02 102.014 323C102.014 325.98 104.174 328.28 106.794 328.28C108.134 328.28 109.114 327.82 109.774 327.06V328H112.774V318H109.774ZM107.394 325.44C106.014 325.44 105.014 324.5 105.014 323C105.014 321.5 106.014 320.56 107.394 320.56C108.774 320.56 109.774 321.5 109.774 323C109.774 324.5 108.774 325.44 107.394 325.44ZM120.955 317.72C119.615 317.72 118.635 318.18 117.975 318.94V318H114.975V332H117.975V327.06C118.635 327.82 119.615 328.28 120.955 328.28C123.575 328.28 125.735 325.98 125.735 323C125.735 320.02 123.575 317.72 120.955 317.72ZM120.355 325.44C118.975 325.44 117.975 324.5 117.975 323C117.975 321.5 118.975 320.56 120.355 320.56C121.735 320.56 122.735 321.5 122.735 323C122.735 324.5 121.735 325.44 120.355 325.44ZM134.696 318V318.94C134.036 318.18 133.056 317.72 131.716 317.72C129.096 317.72 126.936 320.02 126.936 323C126.936 325.98 129.096 328.28 131.716 328.28C133.056 328.28 134.036 327.82 134.696 327.06V328H137.696V318H134.696ZM132.316 325.44C130.936 325.44 129.936 324.5 129.936 323C129.936 321.5 130.936 320.56 132.316 320.56C133.696 320.56 134.696 321.5 134.696 323C134.696 324.5 133.696 325.44 132.316 325.44ZM144.737 328.28C147.877 328.28 149.837 326.3 149.837 323.6C149.837 320.76 147.537 319.24 145.697 319.24C144.657 319.24 143.677 319.54 142.957 320.18C143.237 319.48 143.757 318.9 145.537 318.24C147.657 317.44 148.897 316.7 149.297 315.02L146.817 313.6C146.237 315.02 145.357 315.28 143.217 316.34C140.017 317.92 139.397 319.62 139.397 322.84C139.397 325.92 141.417 328.28 144.737 328.28ZM144.717 325.58C143.497 325.58 142.537 324.74 142.537 323.52C142.537 322.28 143.617 321.58 144.657 321.58C145.917 321.58 146.837 322.44 146.837 323.6C146.837 324.74 145.957 325.58 144.717 325.58ZM158.505 318V318.94C157.845 318.18 156.865 317.72 155.525 317.72C152.905 317.72 150.745 320.02 150.745 323C150.745 325.98 152.905 328.28 155.525 328.28C156.865 328.28 157.845 327.82 158.505 327.06V328H161.505V318H158.505ZM156.125 325.44C154.745 325.44 153.745 324.5 153.745 323C153.745 321.5 154.745 320.56 156.125 320.56C157.505 320.56 158.505 321.5 158.505 323C158.505 324.5 157.505 325.44 156.125 325.44ZM171.805 318H162.805V320.88H165.825V328H168.825V320.88H171.805V318ZM177.78 321H176.1V318H173.1V328H177.78C180.2 328 181.7 326.6 181.7 324.5C181.7 322.4 180.2 321 177.78 321ZM182.7 318V328H185.7V318H182.7ZM177.8 325.4H176.1V323.6H177.8C178.4 323.6 178.78 323.98 178.78 324.5C178.78 325.02 178.4 325.4 177.8 325.4ZM195.365 322.88C195.985 322.42 196.305 321.72 196.305 320.86C196.305 319.2 195.125 318 192.905 318H187.905V328H193.305C195.525 328 196.705 326.8 196.705 325.14C196.705 324.12 196.225 323.34 195.365 322.88ZM192.585 320.4C193.125 320.4 193.465 320.62 193.465 321.12C193.465 321.6 193.125 321.8 192.585 321.8H190.705V320.4H192.585ZM192.905 325.52H190.705V324.08H192.905C193.425 324.08 193.785 324.3 193.785 324.78C193.785 325.28 193.425 325.52 192.905 325.52ZM205.458 318V318.94C204.798 318.18 203.818 317.72 202.478 317.72C199.858 317.72 197.698 320.02 197.698 323C197.698 325.98 199.858 328.28 202.478 328.28C203.818 328.28 204.798 327.82 205.458 327.06V328H208.458V318H205.458ZM203.078 325.44C201.698 325.44 200.698 324.5 200.698 323C200.698 321.5 201.698 320.56 203.078 320.56C204.458 320.56 205.458 321.5 205.458 323C205.458 324.5 204.458 325.44 203.078 325.44ZM218.759 318H209.759V320.88H212.779V328H215.779V320.88H218.759V318ZM224.733 321H223.053V318H220.053V328H224.733C227.153 328 228.653 326.6 228.653 324.5C228.653 322.4 227.153 321 224.733 321ZM224.753 325.4H223.053V323.6H224.753C225.353 323.6 225.733 323.98 225.733 324.5C225.733 325.02 225.353 325.4 224.753 325.4ZM239.951 328.28C242.891 328.28 245.251 325.98 245.251 323C245.251 320.02 242.891 317.72 239.951 317.72C237.011 317.72 234.651 320.02 234.651 323C234.651 325.98 237.011 328.28 239.951 328.28ZM239.951 325.36C238.651 325.36 237.651 324.42 237.651 323C237.651 321.58 238.651 320.64 239.951 320.64C241.251 320.64 242.251 321.58 242.251 323C242.251 324.42 241.251 325.36 239.951 325.36ZM254.657 318H245.657V320.88H248.677V328H251.677V320.88H254.657V318ZM263.712 314L260.052 315.32L260.832 318.06L263.312 317.38V328H266.512V314H263.712ZM268.358 328H277.878V324.92H273.178L275.498 322.58C276.778 321.3 277.678 319.86 277.678 318.18C277.678 315.36 275.438 313.72 272.938 313.72C270.998 313.72 269.118 314.7 268.218 316.78L270.918 318.36C271.298 317.48 271.998 316.84 272.978 316.84C273.918 316.84 274.478 317.44 274.478 318.32C274.478 319.14 273.878 319.96 273.058 320.8L268.358 325.68V328ZM284.687 328.28C288.307 328.28 290.387 325.32 290.387 321C290.387 316.68 288.307 313.72 284.687 313.72C281.067 313.72 278.987 316.68 278.987 321C278.987 325.32 281.067 328.28 284.687 328.28ZM284.687 325.16C283.007 325.16 282.187 323.7 282.187 321C282.187 318.3 283.007 316.84 284.687 316.84C286.367 316.84 287.187 318.3 287.187 321C287.187 323.7 286.367 325.16 284.687 325.16ZM302.284 328.28C305.904 328.28 307.984 325.32 307.984 321C307.984 316.68 305.904 313.72 302.284 313.72C298.664 313.72 296.584 316.68 296.584 321C296.584 325.32 298.664 328.28 302.284 328.28ZM302.284 325.16C300.604 325.16 299.784 323.7 299.784 321C299.784 318.3 300.604 316.84 302.284 316.84C303.964 316.84 304.784 318.3 304.784 321C304.784 323.7 303.964 325.16 302.284 325.16ZM314.882 328.28C318.502 328.28 320.582 325.32 320.582 321C320.582 316.68 318.502 313.72 314.882 313.72C311.262 313.72 309.182 316.68 309.182 321C309.182 325.32 311.262 328.28 314.882 328.28ZM314.882 325.16C313.202 325.16 312.382 323.7 312.382 321C312.382 318.3 313.202 316.84 314.882 316.84C316.562 316.84 317.382 318.3 317.382 321C317.382 323.7 316.562 325.16 314.882 325.16ZM327.48 328.28C331.1 328.28 333.18 325.32 333.18 321C333.18 316.68 331.1 313.72 327.48 313.72C323.86 313.72 321.78 316.68 321.78 321C321.78 325.32 323.86 328.28 327.48 328.28ZM327.48 325.16C325.8 325.16 324.98 323.7 324.98 321C324.98 318.3 325.8 316.84 327.48 316.84C329.16 316.84 329.98 318.3 329.98 321C329.98 323.7 329.16 325.16 327.48 325.16ZM148.943 342.72C147.603 342.72 146.623 343.18 145.963 343.94V343H142.963V357H145.963V352.06C146.623 352.82 147.603 353.28 148.943 353.28C151.563 353.28 153.723 350.98 153.723 348C153.723 345.02 151.563 342.72 148.943 342.72ZM148.343 350.44C146.963 350.44 145.963 349.5 145.963 348C145.963 346.5 146.963 345.56 148.343 345.56C149.723 345.56 150.723 346.5 150.723 348C150.723 349.5 149.723 350.44 148.343 350.44ZM161.334 343L159.454 349.14L157.134 343H153.934L157.854 352.82C157.394 353.88 156.754 354.2 155.414 354.2V357C158.014 357.14 159.994 355.88 161.114 352.7L164.534 343H161.334ZM170.088 353.28C173.228 353.28 175.188 351.3 175.188 348.6C175.188 345.76 172.888 344.24 171.048 344.24C170.008 344.24 169.028 344.54 168.308 345.18C168.588 344.48 169.108 343.9 170.888 343.24C173.008 342.44 174.248 341.7 174.648 340.02L172.168 338.6C171.588 340.02 170.708 340.28 168.568 341.34C165.368 342.92 164.748 344.62 164.748 347.84C164.748 350.92 166.768 353.28 170.088 353.28ZM170.068 350.58C168.848 350.58 167.888 349.74 167.888 348.52C167.888 347.28 168.968 346.58 170.008 346.58C171.268 346.58 172.188 347.44 172.188 348.6C172.188 349.74 171.308 350.58 170.068 350.58ZM185.101 343H176.941V348.66C176.941 349.9 176.441 350.48 175.501 350.2V353C178.421 353.34 179.941 351.88 179.941 348.86V345.88H182.101V353H185.101V343ZM189.979 349.2H197.079C197.159 348.82 197.199 348.42 197.199 348C197.199 344.98 195.039 342.72 192.119 342.72C188.959 342.72 186.799 345.02 186.799 348C186.799 350.98 188.919 353.28 192.339 353.28C194.239 353.28 195.719 352.58 196.699 351.22L194.299 349.84C193.899 350.28 193.199 350.6 192.379 350.6C191.279 350.6 190.359 350.24 189.979 349.2ZM189.919 346.96C190.199 345.94 190.959 345.38 192.099 345.38C192.999 345.38 193.899 345.8 194.219 346.96H189.919ZM200.601 341.82H206.601V339.22H200.601V341.82ZM206.101 343L201.821 348V343H198.901V353H201.101L205.381 348V353H208.301V343H206.101ZM222.962 347.88C223.582 347.42 223.902 346.72 223.902 345.86C223.902 344.2 222.722 343 220.502 343H215.502V353H220.902C223.122 353 224.302 351.8 224.302 350.14C224.302 349.12 223.822 348.34 222.962 347.88ZM220.182 345.4C220.722 345.4 221.062 345.62 221.062 346.12C221.062 346.6 220.722 346.8 220.182 346.8H218.302V345.4H220.182ZM220.502 350.52H218.302V349.08H220.502C221.022 349.08 221.382 349.3 221.382 349.78C221.382 350.28 221.022 350.52 220.502 350.52ZM241.395 343H238.515L236.095 346.78L233.675 343H230.795V353H233.675V347.84L235.915 351.32H236.275L238.515 347.84V353H241.395V343ZM246.268 349.2H253.368C253.448 348.82 253.488 348.42 253.488 348C253.488 344.98 251.328 342.72 248.408 342.72C245.248 342.72 243.088 345.02 243.088 348C243.088 350.98 245.208 353.28 248.628 353.28C250.528 353.28 252.008 352.58 252.988 351.22L250.588 349.84C250.188 350.28 249.488 350.6 248.668 350.6C247.568 350.6 246.648 350.24 246.268 349.2ZM246.208 346.96C246.488 345.94 247.248 345.38 248.388 345.38C249.288 345.38 250.188 345.8 250.508 346.96H246.208ZM259.892 353.28C261.852 353.28 263.552 352.26 264.412 350.7L261.792 349.2C261.472 349.9 260.732 350.32 259.852 350.32C258.552 350.32 257.592 349.38 257.592 348C257.592 346.62 258.552 345.68 259.852 345.68C260.732 345.68 261.452 346.1 261.792 346.8L264.412 345.28C263.552 343.74 261.832 342.72 259.892 342.72C256.852 342.72 254.592 345.02 254.592 348C254.592 350.98 256.852 353.28 259.892 353.28ZM273.822 343H268.942C266.522 343 265.222 344.8 265.222 346.56C265.222 347.8 265.922 349.08 267.162 349.7L264.822 353H268.222L270.282 350.12H270.902V353H273.822V343ZM269.202 345.64H270.902V347.64H269.202C268.562 347.64 268.142 347.28 268.142 346.66C268.142 346.02 268.562 345.64 269.202 345.64ZM285.03 350.2V343H282.03V350.2H279.03V343H276.03V353H283.81V355.68H286.73V350.2H285.03Z" fill="#3A3A3A"/>
<path d="M106.649 228.14C107.969 227.12 108.749 225.68 108.749 223.79C108.749 219.95 105.689 217.58 101.519 217.58C97.6188 217.58 95.3688 219.53 94.0788 222.11L98.1888 224.48C98.7288 223.19 99.6588 222.08 101.519 222.08C103.229 222.08 103.949 222.86 103.949 224.15C103.949 225.44 102.989 226.22 101.099 226.22H99.0288V230.48H101.699C103.709 230.48 104.699 231.32 104.699 232.7C104.699 234.08 103.739 234.92 101.729 234.92C99.4788 234.92 98.4288 233.69 97.8888 232.07L93.7488 234.44C94.9788 237.41 97.4088 239.42 101.729 239.42C106.139 239.42 109.499 236.99 109.499 233.06C109.499 230.81 108.419 229.13 106.649 228.14ZM122.626 224V225.41C121.636 224.27 120.166 223.58 118.156 223.58C114.226 223.58 110.986 227.03 110.986 231.5C110.986 235.97 114.226 239.42 118.156 239.42C120.166 239.42 121.636 238.73 122.626 237.59V239H127.126V224H122.626ZM119.056 235.16C116.986 235.16 115.486 233.75 115.486 231.5C115.486 229.25 116.986 227.84 119.056 227.84C121.126 227.84 122.626 229.25 122.626 231.5C122.626 233.75 121.126 235.16 119.056 235.16ZM139.397 223.58C137.387 223.58 135.917 224.27 134.927 225.41V224H130.427V245H134.927V237.59C135.917 238.73 137.387 239.42 139.397 239.42C143.327 239.42 146.567 235.97 146.567 231.5C146.567 227.03 143.327 223.58 139.397 223.58ZM138.497 235.16C136.427 235.16 134.927 233.75 134.927 231.5C134.927 229.25 136.427 227.84 138.497 227.84C140.567 227.84 142.067 229.25 142.067 231.5C142.067 233.75 140.567 235.16 138.497 235.16ZM160.009 224V225.41C159.019 224.27 157.549 223.58 155.539 223.58C151.609 223.58 148.369 227.03 148.369 231.5C148.369 235.97 151.609 239.42 155.539 239.42C157.549 239.42 159.019 238.73 160.009 237.59V239H164.509V224H160.009ZM156.439 235.16C154.369 235.16 152.869 233.75 152.869 231.5C152.869 229.25 154.369 227.84 156.439 227.84C158.509 227.84 160.009 229.25 160.009 231.5C160.009 233.75 158.509 235.16 156.439 235.16ZM175.07 239.42C179.78 239.42 182.72 236.45 182.72 232.4C182.72 228.14 179.27 225.86 176.51 225.86C174.95 225.86 173.48 226.31 172.4 227.27C172.82 226.22 173.6 225.35 176.27 224.36C179.45 223.16 181.31 222.05 181.91 219.53L178.19 217.4C177.32 219.53 176 219.92 172.79 221.51C167.99 223.88 167.06 226.43 167.06 231.26C167.06 235.88 170.09 239.42 175.07 239.42ZM175.04 235.37C173.21 235.37 171.77 234.11 171.77 232.28C171.77 230.42 173.39 229.37 174.95 229.37C176.84 229.37 178.22 230.66 178.22 232.4C178.22 234.11 176.9 235.37 175.04 235.37ZM192.032 239.42C196.442 239.42 199.982 235.97 199.982 231.5C199.982 227.03 196.442 223.58 192.032 223.58C187.622 223.58 184.082 227.03 184.082 231.5C184.082 235.97 187.622 239.42 192.032 239.42ZM192.032 235.04C190.082 235.04 188.582 233.63 188.582 231.5C188.582 229.37 190.082 227.96 192.032 227.96C193.982 227.96 195.482 229.37 195.482 231.5C195.482 233.63 193.982 235.04 192.032 235.04ZM214.091 224H200.591V228.32H205.121V239H209.621V228.32H214.091V224ZM226.337 224V225.41C225.347 224.27 223.877 223.58 221.867 223.58C217.937 223.58 214.697 227.03 214.697 231.5C214.697 235.97 217.937 239.42 221.867 239.42C223.877 239.42 225.347 238.73 226.337 237.59V239H230.837V224H226.337ZM222.767 235.16C220.697 235.16 219.197 233.75 219.197 231.5C219.197 229.25 220.697 227.84 222.767 227.84C224.837 227.84 226.337 229.25 226.337 231.5C226.337 233.75 224.837 235.16 222.767 235.16ZM246.288 224H232.788V228.32H237.318V239H241.818V228.32H246.288V224ZM255.25 228.5H252.73V224H248.23V239H255.25C258.88 239 261.13 236.9 261.13 233.75C261.13 230.6 258.88 228.5 255.25 228.5ZM255.28 235.1H252.73V232.4H255.28C256.18 232.4 256.75 232.97 256.75 233.75C256.75 234.53 256.18 235.1 255.28 235.1ZM278.077 239.42C281.017 239.42 283.567 237.89 284.857 235.55L280.927 233.3C280.447 234.35 279.337 234.98 278.017 234.98C276.067 234.98 274.627 233.57 274.627 231.5C274.627 229.43 276.067 228.02 278.017 228.02C279.337 228.02 280.417 228.65 280.927 229.7L284.857 227.42C283.567 225.11 280.987 223.58 278.077 223.58C273.517 223.58 270.127 227.03 270.127 231.5C270.127 235.97 273.517 239.42 278.077 239.42ZM298.004 231.32C298.934 230.63 299.414 229.58 299.414 228.29C299.414 225.8 297.644 224 294.314 224H286.814V239H294.914C298.244 239 300.014 237.2 300.014 234.71C300.014 233.18 299.294 232.01 298.004 231.32ZM293.834 227.6C294.644 227.6 295.154 227.93 295.154 228.68C295.154 229.4 294.644 229.7 293.834 229.7H291.014V227.6H293.834ZM294.314 235.28H291.014V233.12H294.314C295.094 233.12 295.634 233.45 295.634 234.17C295.634 234.92 295.094 235.28 294.314 235.28ZM309.454 239.42C313.864 239.42 317.404 235.97 317.404 231.5C317.404 227.03 313.864 223.58 309.454 223.58C305.044 223.58 301.504 227.03 301.504 231.5C301.504 235.97 305.044 239.42 309.454 239.42ZM309.454 235.04C307.504 235.04 306.004 233.63 306.004 231.5C306.004 229.37 307.504 227.96 309.454 227.96C311.404 227.96 312.904 229.37 312.904 231.5C312.904 233.63 311.404 235.04 309.454 235.04ZM330.749 224L324.329 231.5V224H319.949V239H323.249L329.669 231.5V239H334.049V224H330.749ZM123.624 261H109.524V276H114.024V265.2H119.124V276H123.624V261ZM130.946 270.3H141.596C141.716 269.73 141.776 269.13 141.776 268.5C141.776 263.97 138.536 260.58 134.156 260.58C129.416 260.58 126.176 264.03 126.176 268.5C126.176 272.97 129.356 276.42 134.486 276.42C137.336 276.42 139.556 275.37 141.026 273.33L137.426 271.26C136.826 271.92 135.776 272.4 134.546 272.4C132.896 272.4 131.516 271.86 130.946 270.3ZM130.856 266.94C131.276 265.41 132.416 264.57 134.126 264.57C135.476 264.57 136.826 265.2 137.306 266.94H130.856ZM153.299 260.58C151.289 260.58 149.819 261.27 148.829 262.41V261H144.329V282H148.829V274.59C149.819 275.73 151.289 276.42 153.299 276.42C157.229 276.42 160.469 272.97 160.469 268.5C160.469 264.03 157.229 260.58 153.299 260.58ZM152.399 272.16C150.329 272.16 148.829 270.75 148.829 268.5C148.829 266.25 150.329 264.84 152.399 264.84C154.469 264.84 155.969 266.25 155.969 268.5C155.969 270.75 154.469 272.16 152.399 272.16ZM174.21 268.32C175.14 267.63 175.62 266.58 175.62 265.29C175.62 262.8 173.85 261 170.52 261H163.02V276H171.12C174.45 276 176.22 274.2 176.22 271.71C176.22 270.18 175.5 269.01 174.21 268.32ZM170.04 264.6C170.85 264.6 171.36 264.93 171.36 265.68C171.36 266.4 170.85 266.7 170.04 266.7H167.22V264.6H170.04ZM170.52 272.28H167.22V270.12H170.52C171.3 270.12 171.84 270.45 171.84 271.17C171.84 271.92 171.3 272.28 170.52 272.28ZM185.48 265.5H182.96V261H178.46V276H185.48C189.11 276 191.36 273.9 191.36 270.75C191.36 267.6 189.11 265.5 185.48 265.5ZM192.86 261V276H197.36V261H192.86ZM185.51 272.1H182.96V269.4H185.51C186.41 269.4 186.98 269.97 186.98 270.75C186.98 271.53 186.41 272.1 185.51 272.1ZM204.687 270.3H215.337C215.457 269.73 215.517 269.13 215.517 268.5C215.517 263.97 212.277 260.58 207.897 260.58C203.157 260.58 199.917 264.03 199.917 268.5C199.917 272.97 203.097 276.42 208.227 276.42C211.077 276.42 213.297 275.37 214.767 273.33L211.167 271.26C210.567 271.92 209.517 272.4 208.287 272.4C206.637 272.4 205.257 271.86 204.687 270.3ZM204.597 266.94C205.017 265.41 206.157 264.57 207.867 264.57C209.217 264.57 210.567 265.2 211.047 266.94H204.597ZM239.369 271.8V261H227.279V266.61C227.279 269.19 226.829 270.63 226.079 271.8H224.219V280.02H228.599V276H236.939V280.02H241.319V271.8H239.369ZM230.789 271.8C231.359 270.45 231.659 268.8 231.659 266.61V265.02H234.989V271.8H230.789ZM246.991 270.3H257.641C257.761 269.73 257.821 269.13 257.821 268.5C257.821 263.97 254.581 260.58 250.201 260.58C245.461 260.58 242.221 264.03 242.221 268.5C242.221 272.97 245.401 276.42 250.531 276.42C253.381 276.42 255.601 275.37 257.071 273.33L253.471 271.26C252.871 271.92 251.821 272.4 250.591 272.4C248.941 272.4 247.561 271.86 246.991 270.3ZM246.901 266.94C247.321 265.41 248.461 264.57 250.171 264.57C251.521 264.57 252.871 265.2 253.351 266.94H246.901ZM269.974 261V266.4H264.874V261H260.374V276H264.874V270.6H269.974V276H274.474V261H269.974ZM284.796 265.5H282.276V261H277.776V276H284.796C288.426 276 290.676 273.9 290.676 270.75C290.676 267.6 288.426 265.5 284.796 265.5ZM284.826 272.1H282.276V269.4H284.826C285.726 269.4 286.296 269.97 286.296 270.75C286.296 271.53 285.726 272.1 284.826 272.1ZM303.422 261H292.922V276H297.422V265.32H303.422V261ZM316.174 261L309.754 268.5V261H305.374V276H308.674L315.094 268.5V276H319.474V261H316.174Z" fill="#3030C1"/>
<g clip-path="url(#clip0)">
<path d="M266.809 166.431H158.191C156.429 166.431 155 165.003 155 163.24V106.546C155 104.783 156.429 103.355 158.191 103.355H266.809C268.571 103.355 270 104.783 270 106.546V163.24C270 165.003 268.571 166.431 266.809 166.431Z" fill="url(#paint0_linear)"/>
<path d="M264.448 164.245H160.552C158.89 164.245 157.543 162.897 157.543 161.235V108.551C157.543 106.889 158.89 105.542 160.552 105.542H264.448C266.11 105.542 267.457 106.889 267.457 108.551V161.235C267.457 162.897 266.11 164.245 264.448 164.245Z" fill="url(#paint1_linear)"/>
<path d="M260.355 122.645C255.028 122.645 250.71 118.327 250.71 113C250.71 112.781 250.717 112.564 250.732 112.349C250.802 111.317 249.987 110.441 248.952 110.441H176.048C175.014 110.441 174.198 111.317 174.268 112.349C174.283 112.564 174.29 112.781 174.29 113C174.29 118.327 169.972 122.645 164.645 122.645C164.639 122.645 164.632 122.645 164.626 122.645C163.626 122.643 162.804 123.431 162.804 124.431V145.355C162.804 146.356 163.626 147.143 164.626 147.141H164.645C169.972 147.141 174.29 151.459 174.29 156.786C174.29 157.005 174.283 157.222 174.268 157.437C174.198 158.47 175.014 159.345 176.048 159.345H248.951C249.986 159.345 250.801 158.47 250.731 157.437C250.717 157.222 250.709 157.005 250.709 156.786C250.709 151.459 255.028 147.141 260.354 147.141H260.373C261.374 147.143 262.195 146.356 262.195 145.355V124.431C262.195 123.431 261.374 122.643 260.373 122.645C260.367 122.645 260.361 122.645 260.355 122.645Z" fill="url(#paint2_linear)"/>
<path d="M212.5 156.865C224.635 156.865 234.472 147.028 234.472 134.893C234.472 122.758 224.635 112.921 212.5 112.921C200.365 112.921 190.528 122.758 190.528 134.893C190.528 147.028 200.365 156.865 212.5 156.865Z" fill="url(#paint3_linear)"/>
<path d="M221.127 121.628C220.793 121.105 220.146 120.67 219.183 120.323C218.145 119.951 217.039 119.698 215.867 119.559C215.804 119.519 215.741 119.484 215.676 119.454L213.94 117.594C213.667 117.394 213.374 117.293 213.059 117.293C212.715 117.293 212.421 117.394 212.178 117.594C211.934 117.795 211.812 118.024 211.812 118.282V119.528C209.492 119.786 207.55 120.559 205.989 121.849C204.427 123.138 203.646 125.028 203.646 127.517C203.646 128.403 203.746 129.211 203.947 129.94C204.147 130.67 204.477 131.306 204.935 131.849C205.393 132.392 205.83 132.857 206.246 133.243C206.249 133.246 206.253 133.248 206.256 133.251C206.256 133.251 211.66 138.656 211.663 138.658C211.713 138.712 211.762 138.762 211.812 138.814V146.003C210.542 145.917 209.424 145.589 208.457 145.017C207.49 144.445 206.73 143.909 206.177 143.408C205.623 142.908 205.177 142.657 204.837 142.657C204.324 142.657 203.869 142.929 203.47 143.473C203.071 144.016 202.872 144.559 202.872 145.102C202.872 145.971 203.362 146.827 204.34 147.671L223.101 166.431H265.931L221.127 121.628Z" fill="url(#paint4_linear)"/>
<path d="M202.873 145.102C202.873 144.559 203.071 144.016 203.47 143.473C203.869 142.929 204.324 142.657 204.838 142.657C205.177 142.657 205.624 142.908 206.177 143.408C206.731 143.909 207.49 144.445 208.457 145.017C209.424 145.589 210.542 145.917 211.812 146.003V135.924C210.953 135.61 210.293 135.359 209.835 135.173C209.376 134.988 208.767 134.716 208.009 134.359C207.249 134.001 206.661 133.629 206.246 133.243C205.831 132.857 205.394 132.392 204.936 131.849C204.477 131.306 204.147 130.67 203.947 129.941C203.746 129.211 203.646 128.403 203.646 127.517C203.646 125.028 204.427 123.138 205.989 121.849C207.55 120.56 209.491 119.786 211.812 119.528V118.282C211.812 118.024 211.934 117.795 212.178 117.594C212.421 117.394 212.715 117.293 213.059 117.293C213.374 117.293 213.667 117.394 213.94 117.594C214.212 117.795 214.348 118.024 214.348 118.282V119.442C216.095 119.5 217.707 119.793 219.183 120.323C220.659 120.854 221.397 121.591 221.397 122.537C221.397 123.052 221.223 123.59 220.876 124.148C220.53 124.707 220.067 124.986 219.49 124.986C219.261 124.986 218.633 124.743 217.607 124.256C216.58 123.769 215.494 123.482 214.348 123.396V132.106C215.488 132.535 216.435 132.943 217.19 133.329C217.945 133.715 218.744 134.251 219.584 134.938C220.425 135.624 221.059 136.489 221.486 137.532C221.913 138.576 222.127 139.799 222.127 141.2C222.127 143.76 221.429 145.794 220.033 147.304C218.636 148.814 216.741 149.741 214.348 150.086V151.522C214.348 151.775 214.212 152 213.94 152.198C213.667 152.394 213.374 152.493 213.059 152.493C212.715 152.493 212.421 152.394 212.178 152.198C211.934 152 211.812 151.776 211.812 151.522V150.215C209.32 150.186 207.206 149.616 205.473 148.504C203.739 147.392 202.873 146.258 202.873 145.102ZM207.901 127.088C207.901 128.204 208.248 129.055 208.944 129.64C209.638 130.226 210.68 130.777 212.07 131.291V123.478C209.291 123.822 207.901 125.025 207.901 127.088ZM214.09 145.917C216.611 145.46 217.872 144.044 217.872 141.671C217.872 140.413 217.542 139.427 216.884 138.712C216.224 137.997 215.294 137.382 214.09 136.867V145.917Z" fill="url(#paint5_linear)"/>
<path d="M179.113 137.304H167.569C167.065 137.304 166.657 136.896 166.657 136.393V133.393C166.657 132.89 167.065 132.482 167.569 132.482H179.113C179.617 132.482 180.024 132.89 180.024 133.393V136.393C180.024 136.896 179.617 137.304 179.113 137.304Z" fill="#4AB272"/>
<path d="M185.662 137.304H183.672C183.168 137.304 182.76 136.896 182.76 136.393V133.393C182.76 132.89 183.168 132.482 183.672 132.482H185.662C186.165 132.482 186.573 132.89 186.573 133.393V136.393C186.573 136.896 186.165 137.304 185.662 137.304Z" fill="#4AB272"/>
<path d="M246.552 137.304H239.338C238.835 137.304 238.427 136.896 238.427 136.393V133.393C238.427 132.89 238.835 132.482 239.338 132.482H246.552C247.056 132.482 247.464 132.89 247.464 133.393V136.393C247.464 136.896 247.056 137.304 246.552 137.304Z" fill="#4AB272"/>
<path d="M257.431 137.304H251.03C250.526 137.304 250.118 136.896 250.118 136.393V133.393C250.118 132.89 250.526 132.482 251.03 132.482H257.431C257.935 132.482 258.343 132.89 258.343 133.393V136.393C258.343 136.896 257.934 137.304 257.431 137.304Z" fill="#4AB272"/>
<path d="M194.041 103.355H161.84L161.109 104.086C159.458 105.737 160.138 108.355 162.018 109.216C162.328 109.876 165.877 113.451 166.525 113.774L166.524 129.94C166.524 130.19 166.564 130.385 166.638 130.537C166.812 130.894 191.974 155.658 202.93 166.431H257.118L194.041 103.355Z" fill="url(#paint6_linear)"/>
<path d="M189.352 112.673L189.35 129.938C189.35 131.204 188.324 131.061 187.058 131.061L168.816 131.063C167.55 131.063 166.524 131.206 166.524 129.94L166.526 112.675C166.526 110.923 165.105 109.502 163.353 109.502C160.526 109.503 159.111 106.085 161.11 104.086L175.697 89.4982C176.936 88.2589 178.945 88.2586 180.184 89.4977L194.769 104.082C196.768 106.081 195.351 109.499 192.525 109.499C190.772 109.5 189.352 110.92 189.352 112.673Z" fill="url(#paint7_linear)"/>
<path d="M169.105 128.482L169.106 112.674C169.106 109.502 166.526 106.921 163.353 106.921C163.09 106.921 162.906 106.798 162.806 106.556C162.705 106.313 162.748 106.096 162.934 105.91L177.521 91.3228C177.665 91.1793 177.828 91.1494 177.94 91.1494C178.052 91.1494 178.216 91.1793 178.359 91.3228L192.944 105.908C193.129 106.093 193.173 106.31 193.072 106.553C192.971 106.796 192.787 106.919 192.525 106.919C189.352 106.919 186.771 109.5 186.77 112.673L186.769 128.481L169.105 128.482Z" fill="url(#paint8_linear)"/>
<path d="M187.058 131.062C188.324 131.061 189.35 131.204 189.35 129.938L189.351 112.673C189.352 110.921 190.772 109.5 192.525 109.5C195.351 109.499 196.768 106.081 194.769 104.083L180.184 89.4979C179.565 88.8785 178.752 88.5687 177.94 88.5689L177.936 131.063L187.058 131.062Z" fill="url(#paint9_linear)"/>
</g>
</g>
<defs>
<filter id="filter0_d" x="0" y="0" width="440" height="461" filterUnits="userSpaceOnUse" color-interpolation-filters="sRGB">
<feFlood flood-opacity="0" result="BackgroundImageFix"/>
<feColorMatrix in="SourceAlpha" type="matrix" values="0 0 0 0 0 0 0 0 0 0 0 0 0 0 0 0 0 0 127 0"/>
<feOffset dx="7" dy="7"/>
<feGaussianBlur stdDeviation="15"/>
<feColorMatrix type="matrix" values="0 0 0 0 0 0 0 0 0 0 0 0 0 0 0 0 0 0 0.25 0"/>
<feBlend mode="normal" in2="BackgroundImageFix" result="effect1_dropShadow"/>
<feBlend mode="normal" in="SourceGraphic" in2="effect1_dropShadow" result="shape"/>
</filter>
<linearGradient id="paint0_linear" x1="206.457" y1="119.606" x2="238.7" y2="201.176" gradientUnits="userSpaceOnUse">
<stop stop-color="#4AB272"/>
<stop offset="1" stop-color="#077565"/>
</linearGradient>
<linearGradient id="paint1_linear" x1="217.35" y1="145.325" x2="155.345" y2="11.9462" gradientUnits="userSpaceOnUse">
<stop stop-color="#92F37F" stop-opacity="0"/>
<stop offset="1" stop-color="#FFEE83"/>
</linearGradient>
<linearGradient id="paint2_linear" x1="208.518" y1="122.814" x2="226.477" y2="177.289" gradientUnits="userSpaceOnUse">
<stop stop-color="#92F37F"/>
<stop offset="1" stop-color="#4AB272"/>
</linearGradient>
<linearGradient id="paint3_linear" x1="229.354" y1="145.848" x2="163.233" y2="102.87" gradientUnits="userSpaceOnUse">
<stop stop-color="#92F37F"/>
<stop offset="1" stop-color="#4AB272"/>
</linearGradient>
<linearGradient id="paint4_linear" x1="227.996" y1="146.186" x2="181.516" y2="125.609" gradientUnits="userSpaceOnUse">
<stop stop-color="#4AB272" stop-opacity="0"/>
<stop offset="1" stop-color="#009245"/>
</linearGradient>
<linearGradient id="paint5_linear" x1="210.412" y1="133.011" x2="228.416" y2="145.136" gradientUnits="userSpaceOnUse">
<stop stop-color="#4AB272"/>
<stop offset="1" stop-color="#077565"/>
</linearGradient>
<linearGradient id="paint6_linear" x1="206.921" y1="140.041" x2="173.999" y2="83.9696" gradientUnits="userSpaceOnUse">
<stop stop-color="#4AB272" stop-opacity="0"/>
<stop offset="1" stop-color="#009245"/>
</linearGradient>
<linearGradient id="paint7_linear" x1="168.876" y1="106.777" x2="194.797" y2="125.482" gradientUnits="userSpaceOnUse">
<stop stop-color="#FFDA45"/>
<stop offset="1" stop-color="#FFA425"/>
</linearGradient>
<linearGradient id="paint8_linear" x1="182.411" y1="113.964" x2="152.929" y2="100.099" gradientUnits="userSpaceOnUse">
<stop stop-color="#FFDA45" stop-opacity="0"/>
<stop offset="1" stop-color="#FFEE83"/>
</linearGradient>
<linearGradient id="paint9_linear" x1="185.734" y1="106.36" x2="158.221" y2="147.371" gradientUnits="userSpaceOnUse">
<stop stop-color="#FFDA45" stop-opacity="0"/>
<stop offset="1" stop-color="#B53759"/>
</linearGradient>
<clipPath id="clip0">
<rect width="115" height="115" fill="white" transform="translate(155 70)"/>
</clipPath>
</defs>
</svg>
