<svg width="312" height="334" viewBox="0 0 312 334" fill="none" xmlns="http://www.w3.org/2000/svg">
<g filter="url(#filter0_d)">
<rect x="23" y="23.3131" width="259" height="273.313" fill="#FBFBFB"/>
<path d="M56.9738 168L54.5138 174.12L51.7738 168H48.5738L53.0538 177.62C52.5138 178.6 51.7138 179.14 50.2538 179V182C52.8738 182.14 54.8938 180.9 56.1338 177.88L60.1738 168H56.9738ZM64.6793 182.28C66.6393 182.28 68.3393 181.26 69.1993 179.7L66.5793 178.2C66.2593 178.9 65.5193 179.32 64.6393 179.32C63.3393 179.32 62.3793 178.38 62.3793 177C62.3793 175.62 63.3393 174.68 64.6393 174.68C65.5193 174.68 66.2393 175.1 66.5793 175.8L69.1993 174.28C68.3393 172.74 66.6193 171.72 64.6793 171.72C61.6393 171.72 59.3793 174.02 59.3793 177C59.3793 179.98 61.6393 182.28 64.6793 182.28ZM78.5066 172H69.5066V174.88H72.5266V182H75.5266V174.88H78.5066V172ZM85.7812 171.72C84.4412 171.72 83.4612 172.18 82.8012 172.94V172H79.8012V186H82.8012V181.06C83.4612 181.82 84.4412 182.28 85.7812 182.28C88.4012 182.28 90.5612 179.98 90.5612 177C90.5612 174.02 88.4012 171.72 85.7812 171.72ZM85.1812 179.44C83.8012 179.44 82.8012 178.5 82.8012 177C82.8012 175.5 83.8012 174.56 85.1812 174.56C86.5612 174.56 87.5612 175.5 87.5612 177C87.5612 178.5 86.5612 179.44 85.1812 179.44ZM97.0621 182.28C100.002 182.28 102.362 179.98 102.362 177C102.362 174.02 100.002 171.72 97.0621 171.72C94.1221 171.72 91.7621 174.02 91.7621 177C91.7621 179.98 94.1221 182.28 97.0621 182.28ZM97.0621 179.36C95.7621 179.36 94.7621 178.42 94.7621 177C94.7621 175.58 95.7621 174.64 97.0621 174.64C98.3621 174.64 99.3621 175.58 99.3621 177C99.3621 178.42 98.3621 179.36 97.0621 179.36ZM111.259 172L106.979 177V172H104.059V182H106.259L110.539 177V182H113.459V172H111.259ZM123.761 172H114.761V174.88H117.781V182H120.781V174.88H123.761V172ZM129.735 175H128.055V172H125.055V182H129.735C132.155 182 133.655 180.6 133.655 178.5C133.655 176.4 132.155 175 129.735 175ZM129.755 179.4H128.055V177.6H129.755C130.355 177.6 130.735 177.98 130.735 178.5C130.735 179.02 130.355 179.4 129.755 179.4ZM139.855 182.28C141.815 182.28 143.515 181.26 144.375 179.7L141.755 178.2C141.435 178.9 140.695 179.32 139.815 179.32C138.515 179.32 137.555 178.38 137.555 177C137.555 175.62 138.515 174.68 139.815 174.68C140.695 174.68 141.415 175.1 141.755 175.8L144.375 174.28C143.515 172.74 141.795 171.72 139.855 171.72C136.815 171.72 134.555 174.02 134.555 177C134.555 179.98 136.815 182.28 139.855 182.28ZM153.785 172H148.905C146.485 172 145.185 173.8 145.185 175.56C145.185 176.8 145.885 178.08 147.125 178.7L144.785 182H148.185L150.245 179.12H150.865V182H153.785V172ZM149.165 174.64H150.865V176.64H149.165C148.525 176.64 148.105 176.28 148.105 175.66C148.105 175.02 148.525 174.64 149.165 174.64ZM167.393 172V175.6H163.993V172H160.993V182H163.993V178.4H167.393V182H170.393V172H167.393ZM179.854 172V172.94C179.194 172.18 178.214 171.72 176.874 171.72C174.254 171.72 172.094 174.02 172.094 177C172.094 179.98 174.254 182.28 176.874 182.28C178.214 182.28 179.194 181.82 179.854 181.06V182H182.854V172H179.854ZM177.474 179.44C176.094 179.44 175.094 178.5 175.094 177C175.094 175.5 176.094 174.56 177.474 174.56C178.854 174.56 179.854 175.5 179.854 177C179.854 178.5 178.854 179.44 177.474 179.44ZM196.035 171.72C194.695 171.72 193.715 172.18 193.055 172.94V172H190.055V186H193.055V181.06C193.715 181.82 194.695 182.28 196.035 182.28C198.655 182.28 200.815 179.98 200.815 177C200.815 174.02 198.655 171.72 196.035 171.72ZM195.435 179.44C194.055 179.44 193.055 178.5 193.055 177C193.055 175.5 194.055 174.56 195.435 174.56C196.815 174.56 197.815 175.5 197.815 177C197.815 178.5 196.815 179.44 195.435 179.44ZM209.776 172V172.94C209.116 172.18 208.136 171.72 206.796 171.72C204.176 171.72 202.016 174.02 202.016 177C202.016 179.98 204.176 182.28 206.796 182.28C208.136 182.28 209.116 181.82 209.776 181.06V182H212.776V172H209.776ZM207.396 179.44C206.016 179.44 205.016 178.5 205.016 177C205.016 175.5 206.016 174.56 207.396 174.56C208.776 174.56 209.776 175.5 209.776 177C209.776 178.5 208.776 179.44 207.396 179.44ZM219.817 182.28C222.957 182.28 224.917 180.3 224.917 177.6C224.917 174.76 222.617 173.24 220.777 173.24C219.737 173.24 218.757 173.54 218.037 174.18C218.317 173.48 218.837 172.9 220.617 172.24C222.737 171.44 223.977 170.7 224.377 169.02L221.897 167.6C221.317 169.02 220.437 169.28 218.297 170.34C215.097 171.92 214.477 173.62 214.477 176.84C214.477 179.92 216.497 182.28 219.817 182.28ZM219.797 179.58C218.577 179.58 217.617 178.74 217.617 177.52C217.617 176.28 218.697 175.58 219.737 175.58C220.997 175.58 221.917 176.44 221.917 177.6C221.917 178.74 221.037 179.58 219.797 179.58ZM231.125 182.28C234.065 182.28 236.425 179.98 236.425 177C236.425 174.02 234.065 171.72 231.125 171.72C228.185 171.72 225.825 174.02 225.825 177C225.825 179.98 228.185 182.28 231.125 182.28ZM231.125 179.36C229.825 179.36 228.825 178.42 228.825 177C228.825 175.58 229.825 174.64 231.125 174.64C232.425 174.64 233.425 175.58 233.425 177C233.425 178.42 232.425 179.36 231.125 179.36ZM245.831 172H236.831V174.88H239.851V182H242.851V174.88H245.831V172ZM253.621 172L251.741 178.14L249.421 172H246.221L250.141 181.82C249.681 182.88 249.041 183.2 247.701 183.2V186C250.301 186.14 252.281 184.88 253.401 181.7L256.821 172H253.621ZM98.1949 207.28C100.155 207.28 101.855 206.26 102.715 204.7L100.095 203.2C99.7749 203.9 99.0349 204.32 98.1549 204.32C96.8549 204.32 95.8949 203.38 95.8949 202C95.8949 200.62 96.8549 199.68 98.1549 199.68C99.0349 199.68 99.7549 200.1 100.095 200.8L102.715 199.28C101.855 197.74 100.135 196.72 98.1949 196.72C95.1549 196.72 92.8949 199.02 92.8949 202C92.8949 204.98 95.1549 207.28 98.1949 207.28ZM111.48 201.88C112.1 201.42 112.42 200.72 112.42 199.86C112.42 198.2 111.24 197 109.02 197H104.02V207H109.42C111.64 207 112.82 205.8 112.82 204.14C112.82 203.12 112.34 202.34 111.48 201.88ZM108.7 199.4C109.24 199.4 109.58 199.62 109.58 200.12C109.58 200.6 109.24 200.8 108.7 200.8H106.82V199.4H108.7ZM109.02 204.52H106.82V203.08H109.02C109.54 203.08 109.9 203.3 109.9 203.78C109.9 204.28 109.54 204.52 109.02 204.52ZM119.113 207.28C122.053 207.28 124.413 204.98 124.413 202C124.413 199.02 122.053 196.72 119.113 196.72C116.173 196.72 113.813 199.02 113.813 202C113.813 204.98 116.173 207.28 119.113 207.28ZM119.113 204.36C117.813 204.36 116.813 203.42 116.813 202C116.813 200.58 117.813 199.64 119.113 199.64C120.413 199.64 121.413 200.58 121.413 202C121.413 203.42 120.413 204.36 119.113 204.36ZM128.79 203.2H135.89C135.97 202.82 136.01 202.42 136.01 202C136.01 198.98 133.85 196.72 130.93 196.72C127.77 196.72 125.61 199.02 125.61 202C125.61 204.98 127.73 207.28 131.15 207.28C133.05 207.28 134.53 206.58 135.51 205.22L133.11 203.84C132.71 204.28 132.01 204.6 131.19 204.6C130.09 204.6 129.17 204.24 128.79 203.2ZM128.73 200.96C129.01 199.94 129.77 199.38 130.91 199.38C131.81 199.38 132.71 199.8 133.03 200.96H128.73ZM139.411 195.82H145.411V193.22H139.411V195.82ZM144.911 197L140.631 202V197H137.711V207H139.911L144.191 202V207H147.111V197H144.911ZM164.913 197H162.033L159.613 200.78L157.193 197H154.313V207H157.193V201.84L159.433 205.32H159.793L162.033 201.84V207H164.913V197ZM169.786 203.2H176.886C176.966 202.82 177.006 202.42 177.006 202C177.006 198.98 174.846 196.72 171.926 196.72C168.766 196.72 166.606 199.02 166.606 202C166.606 204.98 168.726 207.28 172.146 207.28C174.046 207.28 175.526 206.58 176.506 205.22L174.106 203.84C173.706 204.28 173.006 204.6 172.186 204.6C171.086 204.6 170.166 204.24 169.786 203.2ZM169.726 200.96C170.006 199.94 170.766 199.38 171.906 199.38C172.806 199.38 173.706 199.8 174.026 200.96H169.726ZM184.407 197V201.2C183.987 201.4 183.487 201.52 182.807 201.52C181.967 201.52 181.207 201.26 181.207 200.3V197H178.207V200.7C178.207 203.16 179.967 204.32 182.207 204.32C183.007 204.32 183.727 204.2 184.407 204V207H187.407V197H184.407ZM197.706 197H188.706V199.88H191.726V207H194.726V199.88H197.706V197ZM203.68 200H202V197H199V207H203.68C206.1 207 207.6 205.6 207.6 203.5C207.6 201.4 206.1 200 203.68 200ZM208.6 197V207H211.6V197H208.6ZM203.7 204.4H202V202.6H203.7C204.3 202.6 204.68 202.98 204.68 203.5C204.68 204.02 204.3 204.4 203.7 204.4Z" fill="#3030C1"/>
<path d="M100.302 222H95.0023V229H96.6023V223.54H98.7023V229H100.302V222ZM104.446 223.86C103.776 223.86 103.286 224.09 102.956 224.47V224H101.456V231H102.956V228.53C103.286 228.91 103.776 229.14 104.446 229.14C105.756 229.14 106.836 227.99 106.836 226.5C106.836 225.01 105.756 223.86 104.446 223.86ZM104.146 227.72C103.456 227.72 102.956 227.25 102.956 226.5C102.956 225.75 103.456 225.28 104.146 225.28C104.836 225.28 105.336 225.75 105.336 226.5C105.336 227.25 104.836 227.72 104.146 227.72ZM111.287 224L109.147 226.5V224H107.687V229H108.787L110.927 226.5V229H112.387V224H111.287ZM118.238 229L116.448 226.46L118.178 224H116.458L115.588 225.24L114.718 224H112.998L114.728 226.46L112.938 229H114.658L115.588 227.68L116.518 229H118.238ZM120.839 229.14C122.309 229.14 123.489 227.99 123.489 226.5C123.489 225.01 122.309 223.86 120.839 223.86C119.369 223.86 118.189 225.01 118.189 226.5C118.189 227.99 119.369 229.14 120.839 229.14ZM120.839 227.68C120.189 227.68 119.689 227.21 119.689 226.5C119.689 225.79 120.189 225.32 120.839 225.32C121.489 225.32 121.989 225.79 121.989 226.5C121.989 227.21 121.489 227.68 120.839 227.68ZM128.742 227.6V224H124.712V225.87C124.712 226.73 124.562 227.21 124.312 227.6H123.692V230.34H125.152V229H127.932V230.34H129.392V227.6H128.742ZM125.882 227.6C126.072 227.15 126.172 226.6 126.172 225.87V225.34H127.282V227.6H125.882ZM133.738 224L131.598 226.5V224H130.138V229H131.238L133.378 226.5V229H134.838V224H133.738ZM139.989 224H135.489V225.44H136.999V229H138.499V225.44H139.989V224ZM142.976 225.5H142.136V224H140.636V229H142.976C144.186 229 144.936 228.3 144.936 227.25C144.936 226.2 144.186 225.5 142.976 225.5ZM142.986 227.7H142.136V226.8H142.986C143.286 226.8 143.476 226.99 143.476 227.25C143.476 227.51 143.286 227.7 142.986 227.7ZM151.385 224V225.8H149.685V224H148.185V229H149.685V227.2H151.385V229H152.885V224H151.385ZM157.616 224V224.47C157.286 224.09 156.796 223.86 156.126 223.86C154.816 223.86 153.736 225.01 153.736 226.5C153.736 227.99 154.816 229.14 156.126 229.14C156.796 229.14 157.286 228.91 157.616 228.53V229H159.116V224H157.616ZM156.426 227.72C155.736 227.72 155.236 227.25 155.236 226.5C155.236 225.75 155.736 225.28 156.426 225.28C157.116 225.28 157.616 225.75 157.616 226.5C157.616 227.25 157.116 227.72 156.426 227.72ZM167.066 224H162.986V226.83C162.986 227.45 162.736 227.74 162.266 227.6V229C163.726 229.17 164.486 228.44 164.486 226.93V225.44H165.566V229H167.066V224ZM172.815 223.86C171.585 223.86 170.585 224.66 170.295 225.8H169.665V224H168.165V229H169.665V227.2H170.295C170.585 228.34 171.585 229.14 172.815 229.14C174.285 229.14 175.465 227.99 175.465 226.5C175.465 225.01 174.285 223.86 172.815 223.86ZM172.815 227.68C172.165 227.68 171.665 227.21 171.665 226.5C171.665 225.79 172.165 225.32 172.815 225.32C173.465 225.32 173.965 225.79 173.965 226.5C173.965 227.21 173.465 227.68 172.815 227.68ZM178.74 229.14C180.31 229.14 181.29 228.15 181.29 226.8C181.29 225.38 180.14 224.62 179.22 224.62C178.7 224.62 178.21 224.77 177.85 225.09C177.99 224.74 178.25 224.45 179.14 224.12C180.2 223.72 180.82 223.35 181.02 222.51L179.78 221.8C179.49 222.51 179.05 222.64 177.98 223.17C176.38 223.96 176.07 224.81 176.07 226.42C176.07 227.96 177.08 229.14 178.74 229.14ZM178.73 227.79C178.12 227.79 177.64 227.37 177.64 226.76C177.64 226.14 178.18 225.79 178.7 225.79C179.33 225.79 179.79 226.22 179.79 226.8C179.79 227.37 179.35 227.79 178.73 227.79ZM185.593 224L183.453 226.5V224H181.993V229H183.093L185.233 226.5V229H186.693V224H185.593ZM193.094 224H191.654L190.444 225.89L189.234 224H187.794V229H189.234V226.42L190.354 228.16H190.534L191.654 226.42V229H193.094V224ZM197.341 224L196.401 227.07L195.241 224H193.641L195.601 228.91C195.371 229.44 195.051 229.6 194.381 229.6V231C195.681 231.07 196.671 230.44 197.231 228.85L198.941 224H197.341ZM204.143 223.86C202.913 223.86 201.913 224.66 201.623 225.8H200.993V224H199.493V229H200.993V227.2H201.623C201.913 228.34 202.913 229.14 204.143 229.14C205.613 229.14 206.793 227.99 206.793 226.5C206.793 225.01 205.613 223.86 204.143 223.86ZM204.143 227.68C203.493 227.68 202.993 227.21 202.993 226.5C202.993 225.79 203.493 225.32 204.143 225.32C204.793 225.32 205.293 225.79 205.293 226.5C205.293 227.21 204.793 227.68 204.143 227.68ZM111.131 235.86C110.461 235.86 109.971 236.09 109.641 236.47V236H108.141V243H109.641V240.53C109.971 240.91 110.461 241.14 111.131 241.14C112.441 241.14 113.521 239.99 113.521 238.5C113.521 237.01 112.441 235.86 111.131 235.86ZM110.831 239.72C110.141 239.72 109.641 239.25 109.641 238.5C109.641 237.75 110.141 237.28 110.831 237.28C111.521 237.28 112.021 237.75 112.021 238.5C112.021 239.25 111.521 239.72 110.831 239.72ZM118.001 236V236.47C117.671 236.09 117.181 235.86 116.511 235.86C115.201 235.86 114.121 237.01 114.121 238.5C114.121 239.99 115.201 241.14 116.511 241.14C117.181 241.14 117.671 240.91 118.001 240.53V241H119.501V236H118.001ZM116.811 239.72C116.121 239.72 115.621 239.25 115.621 238.5C115.621 237.75 116.121 237.28 116.811 237.28C117.501 237.28 118.001 237.75 118.001 238.5C118.001 239.25 117.501 239.72 116.811 239.72ZM123.022 241.14C124.592 241.14 125.572 240.15 125.572 238.8C125.572 237.38 124.422 236.62 123.502 236.62C122.982 236.62 122.492 236.77 122.132 237.09C122.272 236.74 122.532 236.45 123.422 236.12C124.482 235.72 125.102 235.35 125.302 234.51L124.062 233.8C123.772 234.51 123.332 234.64 122.262 235.17C120.662 235.96 120.352 236.81 120.352 238.42C120.352 239.96 121.362 241.14 123.022 241.14ZM123.012 239.79C122.402 239.79 121.922 239.37 121.922 238.76C121.922 238.14 122.462 237.79 122.982 237.79C123.612 237.79 124.072 238.22 124.072 238.8C124.072 239.37 123.632 239.79 123.012 239.79ZM128.676 241.14C130.146 241.14 131.326 239.99 131.326 238.5C131.326 237.01 130.146 235.86 128.676 235.86C127.206 235.86 126.026 237.01 126.026 238.5C126.026 239.99 127.206 241.14 128.676 241.14ZM128.676 239.68C128.026 239.68 127.526 239.21 127.526 238.5C127.526 237.79 128.026 237.32 128.676 237.32C129.326 237.32 129.826 237.79 129.826 238.5C129.826 239.21 129.326 239.68 128.676 239.68ZM136.029 236H131.529V237.44H133.039V241H134.539V237.44H136.029V236ZM139.924 236L138.984 239.07L137.824 236H136.224L138.184 240.91C137.954 241.44 137.634 241.6 136.964 241.6V243C138.264 243.07 139.254 242.44 139.814 240.85L141.524 236H139.924ZM146.976 241.14C147.956 241.14 148.806 240.63 149.236 239.85L147.926 239.1C147.766 239.45 147.396 239.66 146.956 239.66C146.306 239.66 145.826 239.19 145.826 238.5C145.826 237.81 146.306 237.34 146.956 237.34C147.396 237.34 147.756 237.55 147.926 237.9L149.236 237.14C148.806 236.37 147.946 235.86 146.976 235.86C145.456 235.86 144.326 237.01 144.326 238.5C144.326 239.99 145.456 241.14 146.976 241.14ZM154.809 241.14C156.379 241.14 157.359 240.15 157.359 238.8C157.359 237.38 156.209 236.62 155.289 236.62C154.769 236.62 154.279 236.77 153.919 237.09C154.059 236.74 154.319 236.45 155.209 236.12C156.269 235.72 156.889 235.35 157.089 234.51L155.849 233.8C155.559 234.51 155.119 234.64 154.049 235.17C152.449 235.96 152.139 236.81 152.139 238.42C152.139 239.96 153.149 241.14 154.809 241.14ZM154.799 239.79C154.189 239.79 153.709 239.37 153.709 238.76C153.709 238.14 154.249 237.79 154.769 237.79C155.399 237.79 155.859 238.22 155.859 238.8C155.859 239.37 155.419 239.79 154.799 239.79ZM160.463 241.14C161.933 241.14 163.113 239.99 163.113 238.5C163.113 237.01 161.933 235.86 160.463 235.86C158.993 235.86 157.813 237.01 157.813 238.5C157.813 239.99 158.993 241.14 160.463 241.14ZM160.463 239.68C159.813 239.68 159.313 239.21 159.313 238.5C159.313 237.79 159.813 237.32 160.463 237.32C161.113 237.32 161.613 237.79 161.613 238.5C161.613 239.21 161.113 239.68 160.463 239.68ZM168.213 236H164.133V238.83C164.133 239.45 163.883 239.74 163.413 239.6V241C164.873 241.17 165.633 240.44 165.633 238.93V237.44H166.713V241H168.213V236ZM171.653 237.5H170.813V236H169.313V241H171.653C172.863 241 173.613 240.3 173.613 239.25C173.613 238.2 172.863 237.5 171.653 237.5ZM171.663 239.7H170.813V238.8H171.663C171.963 238.8 172.153 238.99 172.153 239.25C172.153 239.51 171.963 239.7 171.663 239.7ZM180.162 236V239.6H178.762V236H177.262V239.6H175.862V236H174.362V241H181.662V236H180.162ZM185.16 241.14C186.63 241.14 187.81 239.99 187.81 238.5C187.81 237.01 186.63 235.86 185.16 235.86C183.69 235.86 182.51 237.01 182.51 238.5C182.51 239.99 183.69 241.14 185.16 241.14ZM185.16 239.68C184.51 239.68 184.01 239.21 184.01 238.5C184.01 237.79 184.51 237.32 185.16 237.32C185.81 237.32 186.31 237.79 186.31 238.5C186.31 239.21 185.81 239.68 185.16 239.68ZM189.508 235.41H192.508V234.11H189.508V235.41ZM192.258 236L190.118 238.5V236H188.658V241H189.758L191.898 238.5V241H193.358V236H192.258ZM131.878 247.86C131.208 247.86 130.718 248.09 130.388 248.47V248H128.888V255H130.388V252.53C130.718 252.91 131.208 253.14 131.878 253.14C133.188 253.14 134.268 251.99 134.268 250.5C134.268 249.01 133.188 247.86 131.878 247.86ZM131.578 251.72C130.888 251.72 130.388 251.25 130.388 250.5C130.388 249.75 130.888 249.28 131.578 249.28C132.268 249.28 132.768 249.75 132.768 250.5C132.768 251.25 132.268 251.72 131.578 251.72ZM138.748 248V248.47C138.418 248.09 137.928 247.86 137.258 247.86C135.948 247.86 134.868 249.01 134.868 250.5C134.868 251.99 135.948 253.14 137.258 253.14C137.928 253.14 138.418 252.91 138.748 252.53V253H140.248V248H138.748ZM137.558 251.72C136.868 251.72 136.368 251.25 136.368 250.5C136.368 249.75 136.868 249.28 137.558 249.28C138.248 249.28 138.748 249.75 138.748 250.5C138.748 251.25 138.248 251.72 137.558 251.72ZM145.949 251.6V248H141.919V249.87C141.919 250.73 141.769 251.21 141.519 251.6H140.899V254.34H142.359V253H145.139V254.34H146.599V251.6H145.949ZM143.089 251.6C143.279 251.15 143.379 250.6 143.379 249.87V249.34H144.489V251.6H143.089ZM149.55 253.14C151.02 253.14 152.2 251.99 152.2 250.5C152.2 249.01 151.02 247.86 149.55 247.86C148.08 247.86 146.9 249.01 146.9 250.5C146.9 251.99 148.08 253.14 149.55 253.14ZM149.55 251.68C148.9 251.68 148.4 251.21 148.4 250.5C148.4 249.79 148.9 249.32 149.55 249.32C150.2 249.32 150.7 249.79 150.7 250.5C150.7 251.21 150.2 251.68 149.55 251.68ZM155.448 253.14C156.428 253.14 157.278 252.63 157.708 251.85L156.398 251.1C156.238 251.45 155.868 251.66 155.428 251.66C154.778 251.66 154.298 251.19 154.298 250.5C154.298 249.81 154.778 249.34 155.428 249.34C155.868 249.34 156.228 249.55 156.398 249.9L157.708 249.14C157.278 248.37 156.418 247.86 155.448 247.86C153.928 247.86 152.798 249.01 152.798 250.5C152.798 251.99 153.928 253.14 155.448 253.14ZM162.362 248H157.862V249.44H159.372V253H160.872V249.44H162.362V248ZM165.349 249.5H164.509V248H163.009V253H165.349C166.559 253 167.309 252.3 167.309 251.25C167.309 250.2 166.559 249.5 165.349 249.5ZM165.359 251.7H164.509V250.8H165.359C165.659 250.8 165.849 250.99 165.849 251.25C165.849 251.51 165.659 251.7 165.359 251.7ZM172.708 247.86C171.478 247.86 170.478 248.66 170.188 249.8H169.558V248H168.058V253H169.558V251.2H170.188C170.478 252.34 171.478 253.14 172.708 253.14C174.178 253.14 175.358 251.99 175.358 250.5C175.358 249.01 174.178 247.86 172.708 247.86ZM172.708 251.68C172.058 251.68 171.558 251.21 171.558 250.5C171.558 249.79 172.058 249.32 172.708 249.32C173.358 249.32 173.858 249.79 173.858 250.5C173.858 251.21 173.358 251.68 172.708 251.68Z" fill="#3A3A3A"/>
<path d="M190.012 140.986H114.988C112.233 140.986 110 138.752 110 135.997V83.7204C110 80.9654 112.233 78.7322 114.988 78.7322H190.012C192.767 78.7322 195 80.9656 195 83.7204V135.997C195 138.752 192.767 140.986 190.012 140.986Z" fill="url(#paint0_linear)"/>
<path d="M114.31 106.269L149.026 140.986H190.012C192.767 140.986 195 138.752 195 135.997V83.7204C195 82.68 194.681 81.7141 194.136 80.9146C194.084 80.838 194.029 80.7635 193.973 80.6905C193.961 80.6748 193.949 80.6594 193.937 80.6441C193.89 80.5855 193.843 80.5278 193.795 80.4711C193.78 80.4547 193.766 80.4379 193.752 80.4215C193.699 80.3617 193.644 80.3031 193.589 80.246C193.58 80.2367 193.571 80.2269 193.562 80.2175C193.43 80.0838 193.291 79.9578 193.144 79.8396C193.127 79.8257 193.109 79.8122 193.092 79.7985C193.036 79.7545 192.979 79.7116 192.921 79.6701C192.901 79.6553 192.88 79.6404 192.859 79.626C192.799 79.584 192.738 79.5435 192.676 79.5039C192.659 79.4935 192.643 79.4824 192.626 79.4722C192.546 79.4226 192.464 79.3749 192.381 79.33C192.379 79.3291 192.378 79.3285 192.376 79.3276C192.297 79.2848 192.216 79.2446 192.134 79.2061C192.11 79.195 192.087 79.1845 192.063 79.1737C192.001 79.146 191.939 79.1194 191.877 79.094C191.849 79.0829 191.821 79.0718 191.793 79.061C191.729 79.0366 191.665 79.0139 191.6 78.9919C191.576 78.9836 191.551 78.9748 191.526 78.9667C191.437 78.9382 191.346 78.9116 191.255 78.888C191.251 78.887 191.247 78.8864 191.243 78.8854C191.156 78.8633 191.068 78.844 190.979 78.8266C190.95 78.821 190.921 78.8161 190.891 78.811C190.826 78.7994 190.761 78.7887 190.695 78.7798C190.662 78.7753 190.628 78.771 190.595 78.7672C190.529 78.7594 190.462 78.7534 190.395 78.7482C190.364 78.7459 190.334 78.7431 190.304 78.7414C190.207 78.7358 190.11 78.7323 190.012 78.7323H114.988C112.233 78.7321 110 80.9655 110 83.7206V96.8896C110 100.641 111.672 104 114.31 106.269Z" fill="url(#paint1_linear)"/>
<path d="M137.834 80.6609H136.438C135.354 80.6609 134.476 79.7824 134.476 78.6989V77.3022C134.476 76.2187 135.354 75.3403 136.438 75.3403H137.834C138.918 75.3403 139.796 76.2188 139.796 77.3022V78.6989C139.796 79.7825 138.918 80.6609 137.834 80.6609Z" fill="url(#paint2_linear)"/>
<path d="M168.562 80.6609H167.165C166.082 80.6609 165.203 79.7824 165.203 78.6989V77.3022C165.203 76.2187 166.082 75.3403 167.165 75.3403H168.562C169.646 75.3403 170.524 76.2188 170.524 77.3022V78.6989C170.524 79.7825 169.646 80.6609 168.562 80.6609Z" fill="url(#paint3_linear)"/>
<path d="M190.012 78.7322H114.988C112.233 78.7322 110 80.9656 110 83.7206V96.8896C110 103.722 115.539 109.26 122.371 109.26H182.629C189.461 109.26 195 103.722 195 96.8896V83.7206C195 80.9654 192.767 78.7322 190.012 78.7322Z" fill="url(#paint4_linear)"/>
<path d="M137.968 105.781C137.469 105.223 136.746 104.871 135.939 104.871H129.155C127.649 104.871 126.428 106.092 126.428 107.598V110.391C126.428 111.198 126.78 111.921 127.338 112.421L137.95 123.033C138.449 123.59 139.172 123.943 139.979 123.943H146.763C148.269 123.943 149.49 122.722 149.49 121.216V118.422C149.49 117.615 149.138 116.892 148.58 116.393L137.968 105.781Z" fill="url(#paint5_linear)"/>
<path d="M134.124 110.204L137.994 108.603C138.401 108.434 138.666 108.038 138.666 107.597C138.666 106.092 137.445 104.871 135.939 104.871H129.155C127.649 104.871 126.428 106.092 126.428 107.598C126.428 108.038 126.693 108.434 127.1 108.603L130.97 110.204C131.98 110.622 133.114 110.622 134.124 110.204Z" fill="url(#paint6_linear)"/>
<path d="M135.939 113.118H129.155C127.649 113.118 126.428 111.897 126.428 110.391V107.597C126.428 106.091 127.649 104.87 129.155 104.87H135.939C137.445 104.87 138.666 106.091 138.666 107.597V110.391C138.666 111.897 137.445 113.118 135.939 113.118Z" fill="url(#paint7_linear)"/>
<path d="M126.845 108.451L131.511 113.118H135.939C137.445 113.118 138.666 111.897 138.666 110.391V107.597C138.666 106.889 138.394 106.246 137.951 105.761L137.951 105.761C137.889 105.693 137.823 105.628 137.754 105.567C137.754 105.566 137.754 105.566 137.753 105.566C137.686 105.506 137.616 105.449 137.544 105.396C137.541 105.394 137.538 105.391 137.534 105.389C137.465 105.339 137.394 105.293 137.32 105.249C137.313 105.245 137.305 105.24 137.298 105.236C137.229 105.196 137.158 105.16 137.085 105.126C137.072 105.12 137.059 105.113 137.046 105.107C136.978 105.077 136.909 105.05 136.838 105.026C136.82 105.019 136.801 105.011 136.782 105.005C136.716 104.983 136.648 104.966 136.579 104.949C136.555 104.944 136.533 104.936 136.509 104.931C136.44 104.917 136.37 104.907 136.3 104.897C136.275 104.894 136.252 104.889 136.227 104.886C136.132 104.876 136.036 104.871 135.939 104.871H129.154C127.649 104.871 126.427 106.092 126.427 107.598C126.428 107.936 126.586 108.249 126.845 108.451Z" fill="url(#paint8_linear)"/>
<path d="M134.124 110.204L137.994 108.603C138.401 108.434 138.666 108.038 138.666 107.597C138.666 106.092 137.445 104.871 135.939 104.871H129.155C127.649 104.871 126.428 106.092 126.428 107.598C126.428 108.038 126.693 108.434 127.1 108.603L130.97 110.204C131.98 110.622 133.114 110.622 134.124 110.204Z" fill="url(#paint9_linear)"/>
<path d="M177.874 105.781C177.375 105.223 176.652 104.871 175.845 104.871H169.061C167.555 104.871 166.334 106.092 166.334 107.598V110.391C166.334 111.198 166.686 111.921 167.244 112.421L177.856 123.033C178.355 123.59 179.078 123.943 179.885 123.943H186.669C188.175 123.943 189.396 122.722 189.396 121.216V118.422C189.396 117.615 189.044 116.892 188.486 116.393L177.874 105.781Z" fill="url(#paint10_linear)"/>
<path d="M174.03 110.204L177.9 108.603C178.307 108.434 178.572 108.038 178.572 107.597C178.572 106.092 177.351 104.871 175.845 104.871H169.061C167.555 104.871 166.334 106.092 166.334 107.598C166.334 108.038 166.599 108.434 167.006 108.603L170.876 110.204C171.886 110.622 173.02 110.622 174.03 110.204Z" fill="url(#paint11_linear)"/>
<path d="M175.845 113.118H169.061C167.555 113.118 166.334 111.897 166.334 110.391V107.597C166.334 106.091 167.555 104.87 169.061 104.87H175.845C177.351 104.87 178.572 106.091 178.572 107.597V110.391C178.572 111.897 177.351 113.118 175.845 113.118Z" fill="url(#paint12_linear)"/>
<path d="M166.751 108.451L171.417 113.118H175.845C177.351 113.118 178.572 111.897 178.572 110.391V107.597C178.572 106.889 178.3 106.246 177.857 105.761L177.857 105.761C177.795 105.693 177.729 105.628 177.661 105.567C177.66 105.566 177.66 105.566 177.659 105.566C177.592 105.506 177.523 105.449 177.45 105.396C177.447 105.394 177.444 105.391 177.441 105.389C177.372 105.339 177.3 105.293 177.227 105.249C177.219 105.245 177.212 105.24 177.204 105.236C177.135 105.196 177.064 105.16 176.991 105.126C176.978 105.12 176.966 105.113 176.952 105.107C176.885 105.077 176.815 105.05 176.745 105.026C176.726 105.019 176.708 105.011 176.689 105.005C176.622 104.983 176.554 104.966 176.485 104.949C176.462 104.944 176.439 104.936 176.415 104.931C176.347 104.917 176.276 104.907 176.206 104.897C176.182 104.894 176.158 104.889 176.133 104.886C176.039 104.876 175.942 104.871 175.845 104.871H169.061C167.555 104.871 166.334 106.092 166.334 107.598C166.334 107.936 166.492 108.249 166.751 108.451Z" fill="url(#paint13_linear)"/>
<path d="M174.03 110.204L177.9 108.603C178.307 108.434 178.572 108.038 178.572 107.597C178.572 106.092 177.351 104.871 175.845 104.871H169.061C167.555 104.871 166.334 106.092 166.334 107.598C166.334 108.038 166.599 108.434 167.006 108.603L170.876 110.204C171.886 110.622 173.02 110.622 174.03 110.204Z" fill="url(#paint14_linear)"/>
<path d="M110 122.695V135.997C110 138.752 112.233 140.986 114.988 140.986H190.012C192.767 140.986 195 138.752 195 135.997V122.695H110Z" fill="url(#paint15_linear)"/>
<path d="M166.999 77.7111C166.699 77.7111 166.393 77.6618 166.094 77.5576C162.338 76.2527 157.511 75.5343 152.5 75.5343C147.489 75.5343 142.662 76.2529 138.906 77.5576C137.468 78.0575 135.894 77.2963 135.393 75.8563C134.893 74.4162 135.655 72.8436 137.095 72.3432C141.417 70.8414 146.888 70.0142 152.5 70.0142C158.112 70.0142 163.582 70.8412 167.905 72.3432C169.345 72.8436 170.106 74.4162 169.606 75.8563C169.21 76.9963 168.142 77.7111 166.999 77.7111Z" fill="url(#paint16_linear)"/>
<path d="M161.658 130.999C161.56 130.807 161.364 130.675 161.134 130.675H143.866C143.54 130.675 143.276 130.939 143.276 131.265V132.962C143.276 133.192 143.409 133.388 143.6 133.486L151.099 140.985H171.644L161.658 130.999Z" fill="url(#paint17_linear)"/>
<path d="M143.276 131.265V132.962C143.276 133.288 143.54 133.552 143.866 133.552H161.134C161.46 133.552 161.724 133.288 161.724 132.962V131.265C161.724 130.939 161.46 130.675 161.134 130.675H143.866C143.54 130.675 143.276 130.939 143.276 131.265Z" fill="url(#paint18_linear)"/>
</g>
<defs>
<filter id="filter0_d" x="0" y="0.313141" width="319" height="333.313" filterUnits="userSpaceOnUse" color-interpolation-filters="sRGB">
<feFlood flood-opacity="0" result="BackgroundImageFix"/>
<feColorMatrix in="SourceAlpha" type="matrix" values="0 0 0 0 0 0 0 0 0 0 0 0 0 0 0 0 0 0 127 0"/>
<feOffset dx="7" dy="7"/>
<feGaussianBlur stdDeviation="15"/>
<feColorMatrix type="matrix" values="0 0 0 0 0 0 0 0 0 0 0 0 0 0 0 0 0 0 0.25 0"/>
<feBlend mode="normal" in2="BackgroundImageFix" result="effect1_dropShadow"/>
<feBlend mode="normal" in="SourceGraphic" in2="effect1_dropShadow" result="shape"/>
</filter>
<linearGradient id="paint0_linear" x1="115.853" y1="109.86" x2="210.893" y2="109.86" gradientUnits="userSpaceOnUse">
<stop stop-color="#4D4D4D"/>
<stop offset="1" stop-color="#333333"/>
</linearGradient>
<linearGradient id="paint1_linear" x1="152.499" y1="128.682" x2="152.499" y2="99.7644" gradientUnits="userSpaceOnUse">
<stop stop-color="#4D4D4D" stop-opacity="0"/>
<stop offset="1"/>
</linearGradient>
<linearGradient id="paint2_linear" x1="121.931" y1="86.1506" x2="116.078" y2="89.2875" gradientUnits="userSpaceOnUse">
<stop stop-color="#4D4D4D"/>
<stop offset="1" stop-color="#333333"/>
</linearGradient>
<linearGradient id="paint3_linear" x1="128.787" y1="98.9437" x2="122.934" y2="102.081" gradientUnits="userSpaceOnUse">
<stop stop-color="#4D4D4D"/>
<stop offset="1" stop-color="#333333"/>
</linearGradient>
<linearGradient id="paint4_linear" x1="152.523" y1="90.4663" x2="146.67" y2="125.896" gradientUnits="userSpaceOnUse">
<stop stop-color="#4D4D4D"/>
<stop offset="1" stop-color="#333333"/>
</linearGradient>
<linearGradient id="paint5_linear" x1="146.713" y1="123.162" x2="125.33" y2="101.779" gradientUnits="userSpaceOnUse">
<stop stop-color="#4D4D4D" stop-opacity="0"/>
<stop offset="1"/>
</linearGradient>
<linearGradient id="paint6_linear" x1="132.546" y1="106.329" x2="132.546" y2="111.754" gradientUnits="userSpaceOnUse">
<stop stop-color="#FCC344"/>
<stop offset="1" stop-color="#D48000"/>
</linearGradient>
<linearGradient id="paint7_linear" x1="132.546" y1="110.924" x2="132.546" y2="113.604" gradientUnits="userSpaceOnUse">
<stop stop-color="#FCC344"/>
<stop offset="1" stop-color="#D48000"/>
</linearGradient>
<linearGradient id="paint8_linear" x1="132.546" y1="113.028" x2="132.546" y2="108.939" gradientUnits="userSpaceOnUse">
<stop stop-color="#D48000" stop-opacity="0"/>
<stop offset="1" stop-color="#D48000"/>
</linearGradient>
<linearGradient id="paint9_linear" x1="132.546" y1="107.466" x2="132.546" y2="110.801" gradientUnits="userSpaceOnUse">
<stop stop-color="#FCC344"/>
<stop offset="1" stop-color="#D48000"/>
</linearGradient>
<linearGradient id="paint10_linear" x1="186.618" y1="123.162" x2="165.236" y2="101.779" gradientUnits="userSpaceOnUse">
<stop stop-color="#4D4D4D" stop-opacity="0"/>
<stop offset="1"/>
</linearGradient>
<linearGradient id="paint11_linear" x1="172.452" y1="106.329" x2="172.452" y2="111.754" gradientUnits="userSpaceOnUse">
<stop stop-color="#FCC344"/>
<stop offset="1" stop-color="#D48000"/>
</linearGradient>
<linearGradient id="paint12_linear" x1="172.452" y1="110.924" x2="172.452" y2="113.604" gradientUnits="userSpaceOnUse">
<stop stop-color="#FCC344"/>
<stop offset="1" stop-color="#D48000"/>
</linearGradient>
<linearGradient id="paint13_linear" x1="172.452" y1="113.028" x2="172.452" y2="108.939" gradientUnits="userSpaceOnUse">
<stop stop-color="#D48000" stop-opacity="0"/>
<stop offset="1" stop-color="#D48000"/>
</linearGradient>
<linearGradient id="paint14_linear" x1="172.452" y1="107.466" x2="172.452" y2="110.801" gradientUnits="userSpaceOnUse">
<stop stop-color="#FCC344"/>
<stop offset="1" stop-color="#D48000"/>
</linearGradient>
<linearGradient id="paint15_linear" x1="152.499" y1="129.48" x2="152.499" y2="143.852" gradientUnits="userSpaceOnUse">
<stop stop-color="#4D4D4D" stop-opacity="0"/>
<stop offset="1"/>
</linearGradient>
<linearGradient id="paint16_linear" x1="152.499" y1="71.9663" x2="152.499" y2="79.4765" gradientUnits="userSpaceOnUse">
<stop stop-color="#FCC344"/>
<stop offset="1" stop-color="#D48000"/>
</linearGradient>
<linearGradient id="paint17_linear" x1="157.459" y1="140.654" x2="157.459" y2="126.611" gradientUnits="userSpaceOnUse">
<stop stop-color="#1A1A1A" stop-opacity="0"/>
<stop offset="1"/>
</linearGradient>
<linearGradient id="paint18_linear" x1="152.499" y1="130.999" x2="152.499" y2="133.582" gradientUnits="userSpaceOnUse">
<stop stop-color="#FCC344"/>
<stop offset="1" stop-color="#D48000"/>
</linearGradient>
</defs>
</svg>
