<svg width="440" height="461" viewBox="0 0 440 461" fill="none" xmlns="http://www.w3.org/2000/svg">
<g filter="url(#filter0_d)">
<rect x="23" y="23" width="380" height="401" fill="#FBFBFB"/>
<path d="M106.175 328.28C108.735 328.28 110.975 327.02 112.175 325.04L109.415 323.44C108.815 324.52 107.595 325.16 106.175 325.16C103.695 325.16 102.095 323.5 102.095 321C102.095 318.5 103.695 316.84 106.175 316.84C107.595 316.84 108.795 317.48 109.415 318.56L112.175 316.96C110.955 314.98 108.715 313.72 106.175 313.72C101.955 313.72 98.8949 316.88 98.8949 321C98.8949 325.12 101.955 328.28 106.175 328.28ZM121.87 318H112.87V320.88H115.89V328H118.89V320.88H121.87V318ZM130.034 318V318.94C129.374 318.18 128.394 317.72 127.054 317.72C124.434 317.72 122.274 320.02 122.274 323C122.274 325.98 124.434 328.28 127.054 328.28C128.394 328.28 129.374 327.82 130.034 327.06V328H133.034V318H130.034ZM127.654 325.44C126.274 325.44 125.274 324.5 125.274 323C125.274 321.5 126.274 320.56 127.654 320.56C129.034 320.56 130.034 321.5 130.034 323C130.034 324.5 129.034 325.44 127.654 325.44ZM143.335 318H134.335V320.88H137.355V328H140.355V320.88H143.335V318ZM149.309 321H147.629V318H144.629V328H149.309C151.729 328 153.229 326.6 153.229 324.5C153.229 322.4 151.729 321 149.309 321ZM149.329 325.4H147.629V323.6H149.329C149.929 323.6 150.309 323.98 150.309 324.5C150.309 325.02 149.929 325.4 149.329 325.4ZM169.127 318H159.727V328H162.727V320.8H166.127V328H169.127V318ZM177.309 317.72C175.969 317.72 174.989 318.18 174.329 318.94V318H171.329V332H174.329V327.06C174.989 327.82 175.969 328.28 177.309 328.28C179.929 328.28 182.089 325.98 182.089 323C182.089 320.02 179.929 317.72 177.309 317.72ZM176.709 325.44C175.329 325.44 174.329 324.5 174.329 323C174.329 321.5 175.329 320.56 176.709 320.56C178.089 320.56 179.089 321.5 179.089 323C179.089 324.5 178.089 325.44 176.709 325.44ZM188.589 328.28C191.529 328.28 193.889 325.98 193.889 323C193.889 320.02 191.529 317.72 188.589 317.72C185.649 317.72 183.289 320.02 183.289 323C183.289 325.98 185.649 328.28 188.589 328.28ZM188.589 325.36C187.289 325.36 186.289 324.42 186.289 323C186.289 321.58 187.289 320.64 188.589 320.64C189.889 320.64 190.889 321.58 190.889 323C190.889 324.42 189.889 325.36 188.589 325.36ZM207.686 323C207.686 320.42 205.906 318.36 202.846 317.88V314H199.926V317.88C196.866 318.36 195.086 320.42 195.086 323C195.086 325.58 196.866 327.64 199.926 328.12V332H202.846V328.12C205.906 327.64 207.686 325.58 207.686 323ZM198.046 323C198.046 321.9 198.686 321.08 199.926 320.74V325.26C198.686 324.92 198.046 324.1 198.046 323ZM202.846 325.26V320.74C204.086 321.08 204.726 321.9 204.726 323C204.726 324.1 204.086 324.92 202.846 325.26ZM212.075 324.2H219.175C219.255 323.82 219.295 323.42 219.295 323C219.295 319.98 217.135 317.72 214.215 317.72C211.055 317.72 208.895 320.02 208.895 323C208.895 325.98 211.015 328.28 214.435 328.28C216.335 328.28 217.815 327.58 218.795 326.22L216.395 324.84C215.995 325.28 215.295 325.6 214.475 325.6C213.375 325.6 212.455 325.24 212.075 324.2ZM212.015 321.96C212.295 320.94 213.055 320.38 214.195 320.38C215.095 320.38 215.995 320.8 216.315 321.96H212.015ZM225.699 328.28C227.659 328.28 229.359 327.26 230.219 325.7L227.599 324.2C227.279 324.9 226.539 325.32 225.659 325.32C224.359 325.32 223.399 324.38 223.399 323C223.399 321.62 224.359 320.68 225.659 320.68C226.539 320.68 227.259 321.1 227.599 321.8L230.219 320.28C229.359 318.74 227.639 317.72 225.699 317.72C222.659 317.72 220.399 320.02 220.399 323C220.399 325.98 222.659 328.28 225.699 328.28ZM236.031 328.28C237.991 328.28 239.691 327.26 240.551 325.7L237.931 324.2C237.611 324.9 236.871 325.32 235.991 325.32C234.691 325.32 233.731 324.38 233.731 323C233.731 321.62 234.691 320.68 235.991 320.68C236.871 320.68 237.591 321.1 237.931 321.8L240.551 320.28C239.691 318.74 237.971 317.72 236.031 317.72C232.991 317.72 230.731 320.02 230.731 323C230.731 325.98 232.991 328.28 236.031 328.28ZM249.056 318L244.776 323V318H241.856V328H244.056L248.336 323V328H251.256V318H249.056ZM258.257 328.28C261.197 328.28 263.557 325.98 263.557 323C263.557 320.02 261.197 317.72 258.257 317.72C255.317 317.72 252.957 320.02 252.957 323C252.957 325.98 255.317 328.28 258.257 328.28ZM258.257 325.36C256.957 325.36 255.957 324.42 255.957 323C255.957 321.58 256.957 320.64 258.257 320.64C259.557 320.64 260.557 321.58 260.557 323C260.557 324.42 259.557 325.36 258.257 325.36ZM271.654 318V321.6H268.254V318H265.254V328H268.254V324.4H271.654V328H274.654V318H271.654ZM284.116 318V318.94C283.456 318.18 282.476 317.72 281.136 317.72C278.516 317.72 276.356 320.02 276.356 323C276.356 325.98 278.516 328.28 281.136 328.28C282.476 328.28 283.456 327.82 284.116 327.06V328H287.116V318H284.116ZM281.736 325.44C280.356 325.44 279.356 324.5 279.356 323C279.356 321.5 280.356 320.56 281.736 320.56C283.116 320.56 284.116 321.5 284.116 323C284.116 324.5 283.116 325.44 281.736 325.44ZM298.017 318H289.857V323.66C289.857 324.9 289.357 325.48 288.417 325.2V328C291.337 328.34 292.857 326.88 292.857 323.86V320.88H295.017V328H298.017V318ZM305.015 328.28C307.955 328.28 310.315 325.98 310.315 323C310.315 320.02 307.955 317.72 305.015 317.72C302.075 317.72 299.715 320.02 299.715 323C299.715 325.98 302.075 328.28 305.015 328.28ZM305.015 325.36C303.715 325.36 302.715 324.42 302.715 323C302.715 321.58 303.715 320.64 305.015 320.64C306.315 320.64 307.315 321.58 307.315 323C307.315 324.42 306.315 325.36 305.015 325.36ZM322.612 318H319.732L317.312 321.78L314.892 318H312.012V328H314.892V322.84L317.132 326.32H317.492L319.732 322.84V328H322.612V318ZM161.802 353.28C163.762 353.28 165.462 352.26 166.322 350.7L163.702 349.2C163.382 349.9 162.642 350.32 161.762 350.32C160.462 350.32 159.502 349.38 159.502 348C159.502 346.62 160.462 345.68 161.762 345.68C162.642 345.68 163.362 346.1 163.702 346.8L166.322 345.28C165.462 343.74 163.742 342.72 161.802 342.72C158.762 342.72 156.502 345.02 156.502 348C156.502 350.98 158.762 353.28 161.802 353.28ZM175.087 347.88C175.707 347.42 176.027 346.72 176.027 345.86C176.027 344.2 174.847 343 172.627 343H167.627V353H173.027C175.247 353 176.427 351.8 176.427 350.14C176.427 349.12 175.947 348.34 175.087 347.88ZM172.307 345.4C172.847 345.4 173.187 345.62 173.187 346.12C173.187 346.6 172.847 346.8 172.307 346.8H170.427V345.4H172.307ZM172.627 350.52H170.427V349.08H172.627C173.147 349.08 173.507 349.3 173.507 349.78C173.507 350.28 173.147 350.52 172.627 350.52ZM182.72 353.28C185.66 353.28 188.02 350.98 188.02 348C188.02 345.02 185.66 342.72 182.72 342.72C179.78 342.72 177.42 345.02 177.42 348C177.42 350.98 179.78 353.28 182.72 353.28ZM182.72 350.36C181.42 350.36 180.42 349.42 180.42 348C180.42 346.58 181.42 345.64 182.72 345.64C184.02 345.64 185.02 346.58 185.02 348C185.02 349.42 184.02 350.36 182.72 350.36ZM192.397 349.2H199.497C199.577 348.82 199.617 348.42 199.617 348C199.617 344.98 197.457 342.72 194.537 342.72C191.377 342.72 189.217 345.02 189.217 348C189.217 350.98 191.337 353.28 194.757 353.28C196.657 353.28 198.137 352.58 199.117 351.22L196.717 349.84C196.317 350.28 195.617 350.6 194.797 350.6C193.697 350.6 192.777 350.24 192.397 349.2ZM192.337 346.96C192.617 345.94 193.377 345.38 194.517 345.38C195.417 345.38 196.317 345.8 196.637 346.96H192.337ZM208.319 343H201.319V353H204.319V345.88H208.319V343ZM214.029 353.28C216.969 353.28 219.329 350.98 219.329 348C219.329 345.02 216.969 342.72 214.029 342.72C211.089 342.72 208.729 345.02 208.729 348C208.729 350.98 211.089 353.28 214.029 353.28ZM214.029 350.36C212.729 350.36 211.729 349.42 211.729 348C211.729 346.58 212.729 345.64 214.029 345.64C215.329 345.64 216.329 346.58 216.329 348C216.329 349.42 215.329 350.36 214.029 350.36ZM235.226 350.2V343H227.166V346.74C227.166 348.46 226.866 349.42 226.366 350.2H225.126V355.68H228.046V353H233.606V355.68H236.526V350.2H235.226ZM229.506 350.2C229.886 349.3 230.086 348.2 230.086 346.74V345.68H232.306V350.2H229.506ZM240.307 349.2H247.407C247.487 348.82 247.527 348.42 247.527 348C247.527 344.98 245.367 342.72 242.447 342.72C239.287 342.72 237.127 345.02 237.127 348C237.127 350.98 239.247 353.28 242.667 353.28C244.567 353.28 246.047 352.58 247.027 351.22L244.627 349.84C244.227 350.28 243.527 350.6 242.707 350.6C241.607 350.6 240.687 350.24 240.307 349.2ZM240.247 346.96C240.527 345.94 241.287 345.38 242.427 345.38C243.327 345.38 244.227 345.8 244.547 346.96H240.247ZM257.538 343H249.378V348.66C249.378 349.9 248.878 350.48 247.938 350.2V353C250.858 353.34 252.378 351.88 252.378 348.86V345.88H254.538V353H257.538V343ZM266.997 343V343.94C266.337 343.18 265.357 342.72 264.017 342.72C261.397 342.72 259.237 345.02 259.237 348C259.237 350.98 261.397 353.28 264.017 353.28C265.357 353.28 266.337 352.82 266.997 352.06V353H269.997V343H266.997ZM264.617 350.44C263.237 350.44 262.237 349.5 262.237 348C262.237 346.5 263.237 345.56 264.617 345.56C265.997 345.56 266.997 346.5 266.997 348C266.997 349.5 265.997 350.44 264.617 350.44Z" fill="#3A3A3A"/>
<path d="M104.983 239.42C111.013 239.42 115.903 234.68 115.903 228.5C115.903 222.32 111.013 217.58 104.983 217.58C98.9531 217.58 94.0631 222.32 94.0631 228.5C94.0631 234.68 98.9531 239.42 104.983 239.42ZM104.983 234.74C101.563 234.74 98.8631 232.25 98.8631 228.5C98.8631 224.75 101.563 222.26 104.983 222.26C108.403 222.26 111.103 224.75 111.103 228.5C111.103 232.25 108.403 234.74 104.983 234.74ZM132.856 239L127.246 231.5L132.706 224H127.456L122.956 230.57V224H118.456V239H122.956V232.37L127.756 239H132.856ZM140.802 239.42C145.212 239.42 148.752 235.97 148.752 231.5C148.752 227.03 145.212 223.58 140.802 223.58C136.392 223.58 132.852 227.03 132.852 231.5C132.852 235.97 136.392 239.42 140.802 239.42ZM140.802 235.04C138.852 235.04 137.352 233.63 137.352 231.5C137.352 229.37 138.852 227.96 140.802 227.96C142.752 227.96 144.252 229.37 144.252 231.5C144.252 233.63 142.752 235.04 140.802 235.04ZM160.897 224V229.4H155.797V224H151.297V239H155.797V233.6H160.897V239H165.397V224H160.897ZM177.25 224V230.3C176.62 230.6 175.87 230.78 174.85 230.78C173.59 230.78 172.45 230.39 172.45 228.95V224H167.95V229.55C167.95 233.24 170.59 234.98 173.95 234.98C175.15 234.98 176.23 234.8 177.25 234.5V239H181.75V224H177.25ZM195.847 224L189.427 231.5V224H185.047V239H188.347L194.767 231.5V239H199.147V224H195.847ZM214.6 224H201.1V228.32H205.63V239H210.13V228.32H214.6V224ZM223.562 228.5H221.042V224H216.542V239H223.562C227.192 239 229.442 236.9 229.442 233.75C229.442 230.6 227.192 228.5 223.562 228.5ZM223.592 235.1H221.042V232.4H223.592C224.492 232.4 225.062 232.97 225.062 233.75C225.062 234.53 224.492 235.1 223.592 235.1ZM253.588 239L247.978 231.5L253.438 224H248.188L243.688 230.57V224H239.188V239H243.688V232.37L248.488 239H253.588ZM264.693 224L261.873 233.21L258.393 224H253.593L259.473 238.73C258.783 240.32 257.823 240.8 255.813 240.8V245C259.713 245.21 262.683 243.32 264.363 238.55L269.493 224H264.693ZM280.121 223.58C278.111 223.58 276.641 224.27 275.651 225.41V224H271.151V245H275.651V237.59C276.641 238.73 278.111 239.42 280.121 239.42C284.051 239.42 287.291 235.97 287.291 231.5C287.291 227.03 284.051 223.58 280.121 223.58ZM279.221 235.16C277.151 235.16 275.651 233.75 275.651 231.5C275.651 229.25 277.151 227.84 279.221 227.84C281.291 227.84 282.791 229.25 282.791 231.5C282.791 233.75 281.291 235.16 279.221 235.16ZM297.042 239.42C299.982 239.42 302.532 237.89 303.822 235.55L299.892 233.3C299.412 234.35 298.302 234.98 296.982 234.98C295.032 234.98 293.592 233.57 293.592 231.5C293.592 229.43 295.032 228.02 296.982 228.02C298.302 228.02 299.382 228.65 299.892 229.7L303.822 227.42C302.532 225.11 299.952 223.58 297.042 223.58C292.482 223.58 289.092 227.03 289.092 231.5C289.092 235.97 292.482 239.42 297.042 239.42ZM312.8 228.5H310.28V224H305.78V239H312.8C316.43 239 318.68 236.9 318.68 233.75C318.68 230.6 316.43 228.5 312.8 228.5ZM320.18 224V239H324.68V224H320.18ZM312.83 235.1H310.28V232.4H312.83C313.73 232.4 314.3 232.97 314.3 233.75C314.3 234.53 313.73 235.1 312.83 235.1ZM98.9865 268.32C99.9165 267.63 100.396 266.58 100.396 265.29C100.396 262.8 98.6265 261 95.2965 261H87.7965V276H95.8965C99.2265 276 100.996 274.2 100.996 271.71C100.996 270.18 100.276 269.01 98.9865 268.32ZM94.8165 264.6C95.6265 264.6 96.1365 264.93 96.1365 265.68C96.1365 266.4 95.6265 266.7 94.8165 266.7H91.9965V264.6H94.8165ZM95.2965 272.28H91.9965V270.12H95.2965C96.0765 270.12 96.6165 270.45 96.6165 271.17C96.6165 271.92 96.0765 272.28 95.2965 272.28ZM115.176 276H120.636L124.056 263.61L127.476 276H132.936L138.726 255H133.686L130.056 269.7L126.006 255H122.106L118.056 269.7L114.426 255H109.386L115.176 276ZM142.91 270.3H153.56C153.68 269.73 153.74 269.13 153.74 268.5C153.74 263.97 150.5 260.58 146.12 260.58C141.38 260.58 138.14 264.03 138.14 268.5C138.14 272.97 141.32 276.42 146.45 276.42C149.3 276.42 151.52 275.37 152.99 273.33L149.39 271.26C148.79 271.92 147.74 272.4 146.51 272.4C144.86 272.4 143.48 271.86 142.91 270.3ZM142.82 266.94C143.24 265.41 144.38 264.57 146.09 264.57C147.44 264.57 148.79 265.2 149.27 266.94H142.82ZM165.263 260.58C163.253 260.58 161.783 261.27 160.793 262.41V255H156.293V276H160.793V274.59C161.783 275.73 163.253 276.42 165.263 276.42C169.193 276.42 172.433 272.97 172.433 268.5C172.433 264.03 169.193 260.58 165.263 260.58ZM164.363 272.16C162.293 272.16 160.793 270.75 160.793 268.5C160.793 266.25 162.293 264.84 164.363 264.84C166.433 264.84 167.933 266.25 167.933 268.5C167.933 270.75 166.433 272.16 164.363 272.16ZM186.534 255V263.04H179.934V255H175.134V276H179.934V267.66H186.534V276H191.334V255H186.534ZM198.809 270.3H209.459C209.579 269.73 209.639 269.13 209.639 268.5C209.639 263.97 206.399 260.58 202.019 260.58C197.279 260.58 194.039 264.03 194.039 268.5C194.039 272.97 197.219 276.42 202.349 276.42C205.199 276.42 207.419 275.37 208.889 273.33L205.289 271.26C204.689 271.92 203.639 272.4 202.409 272.4C200.759 272.4 199.379 271.86 198.809 270.3ZM198.719 266.94C199.139 265.41 200.279 264.57 201.989 264.57C203.339 264.57 204.689 265.2 205.169 266.94H198.719ZM216.691 263.67V261H212.191V276H216.691V269.22C216.691 266.25 219.331 265.5 221.191 265.8V260.7C219.301 260.7 217.291 261.66 216.691 263.67ZM230.055 276.42C234.465 276.42 238.005 272.97 238.005 268.5C238.005 264.03 234.465 260.58 230.055 260.58C225.645 260.58 222.105 264.03 222.105 268.5C222.105 272.97 225.645 276.42 230.055 276.42ZM230.055 272.04C228.105 272.04 226.605 270.63 226.605 268.5C226.605 266.37 228.105 264.96 230.055 264.96C232.005 264.96 233.505 266.37 233.505 268.5C233.505 270.63 232.005 272.04 230.055 272.04ZM255.55 276.42C260.11 276.42 263.35 274.02 263.35 269.97C263.35 265.53 259.78 264.42 256.6 263.46C253.33 262.47 252.82 261.81 252.82 260.85C252.82 260.01 253.57 259.26 255.07 259.26C256.99 259.26 257.98 260.19 258.7 261.69L262.75 259.32C261.22 256.23 258.52 254.58 255.07 254.58C251.44 254.58 248.02 256.92 248.02 260.97C248.02 264.99 251.08 266.49 254.2 267.36C257.35 268.23 258.55 268.74 258.55 270.03C258.55 270.84 257.98 271.74 255.7 271.74C253.33 271.74 252.04 270.57 251.29 268.83L247.15 271.23C248.32 274.32 251.14 276.42 255.55 276.42ZM273.239 276.42C276.179 276.42 278.729 274.89 280.019 272.55L276.089 270.3C275.609 271.35 274.499 271.98 273.179 271.98C271.229 271.98 269.789 270.57 269.789 268.5C269.789 266.43 271.229 265.02 273.179 265.02C274.499 265.02 275.579 265.65 276.089 266.7L280.019 264.42C278.729 262.11 276.149 260.58 273.239 260.58C268.679 260.58 265.289 264.03 265.289 268.5C265.289 272.97 268.679 276.42 273.239 276.42ZM290.62 260.58C288.64 260.58 287.14 261.3 286.33 262.41V255H281.83V276H286.33V267.81C286.33 265.68 287.47 264.72 289.12 264.72C290.56 264.72 291.73 265.59 291.73 267.45V276H296.23V266.79C296.23 262.74 293.65 260.58 290.62 260.58ZM306.52 276.42C310.93 276.42 314.47 272.97 314.47 268.5C314.47 264.03 310.93 260.58 306.52 260.58C302.11 260.58 298.57 264.03 298.57 268.5C298.57 272.97 302.11 276.42 306.52 276.42ZM306.52 272.04C304.57 272.04 303.07 270.63 303.07 268.5C303.07 266.37 304.57 264.96 306.52 264.96C308.47 264.96 309.97 266.37 309.97 268.5C309.97 270.63 308.47 272.04 306.52 272.04ZM324.215 276.42C328.625 276.42 332.165 272.97 332.165 268.5C332.165 264.03 328.625 260.58 324.215 260.58C319.805 260.58 316.265 264.03 316.265 268.5C316.265 272.97 319.805 276.42 324.215 276.42ZM324.215 272.04C322.265 272.04 320.765 270.63 320.765 268.5C320.765 266.37 322.265 264.96 324.215 264.96C326.165 264.96 327.665 266.37 327.665 268.5C327.665 270.63 326.165 272.04 324.215 272.04ZM334.711 276H339.211V254.1H334.711V276Z" fill="#3030C1"/>
<g clip-path="url(#clip0)">
<path d="M213.404 120.452C198.481 120.504 186.499 132.823 186.499 147.747V183.644C186.499 184.738 187.729 185.38 188.626 184.754L210.94 169.208C212.478 168.136 214.521 168.136 216.06 169.208L238.373 184.754C239.271 185.38 240.501 184.738 240.501 183.644V147.453C240.501 132.509 228.361 120.401 213.404 120.452Z" fill="url(#paint0_linear)"/>
<path d="M240.501 183.644V147.453C240.501 132.509 228.361 120.4 213.405 120.452C200.579 120.497 189.925 129.603 187.184 141.636L187.259 141.971L213.699 168.412C214.528 168.448 215.348 168.712 216.06 169.208L238.374 184.755C239.271 185.38 240.501 184.738 240.501 183.644Z" fill="url(#paint1_linear)"/>
<path d="M197.986 125.423V178.233L192.234 182.24V130.954C193.87 128.842 195.807 126.974 197.981 125.428L197.986 125.423Z" fill="url(#paint2_linear)"/>
<path d="M234.766 130.814V182.24L229.014 178.233V125.354C231.189 126.883 233.127 128.725 234.766 130.814Z" fill="url(#paint3_linear)"/>
<path d="M213.5 120.453V168.404C214.395 168.404 215.291 168.672 216.06 169.208L238.373 184.755C239.271 185.38 240.501 184.738 240.501 183.644V147.453C240.501 132.541 228.412 120.453 213.5 120.453Z" fill="url(#paint4_linear)"/>
<path d="M238.374 180.378L216.06 164.831C214.522 163.759 212.479 163.759 210.94 164.831L188.627 180.378C187.729 181.003 186.499 180.361 186.499 179.267V183.644C186.499 184.738 187.729 185.38 188.627 184.755L210.94 169.208C212.479 168.136 214.522 168.136 216.06 169.208L238.374 184.755C239.271 185.38 240.501 184.738 240.501 183.644V179.267C240.501 180.361 239.271 181.003 238.374 180.378Z" fill="url(#paint5_linear)"/>
<path d="M197.986 125.422V152.7L192.234 146.949V130.953C192.349 130.807 192.466 130.66 192.583 130.513C192.707 130.36 192.835 130.204 192.963 130.053C193.069 129.929 193.174 129.805 193.279 129.684C193.495 129.439 193.713 129.196 193.937 128.96C194.017 128.873 194.099 128.788 194.182 128.703C194.397 128.476 194.62 128.256 194.844 128.039C195.064 127.826 195.286 127.615 195.516 127.411C195.557 127.372 195.598 127.335 195.639 127.299C195.756 127.193 195.873 127.09 195.992 126.989C196.187 126.82 196.384 126.655 196.583 126.492C196.678 126.414 196.771 126.338 196.868 126.263C196.957 126.192 197.046 126.123 197.136 126.054C197.319 125.912 197.502 125.775 197.688 125.64C197.784 125.566 197.883 125.498 197.981 125.427L197.986 125.422Z" fill="url(#paint6_linear)"/>
<path d="M234.766 130.814V182.24L229.014 178.233V125.354C231.189 126.883 233.127 128.725 234.766 130.814Z" fill="url(#paint7_linear)"/>
<path d="M253.827 106.064C253.827 86.1465 235.772 70 213.5 70C191.228 70 173.173 86.1465 173.173 106.064V114.59C173.173 134.507 191.228 150.654 213.5 150.654C235.772 150.654 253.827 134.507 253.827 114.59C253.827 114.562 253.827 106.092 253.827 106.064Z" fill="url(#paint8_linear)"/>
<path d="M253.827 106.064C253.827 86.1465 235.772 70 213.5 70C191.228 70 173.173 86.1465 173.173 106.064V114.59C173.173 134.507 191.228 150.654 213.5 150.654C235.772 150.654 253.827 134.507 253.827 114.59C253.827 114.562 253.827 106.092 253.827 106.064Z" fill="url(#paint9_linear)"/>
<path d="M246.713 85.6078C239.439 76.18 227.277 70 213.5 70C199.723 70 187.561 76.18 180.287 85.6078V135.046C187.561 144.474 199.723 150.654 213.5 150.654C227.277 150.654 239.439 144.474 246.713 135.046V85.6078Z" fill="url(#paint10_linear)"/>
<path d="M189.847 143.799C196.491 148.11 204.663 150.654 213.5 150.654C222.337 150.654 230.508 148.11 237.153 143.799V76.8547C230.508 72.544 222.337 70 213.5 70C204.663 70 196.492 72.544 189.847 76.8547V143.799Z" fill="url(#paint11_linear)"/>
<path d="M204.338 149.718C207.281 150.33 210.348 150.654 213.5 150.654C216.652 150.654 219.719 150.33 222.662 149.718V70.9353C219.719 70.3238 216.652 70 213.5 70C210.348 70 207.281 70.3238 204.338 70.9353V149.718Z" fill="url(#paint12_linear)"/>
<path d="M213.5 142.128C235.772 142.128 253.827 125.982 253.827 106.064C253.827 86.1464 235.772 70 213.5 70C191.228 70 173.173 86.1464 173.173 106.064C173.173 125.982 191.228 142.128 213.5 142.128Z" fill="url(#paint13_linear)"/>
<path d="M213.5 138.106C233.288 138.106 249.329 123.76 249.329 106.064C249.329 88.3677 233.288 74.0221 213.5 74.0221C193.712 74.0221 177.671 88.3677 177.671 106.064C177.671 123.76 193.712 138.106 213.5 138.106Z" fill="url(#paint14_linear)"/>
<path d="M213.5 135.071C231.414 135.071 245.936 122.084 245.936 106.064C245.936 90.0437 231.414 77.0567 213.5 77.0567C195.586 77.0567 181.064 90.0437 181.064 106.064C181.064 122.084 195.586 135.071 213.5 135.071Z" fill="url(#paint15_linear)"/>
<path d="M253.15 112.668L238.516 98.0338C238.269 97.5231 237.789 97.1208 237.136 97.0277L230.325 96.0371L215.144 80.8932V80.893C214.811 80.2081 214.155 79.8622 213.5 79.8622C212.844 79.8622 212.189 80.2079 211.856 80.893L205.092 94.8131L189.864 97.0277C189.11 97.1352 188.585 97.6539 188.386 98.2769C188.184 98.9031 188.311 99.6337 188.862 100.159L199.654 110.921C199.677 110.952 199.703 110.981 199.729 111.012L197.235 125.56C197.108 126.294 197.424 126.946 197.939 127.331L212.728 142.12C212.985 142.124 213.242 142.128 213.5 142.128C233.249 142.128 249.681 129.431 253.15 112.668Z" fill="url(#paint16_linear)"/>
<path d="M238.614 98.2767C238.415 97.6537 237.89 97.1351 237.136 97.0275L221.908 94.813L215.144 80.8928C214.811 80.208 214.155 79.8621 213.5 79.8621C212.844 79.8621 212.189 80.2077 211.856 80.8928L205.092 94.813L189.864 97.0275C189.11 97.1351 188.585 97.6537 188.386 98.2767C188.184 98.9029 188.311 99.6335 188.862 100.159L199.802 110.586L197.235 125.559C197.108 126.293 197.424 126.946 197.939 127.33C198.458 127.719 199.179 127.839 199.851 127.503L213.5 120.7L227.15 127.503C227.822 127.839 228.542 127.719 229.061 127.33C229.576 126.946 229.892 126.293 229.765 125.559L227.199 110.586L238.138 100.159C238.689 99.6335 238.816 98.9029 238.614 98.2767ZM213.5 106.241L213.477 106.248L213.487 106.238L213.5 106.219L213.513 106.238L213.523 106.248L213.5 106.241Z" fill="url(#paint17_linear)"/>
<path d="M213.487 106.238L213.477 106.248L199.802 110.586L188.863 100.158C188.311 99.6333 188.184 98.9027 188.386 98.2765L213.487 106.238Z" fill="url(#paint18_linear)"/>
<path d="M213.477 106.248L197.939 127.331C197.424 126.946 197.108 126.293 197.235 125.56L199.801 110.586L213.477 106.248Z" fill="url(#paint19_linear)"/>
<path d="M229.061 127.33C228.542 127.718 227.822 127.839 227.15 127.503L213.5 120.7V106.241L213.523 106.248L229.061 127.33Z" fill="url(#paint20_linear)"/>
<path d="M213.5 106.241V120.7L199.85 127.503C199.178 127.839 198.458 127.719 197.939 127.331L213.477 106.248L213.5 106.241Z" fill="url(#paint21_linear)"/>
<path d="M229.061 127.33L213.523 106.248L227.198 110.585L229.765 125.559C229.892 126.293 229.576 126.946 229.061 127.33Z" fill="url(#paint22_linear)"/>
<path d="M213.5 106.219L213.487 106.238L188.386 98.2769C188.585 97.6539 189.11 97.1353 189.864 97.0277L205.092 94.8132L213.5 106.219Z" fill="url(#paint23_linear)"/>
<path d="M221.908 94.813L213.5 106.219V79.8621C214.155 79.8621 214.811 80.2077 215.144 80.8928L221.908 94.813Z" fill="url(#paint24_linear)"/>
<path d="M213.5 79.8621V106.218L205.092 94.813L211.856 80.8928C212.189 80.2077 212.845 79.8621 213.5 79.8621Z" fill="url(#paint25_linear)"/>
<path d="M238.614 98.2767L213.513 106.238L213.5 106.219L221.908 94.8132L237.136 97.0277C237.89 97.1353 238.415 97.6537 238.614 98.2767Z" fill="url(#paint26_linear)"/>
<path d="M238.138 100.159L227.199 110.586L213.523 106.248L213.513 106.238L238.614 98.2769C238.816 98.9029 238.689 99.6335 238.138 100.159Z" fill="url(#paint27_linear)"/>
<path d="M234.361 99.2089C234.195 98.6914 233.759 98.2607 233.133 98.1711L220.484 96.3316L214.865 84.7689C214.589 84.2 214.045 83.9127 213.5 83.9127C212.955 83.9127 212.411 84.2 212.135 84.7689L206.516 96.3316L193.867 98.1711C193.241 98.2607 192.805 98.6914 192.639 99.2089C192.471 99.7291 192.577 100.336 193.035 100.772L202.122 109.433L199.99 121.871C199.884 122.48 200.147 123.022 200.575 123.342C201.005 123.664 201.604 123.765 202.162 123.486L213.5 117.834L224.838 123.486C225.396 123.765 225.995 123.664 226.426 123.342C226.854 123.022 227.116 122.48 227.011 121.871L224.879 109.433L233.965 100.772C234.423 100.336 234.529 99.7291 234.361 99.2089ZM213.5 105.825L213.481 105.83L213.489 105.822L213.5 105.806L213.511 105.822L213.519 105.83L213.5 105.825Z" fill="url(#paint28_linear)"/>
<path d="M213.5 131.996C229.515 131.996 242.498 120.386 242.498 106.064C242.498 91.742 229.515 80.1317 213.5 80.1317C197.485 80.1317 184.502 91.742 184.502 106.064C184.502 120.386 197.485 131.996 213.5 131.996Z" fill="url(#paint29_linear)"/>
</g>
</g>
<defs>
<filter id="filter0_d" x="0" y="0" width="440" height="461" filterUnits="userSpaceOnUse" color-interpolation-filters="sRGB">
<feFlood flood-opacity="0" result="BackgroundImageFix"/>
<feColorMatrix in="SourceAlpha" type="matrix" values="0 0 0 0 0 0 0 0 0 0 0 0 0 0 0 0 0 0 127 0"/>
<feOffset dx="7" dy="7"/>
<feGaussianBlur stdDeviation="15"/>
<feColorMatrix type="matrix" values="0 0 0 0 0 0 0 0 0 0 0 0 0 0 0 0 0 0 0.25 0"/>
<feBlend mode="normal" in2="BackgroundImageFix" result="effect1_dropShadow"/>
<feBlend mode="normal" in="SourceGraphic" in2="effect1_dropShadow" result="shape"/>
</filter>
<linearGradient id="paint0_linear" x1="198.385" y1="141.528" x2="240.478" y2="196.284" gradientUnits="userSpaceOnUse">
<stop stop-color="#4A98F7"/>
<stop offset="1" stop-color="#0469BC"/>
</linearGradient>
<linearGradient id="paint1_linear" x1="215.494" y1="167.348" x2="213.613" y2="140.827" gradientUnits="userSpaceOnUse">
<stop stop-color="#0469BC" stop-opacity="0"/>
<stop offset="1" stop-color="#0469BC"/>
</linearGradient>
<linearGradient id="paint2_linear" x1="187.022" y1="143.31" x2="211.3" y2="174.892" gradientUnits="userSpaceOnUse">
<stop stop-color="#F9F7FC"/>
<stop offset="1" stop-color="#F0DDFC"/>
</linearGradient>
<linearGradient id="paint3_linear" x1="222.043" y1="141.715" x2="250.217" y2="178.364" gradientUnits="userSpaceOnUse">
<stop stop-color="#F9F7FC"/>
<stop offset="1" stop-color="#F0DDFC"/>
</linearGradient>
<linearGradient id="paint4_linear" x1="224.681" y1="149.364" x2="179.174" y2="116.294" gradientUnits="userSpaceOnUse">
<stop stop-color="#18CFFC" stop-opacity="0"/>
<stop offset="1" stop-color="#65E1DC"/>
</linearGradient>
<linearGradient id="paint5_linear" x1="213.5" y1="179.646" x2="213.5" y2="141.114" gradientUnits="userSpaceOnUse">
<stop stop-color="#0469BC" stop-opacity="0"/>
<stop offset="1" stop-color="#0469BC"/>
</linearGradient>
<linearGradient id="paint6_linear" x1="195.11" y1="167.729" x2="195.11" y2="139.31" gradientUnits="userSpaceOnUse">
<stop stop-color="#F0DDFC" stop-opacity="0"/>
<stop offset="0.2889" stop-color="#C8B7E0" stop-opacity="0.289"/>
<stop offset="0.5915" stop-color="#A595C8" stop-opacity="0.592"/>
<stop offset="0.8395" stop-color="#8F81B8" stop-opacity="0.84"/>
<stop offset="1" stop-color="#8779B3"/>
</linearGradient>
<linearGradient id="paint7_linear" x1="231.89" y1="167.729" x2="231.89" y2="139.31" gradientUnits="userSpaceOnUse">
<stop stop-color="#F0DDFC" stop-opacity="0"/>
<stop offset="0.2889" stop-color="#C8B7E0" stop-opacity="0.289"/>
<stop offset="0.5915" stop-color="#A595C8" stop-opacity="0.592"/>
<stop offset="0.8395" stop-color="#8F81B8" stop-opacity="0.84"/>
<stop offset="1" stop-color="#8779B3"/>
</linearGradient>
<linearGradient id="paint8_linear" x1="173.173" y1="110.327" x2="253.827" y2="110.327" gradientUnits="userSpaceOnUse">
<stop stop-color="#FFDA45"/>
<stop offset="1" stop-color="#FFA425"/>
</linearGradient>
<linearGradient id="paint9_linear" x1="231.586" y1="116.19" x2="260.369" y2="125.521" gradientUnits="userSpaceOnUse">
<stop stop-color="#FFDA45" stop-opacity="0"/>
<stop offset="0.5194" stop-color="#D9874F" stop-opacity="0.519"/>
<stop offset="1" stop-color="#B53759"/>
</linearGradient>
<linearGradient id="paint10_linear" x1="209.661" y1="102.945" x2="242.808" y2="166.688" gradientUnits="userSpaceOnUse">
<stop stop-color="#FFDA45" stop-opacity="0"/>
<stop offset="0.5194" stop-color="#D9874F" stop-opacity="0.519"/>
<stop offset="1" stop-color="#B53759"/>
</linearGradient>
<linearGradient id="paint11_linear" x1="212.259" y1="122.912" x2="208.344" y2="162.621" gradientUnits="userSpaceOnUse">
<stop stop-color="#FFDA45" stop-opacity="0"/>
<stop offset="0.5194" stop-color="#D9874F" stop-opacity="0.519"/>
<stop offset="1" stop-color="#B53759"/>
</linearGradient>
<linearGradient id="paint12_linear" x1="205.513" y1="124.935" x2="193.41" y2="147.07" gradientUnits="userSpaceOnUse">
<stop stop-color="#FFDA45" stop-opacity="0"/>
<stop offset="0.5194" stop-color="#D9874F" stop-opacity="0.519"/>
<stop offset="1" stop-color="#B53759"/>
</linearGradient>
<linearGradient id="paint13_linear" x1="173.173" y1="106.064" x2="253.827" y2="106.064" gradientUnits="userSpaceOnUse">
<stop stop-color="#FFDA45"/>
<stop offset="1" stop-color="#FFA425"/>
</linearGradient>
<linearGradient id="paint14_linear" x1="249.329" y1="106.064" x2="177.671" y2="106.064" gradientUnits="userSpaceOnUse">
<stop stop-color="#FFDA45"/>
<stop offset="1" stop-color="#FFA425"/>
</linearGradient>
<linearGradient id="paint15_linear" x1="181.064" y1="106.064" x2="245.936" y2="106.064" gradientUnits="userSpaceOnUse">
<stop stop-color="#FFDA45"/>
<stop offset="1" stop-color="#FFA425"/>
</linearGradient>
<linearGradient id="paint16_linear" x1="256.583" y1="146.563" x2="175.471" y2="76.9077" gradientUnits="userSpaceOnUse">
<stop stop-color="#FFDA45" stop-opacity="0"/>
<stop offset="0.5194" stop-color="#D9874F" stop-opacity="0.519"/>
<stop offset="1" stop-color="#B53759"/>
</linearGradient>
<linearGradient id="paint17_linear" x1="203.704" y1="97.5849" x2="241.891" y2="137.148" gradientUnits="userSpaceOnUse">
<stop stop-color="#FFDA45"/>
<stop offset="1" stop-color="#FCB37E"/>
</linearGradient>
<linearGradient id="paint18_linear" x1="197.856" y1="99.6605" x2="221.607" y2="124.995" gradientUnits="userSpaceOnUse">
<stop stop-color="#FCB37E" stop-opacity="0"/>
<stop offset="1" stop-color="#FF7044"/>
</linearGradient>
<linearGradient id="paint19_linear" x1="197.207" y1="116.789" x2="213.477" y2="116.789" gradientUnits="userSpaceOnUse">
<stop stop-color="#FFDA45"/>
<stop offset="1" stop-color="#FCB37E"/>
</linearGradient>
<linearGradient id="paint20_linear" x1="209.618" y1="109.088" x2="237.416" y2="140.404" gradientUnits="userSpaceOnUse">
<stop stop-color="#FCB37E" stop-opacity="0"/>
<stop offset="1" stop-color="#FF7044"/>
</linearGradient>
<linearGradient id="paint21_linear" x1="193.698" y1="117.404" x2="229.413" y2="116.173" gradientUnits="userSpaceOnUse">
<stop stop-color="#FCB37E" stop-opacity="0"/>
<stop offset="1" stop-color="#FF7044"/>
</linearGradient>
<linearGradient id="paint22_linear" x1="225.622" y1="131.791" x2="216.474" y2="91.1503" gradientUnits="userSpaceOnUse">
<stop stop-color="#FFDA45"/>
<stop offset="1" stop-color="#FCB37E"/>
</linearGradient>
<linearGradient id="paint23_linear" x1="199.737" y1="97.0329" x2="205.191" y2="120.608" gradientUnits="userSpaceOnUse">
<stop stop-color="#FFDA45"/>
<stop offset="1" stop-color="#FCB37E"/>
</linearGradient>
<linearGradient id="paint24_linear" x1="222.96" y1="96.7145" x2="189.18" y2="83.3436" gradientUnits="userSpaceOnUse">
<stop stop-color="#FCB37E" stop-opacity="0"/>
<stop offset="1" stop-color="#FF7044"/>
</linearGradient>
<linearGradient id="paint25_linear" x1="208.294" y1="85.6269" x2="225.711" y2="115.36" gradientUnits="userSpaceOnUse">
<stop stop-color="#FCB37E" stop-opacity="0"/>
<stop offset="1" stop-color="#FF7044"/>
</linearGradient>
<linearGradient id="paint26_linear" x1="229.901" y1="96.8636" x2="197.529" y2="125.541" gradientUnits="userSpaceOnUse">
<stop stop-color="#FCB37E" stop-opacity="0"/>
<stop offset="1" stop-color="#FF7044"/>
</linearGradient>
<linearGradient id="paint27_linear" x1="224.084" y1="108.518" x2="235.343" y2="76.1464" gradientUnits="userSpaceOnUse">
<stop stop-color="#FCB37E" stop-opacity="0"/>
<stop offset="1" stop-color="#FF7044"/>
</linearGradient>
<linearGradient id="paint28_linear" x1="214.161" y1="106.511" x2="203.221" y2="90.7081" gradientUnits="userSpaceOnUse">
<stop stop-color="#FFDA45" stop-opacity="0"/>
<stop offset="1" stop-color="#FFEE83"/>
</linearGradient>
<linearGradient id="paint29_linear" x1="211.512" y1="103.306" x2="190.202" y2="73.7481" gradientUnits="userSpaceOnUse">
<stop stop-color="#FFDA45" stop-opacity="0"/>
<stop offset="1" stop-color="#FCEE21"/>
</linearGradient>
<clipPath id="clip0">
<rect width="115" height="115" fill="white" transform="translate(156 70)"/>
</clipPath>
</defs>
</svg>
